<?xml version="1.0" encoding="UTF-8" standalone="no"?>
<svg
   xmlns:dc="http://purl.org/dc/elements/1.1/"
   xmlns:cc="http://creativecommons.org/ns#"
   xmlns:rdf="http://www.w3.org/1999/02/22-rdf-syntax-ns#"
   xmlns:svg="http://www.w3.org/2000/svg"
   xmlns="http://www.w3.org/2000/svg"
   xmlns:sodipodi="http://sodipodi.sourceforge.net/DTD/sodipodi-0.dtd"
   xmlns:inkscape="http://www.inkscape.org/namespaces/inkscape"
   inkscape:version="1.0 (4035a4fb49, 2020-05-01)"
   sodipodi:docname="impedance_PCA_gain_lines_97A6.svg"
   viewBox="0 0 4459.3911 3700.3467"
   height="3700.3467"
   width="4459.3911"
   xml:space="preserve"
   id="svg833"
   version="1.1"><metadata
     id="metadata839"><rdf:RDF><cc:Work
         rdf:about=""><dc:format>image/svg+xml</dc:format><dc:type
           rdf:resource="http://purl.org/dc/dcmitype/StillImage" /><dc:title></dc:title></cc:Work></rdf:RDF></metadata><defs
     id="defs837"><clipPath
       id="clipPath847"
       clipPathUnits="userSpaceOnUse"><path
         id="path845"
         d="M 0,0 H 6000 V 6000 H 0 Z" /></clipPath><clipPath
       id="clipPath855"
       clipPathUnits="userSpaceOnUse"><path
         id="path853"
         d="M 0,0 H 6000 V 6000 H 0 Z" /></clipPath><clipPath
       id="clipPath865"
       clipPathUnits="userSpaceOnUse"><path
         id="path863"
         d="M 0,0 H 6000 V 6000 H 0 Z" /></clipPath><clipPath
       id="clipPath1057"
       clipPathUnits="userSpaceOnUse"><path
         id="path1055"
         d="M 0,0 H 6000 V 6000 H 0 Z" /></clipPath><clipPath
       id="clipPath1143"
       clipPathUnits="userSpaceOnUse"><path
         id="path1141"
         d="M 0,0 H 6000 V 6000 H 0 Z" /></clipPath><clipPath
       id="clipPath1343"
       clipPathUnits="userSpaceOnUse"><path
         id="path1341"
         d="M 0,0 H 6000 V 6000 H 0 Z" /></clipPath><clipPath
       id="clipPath1415"
       clipPathUnits="userSpaceOnUse"><path
         id="path1413"
         d="M 0,0 H 6000 V 6000 H 0 Z" /></clipPath><clipPath
       id="clipPath1617"
       clipPathUnits="userSpaceOnUse"><path
         id="path1615"
         d="M 0,0 H 6000 V 6000 H 0 Z" /></clipPath><clipPath
       id="clipPath1819"
       clipPathUnits="userSpaceOnUse"><path
         id="path1817"
         d="M 0,0 H 6000 V 6000 H 0 Z" /></clipPath></defs><sodipodi:namedview
     inkscape:current-layer="g843"
     inkscape:window-maximized="1"
     inkscape:window-y="-11"
     inkscape:window-x="-11"
     inkscape:cy="1801.8315"
     inkscape:cx="2793.7639"
     inkscape:zoom="0.17854446"
     fit-margin-bottom="0"
     fit-margin-right="0"
     fit-margin-left="0"
     fit-margin-top="0"
     showgrid="false"
     id="namedview835"
     inkscape:window-height="2126"
     inkscape:window-width="3840"
     inkscape:pageshadow="2"
     inkscape:pageopacity="0"
     guidetolerance="10"
     gridtolerance="10"
     objecttolerance="10"
     borderopacity="1"
     bordercolor="#666666"
     pagecolor="#ffffff" /><g
     transform="matrix(1.3333333,0,0,-1.3333333,-149.97333,7974.5465)"
     inkscape:label="impedance_PCA_gain_lines_97A6"
     inkscape:groupmode="layer"
     id="g841"><g
       clip-path="url(#clipPath847)"
       id="g843"><g
         id="g849" /><path
         id="path869"
         style="fill:none;stroke:#000000;stroke-width:4;stroke-linecap:butt;stroke-linejoin:miter;stroke-miterlimit:10;stroke-dasharray:none;stroke-opacity:0.0980392"
         d="M 698.58,3500.57 V 5692.58" /><path
         id="path871"
         style="fill:none;stroke:#000000;stroke-width:4;stroke-linecap:butt;stroke-linejoin:miter;stroke-miterlimit:10;stroke-dasharray:none;stroke-opacity:0.0980392"
         d="M 1263.45,3500.57 V 5692.58" /><path
         id="path873"
         style="fill:none;stroke:#000000;stroke-width:4;stroke-linecap:butt;stroke-linejoin:miter;stroke-miterlimit:10;stroke-dasharray:none;stroke-opacity:0.0980392"
         d="M 1828.32,3500.57 V 5692.58" /><path
         id="path875"
         style="fill:none;stroke:#000000;stroke-width:4;stroke-linecap:butt;stroke-linejoin:miter;stroke-miterlimit:10;stroke-dasharray:none;stroke-opacity:0.0980392"
         d="M 2393.19,3500.57 V 5692.58" /><path
         id="path877"
         style="fill:none;stroke:#000000;stroke-width:8;stroke-linecap:butt;stroke-linejoin:miter;stroke-miterlimit:10;stroke-dasharray:none;stroke-opacity:1"
         d="M 633.51,3500.57 H 2932.76" /><path
         id="path879"
         style="fill:none;stroke:#000000;stroke-width:8;stroke-linecap:butt;stroke-linejoin:miter;stroke-miterlimit:10;stroke-dasharray:none;stroke-opacity:1"
         d="m 698.58,3500.57 v 26.3" /><path
         id="path881"
         style="fill:none;stroke:#000000;stroke-width:8;stroke-linecap:butt;stroke-linejoin:miter;stroke-miterlimit:10;stroke-dasharray:none;stroke-opacity:1"
         d="m 1263.45,3500.57 v 26.3" /><path
         id="path883"
         style="fill:none;stroke:#000000;stroke-width:8;stroke-linecap:butt;stroke-linejoin:miter;stroke-miterlimit:10;stroke-dasharray:none;stroke-opacity:1"
         d="m 1828.32,3500.57 v 26.3" /><path
         id="path885"
         style="fill:none;stroke:#000000;stroke-width:8;stroke-linecap:butt;stroke-linejoin:miter;stroke-miterlimit:10;stroke-dasharray:none;stroke-opacity:1"
         d="m 2393.19,3500.57 v 26.3" /><path
         id="path887"
         style="fill:#000000;fill-opacity:1;fill-rule:evenodd;stroke:none"
         d="m 661.62,3432.59 c 0,0 -7.23,0 -10.88,-7.13 0,0 -3.61,-7.08 -3.61,-21.34 0,0 0,-14.22 3.61,-21.35 0,0 3.65,-7.08 10.88,-7.08 0,0 7.27,0 10.88,7.08 0,0 3.65,7.13 3.65,21.35 0,0 0,14.26 -3.65,21.34 0,0 -3.61,7.13 -10.88,7.13 m 0,7.41 c 0,0 11.62,0 17.73,-9.22 0,0 6.16,-9.16 6.16,-26.66 0,0 0,-17.46 -6.16,-26.67 0,0 -6.11,-9.17 -17.73,-9.17 0,0 -11.62,0 -17.78,9.17 0,0 -6.11,9.21 -6.11,26.67 0,0 0,17.5 6.11,26.66 0,0 6.16,9.22 17.78,9.22 z" /><path
         id="path889"
         style="fill:#000000;fill-opacity:1;fill-rule:evenodd;stroke:none"
         d="m 695.64,3381.39 h 9.77 v -11.76 h -9.77 z" /><path
         id="path891"
         style="fill:#000000;fill-opacity:1;fill-rule:evenodd;stroke:none"
         d="m 735.55,3432.59 c 0,0 -7.22,0 -10.88,-7.13 0,0 -3.61,-7.08 -3.61,-21.34 0,0 0,-14.22 3.61,-21.35 0,0 3.66,-7.08 10.88,-7.08 0,0 7.27,0 10.88,7.08 0,0 3.66,7.13 3.66,21.35 0,0 0,14.26 -3.66,21.34 0,0 -3.61,7.13 -10.88,7.13 m 0,7.41 c 0,0 11.62,0 17.73,-9.22 0,0 6.16,-9.16 6.16,-26.66 0,0 0,-17.46 -6.16,-26.67 0,0 -6.11,-9.17 -17.73,-9.17 0,0 -11.62,0 -17.78,9.17 0,0 -6.11,9.21 -6.11,26.67 0,0 0,17.5 6.11,26.66 0,0 6.16,9.22 17.78,9.22 z" /><path
         id="path893"
         style="fill:#000000;fill-opacity:1;fill-rule:evenodd;stroke:none"
         d="m 1227.48,3432.59 c 0,0 -7.22,0 -10.88,-7.13 0,0 -3.61,-7.08 -3.61,-21.34 0,0 0,-14.22 3.61,-21.35 0,0 3.66,-7.08 10.88,-7.08 0,0 7.27,0 10.88,7.08 0,0 3.66,7.13 3.66,21.35 0,0 0,14.26 -3.66,21.34 0,0 -3.61,7.13 -10.88,7.13 m 0,7.41 c 0,0 11.62,0 17.73,-9.22 0,0 6.16,-9.16 6.16,-26.66 0,0 0,-17.46 -6.16,-26.67 0,0 -6.11,-9.17 -17.73,-9.17 0,0 -11.62,0 -17.78,9.17 0,0 -6.11,9.21 -6.11,26.67 0,0 0,17.5 6.11,26.66 0,0 6.16,9.22 17.78,9.22 z" /><path
         id="path895"
         style="fill:#000000;fill-opacity:1;fill-rule:evenodd;stroke:none"
         d="m 1261.51,3381.39 h 9.77 v -11.76 h -9.77 z" /><path
         id="path897"
         style="fill:#000000;fill-opacity:1;fill-rule:evenodd;stroke:none"
         d="m 1281.51,3438.75 h 36.71 v -7.87 h -28.15 v -16.95 c 0,0 2.04,0.7 4.08,1.02 0,0 2.04,0.37 4.07,0.37 0,0 11.58,0 18.34,-6.34 0,0 6.75,-6.35 6.75,-17.18 0,0 0,-11.16 -6.94,-17.36 0,0 -6.94,-6.16 -19.58,-6.16 0,0 -4.35,0 -8.89,0.74 0,0 -4.49,0.74 -9.31,2.23 v 9.39 c 0,0 4.17,-2.26 8.61,-3.38 0,0 4.45,-1.11 9.4,-1.11 0,0 8.01,0 12.69,4.22 0,0 4.67,4.21 4.67,11.43 0,0 0,7.22 -4.67,11.44 0,0 -4.68,4.21 -12.69,4.21 0,0 -3.75,0 -7.5,-0.83 0,0 -3.7,-0.84 -7.59,-2.6 z" /><path
         id="path899"
         style="fill:#000000;fill-opacity:1;fill-rule:evenodd;stroke:none"
         d="m 1772.12,3377.5 h 15.28 v 52.73 l -16.62,-3.34 v 8.52 l 16.53,3.34 h 9.35 v -61.25 h 15.27 v -7.87 h -39.81 z" /><path
         id="path901"
         style="fill:#000000;fill-opacity:1;fill-rule:evenodd;stroke:none"
         d="m 1822.07,3381.39 h 9.77 v -11.76 h -9.77 z" /><path
         id="path903"
         style="fill:#000000;fill-opacity:1;fill-rule:evenodd;stroke:none"
         d="m 1861.98,3432.59 c 0,0 -7.22,0 -10.88,-7.13 0,0 -3.61,-7.08 -3.61,-21.34 0,0 0,-14.22 3.61,-21.35 0,0 3.66,-7.08 10.88,-7.08 0,0 7.27,0 10.88,7.08 0,0 3.66,7.13 3.66,21.35 0,0 0,14.26 -3.66,21.34 0,0 -3.61,7.13 -10.88,7.13 m 0,7.41 c 0,0 11.62,0 17.73,-9.22 0,0 6.16,-9.16 6.16,-26.66 0,0 0,-17.46 -6.16,-26.67 0,0 -6.11,-9.17 -17.73,-9.17 0,0 -11.62,0 -17.78,9.17 0,0 -6.11,9.21 -6.11,26.67 0,0 0,17.5 6.11,26.66 0,0 6.16,9.22 17.78,9.22 z" /><path
         id="path905"
         style="fill:#000000;fill-opacity:1;fill-rule:evenodd;stroke:none"
         d="m 2337.99,3377.5 h 15.27 v 52.73 l -16.62,-3.34 v 8.52 l 16.53,3.34 h 9.35 v -61.25 h 15.28 v -7.87 h -39.81 z" /><path
         id="path907"
         style="fill:#000000;fill-opacity:1;fill-rule:evenodd;stroke:none"
         d="m 2387.94,3381.39 h 9.77 v -11.76 h -9.77 z" /><path
         id="path909"
         style="fill:#000000;fill-opacity:1;fill-rule:evenodd;stroke:none"
         d="m 2407.94,3438.75 h 36.71 v -7.87 h -28.15 v -16.95 c 0,0 2.04,0.7 4.08,1.02 0,0 2.03,0.37 4.07,0.37 0,0 11.58,0 18.33,-6.34 0,0 6.76,-6.35 6.76,-17.18 0,0 0,-11.16 -6.94,-17.36 0,0 -6.94,-6.16 -19.58,-6.16 0,0 -4.36,0 -8.89,0.74 0,0 -4.49,0.74 -9.31,2.23 v 9.39 c 0,0 4.17,-2.26 8.61,-3.38 0,0 4.45,-1.11 9.4,-1.11 0,0 8.01,0 12.69,4.22 0,0 4.67,4.21 4.67,11.43 0,0 0,7.22 -4.67,11.44 0,0 -4.68,4.21 -12.69,4.21 0,0 -3.75,0 -7.5,-0.83 0,0 -3.7,-0.84 -7.59,-2.6 z" /><path
         id="path911"
         style="fill:#000000;fill-opacity:1;fill-rule:evenodd;stroke:none"
         d="m 1412.52,3317.88 h 80.4 v -10.82 h -33.74 v -84.22 h -12.92 v 84.22 h -33.74 z" /><path
         id="path913"
         style="fill:#000000;fill-opacity:1;fill-rule:evenodd;stroke:none"
         d="m 1501.2,3294.14 h 11.71 v -71.3 h -11.71 v 71.3 m 0,27.75 h 11.71 v -14.83 h -11.71 z" /><path
         id="path915"
         style="fill:#000000;fill-opacity:1;fill-rule:evenodd;stroke:none"
         d="m 1580.7,3280.45 c 0,0 4.4,7.9 10.51,11.65 0,0 6.11,3.76 14.38,3.76 0,0 11.14,0 17.19,-7.83 0,0 6.05,-7.77 6.05,-22.16 v -43.03 h -11.78 v 42.65 c 0,0 0,10.25 -3.63,15.22 0,0 -3.62,4.96 -11.07,4.96 0,0 -9.1,0 -14.39,-6.05 0,0 -5.28,-6.04 -5.28,-16.48 v -40.3 h -11.78 v 42.65 c 0,0 0,10.31 -3.63,15.22 0,0 -3.63,4.96 -11.2,4.96 0,0 -8.98,0 -14.26,-6.11 0,0 -5.28,-6.05 -5.28,-16.42 v -40.3 h -11.78 v 71.3 h 11.78 v -11.08 c 0,0 4.01,6.56 9.61,9.68 0,0 5.6,3.12 13.3,3.12 0,0 7.77,0 13.18,-3.95 0,0 5.47,-3.95 8.08,-11.46 z" /><path
         id="path917"
         style="fill:#000000;fill-opacity:1;fill-rule:evenodd;stroke:none"
         d="m 1702.1,3261.42 v -5.73 h -53.86 c 0,0 0.77,-12.1 7.26,-18.46 0,0 6.56,-6.3 18.21,-6.3 0,0 6.75,0 13.05,1.65 0,0 6.36,1.66 12.6,4.97 v -11.08 c 0,0 -6.3,-2.67 -12.92,-4.07 0,0 -6.62,-1.4 -13.43,-1.4 0,0 -17.06,0 -27.06,9.93 0,0 -9.93,9.93 -9.93,26.86 0,0 0,17.51 9.42,27.75 0,0 9.49,10.32 25.53,10.32 0,0 14.39,0 22.73,-9.3 0,0 8.4,-9.23 8.4,-25.14 m -11.71,3.44 c 0,0 -0.13,9.61 -5.42,15.34 0,0 -5.22,5.73 -13.87,5.73 0,0 -9.81,0 -15.73,-5.54 0,0 -5.85,-5.54 -6.74,-15.6 z" /><path
         id="path919"
         style="fill:#000000;fill-opacity:1;fill-rule:evenodd;stroke:none"
         d="m 1783.96,3321.76 c 0,0 -8.53,-14.64 -12.67,-28.96 0,0 -4.13,-14.32 -4.13,-29.03 0,0 0,-14.7 4.13,-29.15 0,0 4.21,-14.39 12.67,-28.97 h -10.18 c 0,0 -9.55,14.96 -14.33,29.41 0,0 -4.71,14.45 -4.71,28.71 0,0 0,14.2 4.71,28.59 0,0 4.71,14.38 14.33,29.4 z" /><path
         id="path921"
         style="fill:#000000;fill-opacity:1;fill-rule:evenodd;stroke:none"
         d="m 1855.51,3265.87 v -43.03 h -11.71 v 42.65 c 0,0 0,10.12 -3.95,15.15 0,0 -3.94,5.03 -11.84,5.03 0,0 -9.48,0 -14.96,-6.05 0,0 -5.47,-6.04 -5.47,-16.48 v -40.3 h -11.78 v 99.05 h 11.78 v -38.83 c 0,0 4.2,6.43 9.87,9.61 0,0 5.72,3.19 13.17,3.19 0,0 12.29,0 18.59,-7.64 0,0 6.3,-7.58 6.3,-22.35 z" /><path
         id="path923"
         style="fill:#000000;fill-opacity:1;fill-rule:evenodd;stroke:none"
         d="m 1895.43,3285.93 c 0,0 -9.43,0 -14.9,-7.39 0,0 -5.48,-7.32 -5.48,-20.11 0,0 0,-12.8 5.42,-20.18 0,0 5.47,-7.32 14.96,-7.32 0,0 9.35,0 14.83,7.38 0,0 5.47,7.38 5.47,20.12 0,0 0,12.66 -5.47,20.05 0,0 -5.48,7.45 -14.83,7.45 m 0,9.93 c 0,0 15.27,0 23.99,-9.93 0,0 8.72,-9.93 8.72,-27.5 0,0 0,-17.51 -8.72,-27.5 0,0 -8.72,-9.93 -23.99,-9.93 0,0 -15.35,0 -24.07,9.93 0,0 -8.65,9.99 -8.65,27.5 0,0 0,17.57 8.65,27.5 0,0 8.72,9.93 24.07,9.93 z" /><path
         id="path925"
         style="fill:#000000;fill-opacity:1;fill-rule:evenodd;stroke:none"
         d="m 1939.22,3250.98 v 43.16 h 11.71 v -42.72 c 0,0 0,-10.12 3.95,-15.21 0,0 3.95,-5.03 11.84,-5.03 0,0 9.49,0 14.96,6.05 0,0 5.54,6.05 5.54,16.49 v 40.42 h 11.71 v -71.3 h -11.71 v 10.95 c 0,0 -4.27,-6.49 -9.93,-9.67 0,0 -5.6,-3.12 -13.05,-3.12 0,0 -12.29,0 -18.65,7.63 0,0 -6.37,7.64 -6.37,22.35 m 29.47,44.88 z" /><path
         id="path927"
         style="fill:#000000;fill-opacity:1;fill-rule:evenodd;stroke:none"
         d="m 2052.53,3283.19 c 0,0 -1.97,1.14 -4.33,1.65 0,0 -2.29,0.58 -5.09,0.58 0,0 -9.93,0 -15.28,-6.5 0,0 -5.28,-6.43 -5.28,-18.52 v -37.56 h -11.78 v 71.3 h 11.78 v -11.08 c 0,0 3.69,6.49 9.61,9.61 0,0 5.92,3.19 14.39,3.19 0,0 1.21,0 2.67,-0.19 0,0 1.46,-0.13 3.25,-0.45 z" /><path
         id="path929"
         style="fill:#000000;fill-opacity:1;fill-rule:evenodd;stroke:none"
         d="m 2110.27,3292.04 v -11.08 c 0,0 -4.97,2.55 -10.31,3.82 0,0 -5.35,1.27 -11.08,1.27 0,0 -8.72,0 -13.11,-2.67 0,0 -4.33,-2.67 -4.33,-8.02 0,0 0,-4.08 3.12,-6.43 0,0 3.12,-2.29 12.54,-4.39 l 4.01,-0.89 c 0,0 12.47,-2.68 17.69,-7.58 0,0 5.29,-4.84 5.29,-13.56 0,0 0,-9.93 -7.9,-15.72 0,0 -7.83,-5.79 -21.58,-5.79 0,0 -5.73,0 -11.96,1.14 0,0 -6.18,1.08 -13.05,3.31 v 12.1 c 0,0 6.49,-3.38 12.79,-5.1 0,0 6.3,-1.65 12.48,-1.65 0,0 8.27,0 12.73,2.8 0,0 4.46,2.86 4.46,8.02 0,0 0,4.78 -3.25,7.32 0,0 -3.18,2.55 -14.07,4.9 l -4.07,0.96 c 0,0 -10.89,2.29 -15.73,7 0,0 -4.83,4.77 -4.83,13.05 0,0 0,10.06 7.13,15.53 0,0 7.13,5.48 20.24,5.48 0,0 6.49,0 12.22,-0.96 0,0 5.73,-0.95 10.57,-2.86 z" /><path
         id="path931"
         style="fill:#000000;fill-opacity:1;fill-rule:evenodd;stroke:none"
         d="m 2124.53,3321.76 h 10.18 c 0,0 9.55,-15.02 14.26,-29.4 0,0 4.78,-14.39 4.78,-28.59 0,0 0,-14.26 -4.78,-28.71 0,0 -4.71,-14.45 -14.26,-29.41 h -10.18 c 0,0 8.46,14.58 12.6,28.97 0,0 4.2,14.45 4.2,29.15 0,0 0,14.71 -4.2,29.03 0,0 -4.14,14.32 -12.6,28.96 z" /><path
         id="path933"
         style="fill:none;stroke:#000000;stroke-width:4;stroke-linecap:butt;stroke-linejoin:miter;stroke-miterlimit:10;stroke-dasharray:none;stroke-opacity:0.0980392"
         d="M 633.51,3595.34 H 2932.76" /><path
         id="path935"
         style="fill:none;stroke:#000000;stroke-width:4;stroke-linecap:butt;stroke-linejoin:miter;stroke-miterlimit:10;stroke-dasharray:none;stroke-opacity:0.0980392"
         d="M 633.51,4021.29 H 2932.76" /><path
         id="path937"
         style="fill:none;stroke:#000000;stroke-width:4;stroke-linecap:butt;stroke-linejoin:miter;stroke-miterlimit:10;stroke-dasharray:none;stroke-opacity:0.0980392"
         d="M 633.51,4447.24 H 2932.76" /><path
         id="path939"
         style="fill:none;stroke:#000000;stroke-width:4;stroke-linecap:butt;stroke-linejoin:miter;stroke-miterlimit:10;stroke-dasharray:none;stroke-opacity:0.0980392"
         d="M 633.51,4873.19 H 2932.76" /><path
         id="path941"
         style="fill:none;stroke:#000000;stroke-width:4;stroke-linecap:butt;stroke-linejoin:miter;stroke-miterlimit:10;stroke-dasharray:none;stroke-opacity:0.0980392"
         d="M 633.51,5299.14 H 2932.76" /><path
         id="path943"
         style="fill:none;stroke:#000000;stroke-width:8;stroke-linecap:butt;stroke-linejoin:miter;stroke-miterlimit:10;stroke-dasharray:none;stroke-opacity:1"
         d="M 633.51,3500.57 V 5692.58" /><path
         id="path945"
         style="fill:none;stroke:#000000;stroke-width:8;stroke-linecap:butt;stroke-linejoin:miter;stroke-miterlimit:10;stroke-dasharray:none;stroke-opacity:1"
         d="M 633.51,3595.34 H 661.1" /><path
         id="path947"
         style="fill:none;stroke:#000000;stroke-width:8;stroke-linecap:butt;stroke-linejoin:miter;stroke-miterlimit:10;stroke-dasharray:none;stroke-opacity:1"
         d="M 633.51,4021.29 H 661.1" /><path
         id="path949"
         style="fill:none;stroke:#000000;stroke-width:8;stroke-linecap:butt;stroke-linejoin:miter;stroke-miterlimit:10;stroke-dasharray:none;stroke-opacity:1"
         d="M 633.51,4447.24 H 661.1" /><path
         id="path951"
         style="fill:none;stroke:#000000;stroke-width:8;stroke-linecap:butt;stroke-linejoin:miter;stroke-miterlimit:10;stroke-dasharray:none;stroke-opacity:1"
         d="M 633.51,4873.19 H 661.1" /><path
         id="path953"
         style="fill:none;stroke:#000000;stroke-width:8;stroke-linecap:butt;stroke-linejoin:miter;stroke-miterlimit:10;stroke-dasharray:none;stroke-opacity:1"
         d="M 633.51,5299.14 H 661.1" /><path
         id="path955"
         style="fill:#000000;fill-opacity:1;fill-rule:evenodd;stroke:none"
         d="m 271.85,3594.44 h 59.35 v -7.87 h -59.35 z" /><path
         id="path957"
         style="fill:#000000;fill-opacity:1;fill-rule:evenodd;stroke:none"
         d="m 338.98,3629.9 h 44.44 v -3.98 l -25.09,-65.14 h -9.77 l 23.61,61.25 h -33.19 z" /><path
         id="path959"
         style="fill:#000000;fill-opacity:1;fill-rule:evenodd;stroke:none"
         d="m 393.65,3629.9 h 36.71 v -7.87 h -28.14 v -16.94 c 0,0 2.03,0.69 4.07,1.01 0,0 2.04,0.37 4.07,0.37 0,0 11.58,0 18.34,-6.34 0,0 6.76,-6.34 6.76,-17.17 0,0 0,-11.16 -6.95,-17.36 0,0 -6.94,-6.16 -19.58,-6.16 0,0 -4.35,0 -8.89,0.74 0,0 -4.49,0.74 -9.31,2.22 v 9.4 c 0,0 4.17,-2.27 8.62,-3.38 0,0 4.44,-1.11 9.39,-1.11 0,0 8.01,0 12.69,4.21 0,0 4.67,4.21 4.67,11.44 0,0 0,7.22 -4.67,11.43 0,0 -4.68,4.21 -12.69,4.21 0,0 -3.75,0 -7.5,-0.83 0,0 -3.7,-0.83 -7.59,-2.59 z" /><path
         id="path961"
         style="fill:#000000;fill-opacity:1;fill-rule:evenodd;stroke:none"
         d="m 465.59,3623.74 c 0,0 -7.22,0 -10.87,-7.13 0,0 -3.62,-7.08 -3.62,-21.34 0,0 0,-14.21 3.62,-21.34 0,0 3.65,-7.08 10.87,-7.08 0,0 7.27,0 10.88,7.08 0,0 3.66,7.13 3.66,21.34 0,0 0,14.26 -3.66,21.34 0,0 -3.61,7.13 -10.88,7.13 m 0,7.41 c 0,0 11.63,0 17.74,-9.21 0,0 6.15,-9.17 6.15,-26.67 0,0 0,-17.45 -6.15,-26.67 0,0 -6.11,-9.16 -17.74,-9.16 0,0 -11.62,0 -17.77,9.16 0,0 -6.11,9.22 -6.11,26.67 0,0 0,17.5 6.11,26.67 0,0 6.15,9.21 17.77,9.21 z" /><path
         id="path963"
         style="fill:#000000;fill-opacity:1;fill-rule:evenodd;stroke:none"
         d="m 519.62,3623.74 c 0,0 -7.22,0 -10.88,-7.13 0,0 -3.61,-7.08 -3.61,-21.34 0,0 0,-14.21 3.61,-21.34 0,0 3.66,-7.08 10.88,-7.08 0,0 7.27,0 10.88,7.08 0,0 3.66,7.13 3.66,21.34 0,0 0,14.26 -3.66,21.34 0,0 -3.61,7.13 -10.88,7.13 m 0,7.41 c 0,0 11.62,0 17.73,-9.21 0,0 6.16,-9.17 6.16,-26.67 0,0 0,-17.45 -6.16,-26.67 0,0 -6.11,-9.16 -17.73,-9.16 0,0 -11.62,0 -17.78,9.16 0,0 -6.11,9.22 -6.11,26.67 0,0 0,17.5 6.11,26.67 0,0 6.16,9.21 17.78,9.21 z" /><path
         id="path965"
         style="fill:#000000;fill-opacity:1;fill-rule:evenodd;stroke:none"
         d="m 270.04,4020.39 h 59.35 v -7.87 h -59.35 z" /><path
         id="path967"
         style="fill:#000000;fill-opacity:1;fill-rule:evenodd;stroke:none"
         d="m 339.62,4055.85 h 36.72 v -7.87 h -28.15 v -16.94 c 0,0 2.04,0.69 4.07,1.01 0,0 2.04,0.38 4.08,0.38 0,0 11.57,0 18.33,-6.35 0,0 6.76,-6.34 6.76,-17.17 0,0 0,-11.16 -6.95,-17.36 0,0 -6.94,-6.16 -19.58,-6.16 0,0 -4.35,0 -8.89,0.74 0,0 -4.49,0.74 -9.3,2.22 v 9.4 c 0,0 4.16,-2.27 8.61,-3.38 0,0 4.44,-1.11 9.4,-1.11 0,0 8.01,0 12.68,4.21 0,0 4.68,4.21 4.68,11.44 0,0 0,7.22 -4.68,11.43 0,0 -4.67,4.21 -12.68,4.21 0,0 -3.75,0 -7.5,-0.83 0,0 -3.71,-0.83 -7.6,-2.59 z" /><path
         id="path969"
         style="fill:#000000;fill-opacity:1;fill-rule:evenodd;stroke:none"
         d="m 411.57,4049.69 c 0,0 -7.22,0 -10.88,-7.13 0,0 -3.61,-7.08 -3.61,-21.34 0,0 0,-14.21 3.61,-21.34 0,0 3.66,-7.08 10.88,-7.08 0,0 7.27,0 10.88,7.08 0,0 3.65,7.13 3.65,21.34 0,0 0,14.26 -3.65,21.34 0,0 -3.61,7.13 -10.88,7.13 m 0,7.41 c 0,0 11.62,0 17.73,-9.21 0,0 6.16,-9.17 6.16,-26.67 0,0 0,-17.45 -6.16,-26.66 0,0 -6.11,-9.17 -17.73,-9.17 0,0 -11.62,0 -17.78,9.17 0,0 -6.11,9.21 -6.11,26.66 0,0 0,17.5 6.11,26.67 0,0 6.16,9.21 17.78,9.21 z" /><path
         id="path971"
         style="fill:#000000;fill-opacity:1;fill-rule:evenodd;stroke:none"
         d="m 465.59,4049.69 c 0,0 -7.22,0 -10.87,-7.13 0,0 -3.62,-7.08 -3.62,-21.34 0,0 0,-14.21 3.62,-21.34 0,0 3.65,-7.08 10.87,-7.08 0,0 7.27,0 10.88,7.08 0,0 3.66,7.13 3.66,21.34 0,0 0,14.26 -3.66,21.34 0,0 -3.61,7.13 -10.88,7.13 m 0,7.41 c 0,0 11.63,0 17.74,-9.21 0,0 6.15,-9.17 6.15,-26.67 0,0 0,-17.45 -6.15,-26.66 0,0 -6.11,-9.17 -17.74,-9.17 0,0 -11.62,0 -17.77,9.17 0,0 -6.11,9.21 -6.11,26.66 0,0 0,17.5 6.11,26.67 0,0 6.15,9.21 17.77,9.21 z" /><path
         id="path973"
         style="fill:#000000;fill-opacity:1;fill-rule:evenodd;stroke:none"
         d="m 519.62,4049.69 c 0,0 -7.22,0 -10.88,-7.13 0,0 -3.61,-7.08 -3.61,-21.34 0,0 0,-14.21 3.61,-21.34 0,0 3.66,-7.08 10.88,-7.08 0,0 7.27,0 10.88,7.08 0,0 3.66,7.13 3.66,21.34 0,0 0,14.26 -3.66,21.34 0,0 -3.61,7.13 -10.88,7.13 m 0,7.41 c 0,0 11.62,0 17.73,-9.21 0,0 6.16,-9.17 6.16,-26.67 0,0 0,-17.45 -6.16,-26.66 0,0 -6.11,-9.17 -17.73,-9.17 0,0 -11.62,0 -17.78,9.17 0,0 -6.11,9.21 -6.11,26.66 0,0 0,17.5 6.11,26.67 0,0 6.16,9.21 17.78,9.21 z" /><path
         id="path975"
         style="fill:#000000;fill-opacity:1;fill-rule:evenodd;stroke:none"
         d="m 273.23,4446.34 h 59.36 v -7.87 h -59.36 z" /><path
         id="path977"
         style="fill:#000000;fill-opacity:1;fill-rule:evenodd;stroke:none"
         d="m 350.78,4420.55 h 32.64 v -7.87 h -43.89 v 7.87 c 0,0 5.32,5.51 14.49,14.77 0,0 9.21,9.31 11.58,11.99 0,0 4.49,5.05 6.25,8.52 0,0 1.8,3.52 1.8,6.9 0,0 0,5.51 -3.89,8.98 0,0 -3.84,3.47 -10.04,3.47 0,0 -4.4,0 -9.31,-1.53 0,0 -4.86,-1.52 -10.42,-4.63 v 9.45 c 0,0 5.65,2.27 10.56,3.42 0,0 4.91,1.16 8.98,1.16 0,0 10.74,0 17.13,-5.37 0,0 6.39,-5.37 6.39,-14.35 0,0 0,-4.26 -1.62,-8.1 0,0 -1.58,-3.8 -5.79,-8.98 0,0 -1.16,-1.35 -7.36,-7.78 0,0 -6.2,-6.39 -17.5,-17.92 z" /><path
         id="path979"
         style="fill:#000000;fill-opacity:1;fill-rule:evenodd;stroke:none"
         d="m 393.65,4481.8 h 36.71 v -7.87 h -28.14 v -16.94 c 0,0 2.03,0.69 4.07,1.02 0,0 2.04,0.37 4.07,0.37 0,0 11.58,0 18.34,-6.35 0,0 6.76,-6.34 6.76,-17.17 0,0 0,-11.16 -6.95,-17.36 0,0 -6.94,-6.16 -19.58,-6.16 0,0 -4.35,0 -8.89,0.74 0,0 -4.49,0.74 -9.31,2.22 v 9.4 c 0,0 4.17,-2.27 8.62,-3.38 0,0 4.44,-1.11 9.39,-1.11 0,0 8.01,0 12.69,4.21 0,0 4.67,4.22 4.67,11.44 0,0 0,7.22 -4.67,11.43 0,0 -4.68,4.22 -12.69,4.22 0,0 -3.75,0 -7.5,-0.84 0,0 -3.7,-0.83 -7.59,-2.59 z" /><path
         id="path981"
         style="fill:#000000;fill-opacity:1;fill-rule:evenodd;stroke:none"
         d="m 465.59,4475.64 c 0,0 -7.22,0 -10.87,-7.13 0,0 -3.62,-7.08 -3.62,-21.34 0,0 0,-14.21 3.62,-21.34 0,0 3.65,-7.08 10.87,-7.08 0,0 7.27,0 10.88,7.08 0,0 3.66,7.13 3.66,21.34 0,0 0,14.26 -3.66,21.34 0,0 -3.61,7.13 -10.88,7.13 m 0,7.41 c 0,0 11.63,0 17.74,-9.21 0,0 6.15,-9.17 6.15,-26.67 0,0 0,-17.45 -6.15,-26.66 0,0 -6.11,-9.17 -17.74,-9.17 0,0 -11.62,0 -17.77,9.17 0,0 -6.11,9.21 -6.11,26.66 0,0 0,17.5 6.11,26.67 0,0 6.15,9.21 17.77,9.21 z" /><path
         id="path983"
         style="fill:#000000;fill-opacity:1;fill-rule:evenodd;stroke:none"
         d="m 519.62,4475.64 c 0,0 -7.22,0 -10.88,-7.13 0,0 -3.61,-7.08 -3.61,-21.34 0,0 0,-14.21 3.61,-21.34 0,0 3.66,-7.08 10.88,-7.08 0,0 7.27,0 10.88,7.08 0,0 3.66,7.13 3.66,21.34 0,0 0,14.26 -3.66,21.34 0,0 -3.61,7.13 -10.88,7.13 m 0,7.41 c 0,0 11.62,0 17.73,-9.21 0,0 6.16,-9.17 6.16,-26.67 0,0 0,-17.45 -6.16,-26.66 0,0 -6.11,-9.17 -17.73,-9.17 0,0 -11.62,0 -17.78,9.17 0,0 -6.11,9.21 -6.11,26.66 0,0 0,17.5 6.11,26.67 0,0 6.16,9.21 17.78,9.21 z" /><path
         id="path985"
         style="fill:#000000;fill-opacity:1;fill-rule:evenodd;stroke:none"
         d="m 519.62,4901.6 c 0,0 -7.22,0 -10.88,-7.13 0,0 -3.61,-7.09 -3.61,-21.35 0,0 0,-14.21 3.61,-21.34 0,0 3.66,-7.08 10.88,-7.08 0,0 7.27,0 10.88,7.08 0,0 3.66,7.13 3.66,21.34 0,0 0,14.26 -3.66,21.35 0,0 -3.61,7.13 -10.88,7.13 m 0,7.4 c 0,0 11.62,0 17.73,-9.21 0,0 6.16,-9.17 6.16,-26.67 0,0 0,-17.45 -6.16,-26.66 0,0 -6.11,-9.17 -17.73,-9.17 0,0 -11.62,0 -17.78,9.17 0,0 -6.11,9.21 -6.11,26.66 0,0 0,17.5 6.11,26.67 0,0 6.16,9.21 17.78,9.21 z" /><path
         id="path987"
         style="fill:#000000;fill-opacity:1;fill-rule:evenodd;stroke:none"
         d="m 350.78,5272.45 h 32.64 v -7.87 h -43.89 v 7.87 c 0,0 5.32,5.51 14.49,14.77 0,0 9.21,9.31 11.58,11.99 0,0 4.49,5.05 6.25,8.52 0,0 1.8,3.52 1.8,6.9 0,0 0,5.51 -3.89,8.98 0,0 -3.84,3.47 -10.04,3.47 0,0 -4.4,0 -9.31,-1.52 0,0 -4.86,-1.53 -10.42,-4.63 v 9.44 c 0,0 5.65,2.27 10.56,3.43 0,0 4.91,1.15 8.98,1.15 0,0 10.74,0 17.13,-5.37 0,0 6.39,-5.37 6.39,-14.35 0,0 0,-4.26 -1.62,-8.1 0,0 -1.58,-3.8 -5.79,-8.98 0,0 -1.16,-1.34 -7.36,-7.78 0,0 -6.2,-6.39 -17.5,-17.92 z" /><path
         id="path989"
         style="fill:#000000;fill-opacity:1;fill-rule:evenodd;stroke:none"
         d="m 393.65,5333.7 h 36.71 v -7.87 h -28.14 v -16.94 c 0,0 2.03,0.69 4.07,1.02 0,0 2.04,0.37 4.07,0.37 0,0 11.58,0 18.34,-6.35 0,0 6.76,-6.34 6.76,-17.17 0,0 0,-11.16 -6.95,-17.36 0,0 -6.94,-6.16 -19.58,-6.16 0,0 -4.35,0 -8.89,0.74 0,0 -4.49,0.74 -9.31,2.22 v 9.4 c 0,0 4.17,-2.27 8.62,-3.38 0,0 4.44,-1.11 9.39,-1.11 0,0 8.01,0 12.69,4.21 0,0 4.67,4.22 4.67,11.44 0,0 0,7.22 -4.67,11.43 0,0 -4.68,4.22 -12.69,4.22 0,0 -3.75,0 -7.5,-0.84 0,0 -3.7,-0.83 -7.59,-2.59 z" /><path
         id="path991"
         style="fill:#000000;fill-opacity:1;fill-rule:evenodd;stroke:none"
         d="m 465.59,5327.55 c 0,0 -7.22,0 -10.87,-7.13 0,0 -3.62,-7.09 -3.62,-21.35 0,0 0,-14.21 3.62,-21.34 0,0 3.65,-7.08 10.87,-7.08 0,0 7.27,0 10.88,7.08 0,0 3.66,7.13 3.66,21.34 0,0 0,14.26 -3.66,21.35 0,0 -3.61,7.13 -10.88,7.13 m 0,7.4 c 0,0 11.63,0 17.74,-9.21 0,0 6.15,-9.17 6.15,-26.67 0,0 0,-17.45 -6.15,-26.66 0,0 -6.11,-9.17 -17.74,-9.17 0,0 -11.62,0 -17.77,9.17 0,0 -6.11,9.21 -6.11,26.66 0,0 0,17.5 6.11,26.67 0,0 6.15,9.21 17.77,9.21 z" /><path
         id="path993"
         style="fill:#000000;fill-opacity:1;fill-rule:evenodd;stroke:none"
         d="m 519.62,5327.55 c 0,0 -7.22,0 -10.88,-7.13 0,0 -3.61,-7.09 -3.61,-21.35 0,0 0,-14.21 3.61,-21.34 0,0 3.66,-7.08 10.88,-7.08 0,0 7.27,0 10.88,7.08 0,0 3.66,7.13 3.66,21.34 0,0 0,14.26 -3.66,21.35 0,0 -3.61,7.13 -10.88,7.13 m 0,7.4 c 0,0 11.62,0 17.73,-9.21 0,0 6.16,-9.17 6.16,-26.67 0,0 0,-17.45 -6.16,-26.66 0,0 -6.11,-9.17 -17.73,-9.17 0,0 -11.62,0 -17.78,9.17 0,0 -6.11,9.21 -6.11,26.66 0,0 0,17.5 6.11,26.67 0,0 6.16,9.21 17.78,9.21 z" /><path
         id="path995"
         style="fill:#000000;fill-opacity:1;fill-rule:evenodd;stroke:none"
         d="m 197.97,4435.46 h -25.53 v -21.01 h -10.56 v 33.74 h 40.8 c 0,0 5.28,-7.45 8.02,-16.43 0,0 2.67,-8.97 2.67,-19.16 0,0 0,-22.28 -12.98,-34.88 0,0 -13.05,-12.54 -36.29,-12.54 0,0 -23.29,0 -36.28,12.54 0,0 -13.05,12.6 -13.05,34.88 0,0 0,9.3 2.29,17.64 0,0 2.29,8.4 6.75,15.47 h 13.69 c 0,0 -6.05,-7.13 -9.11,-15.15 0,0 -3.05,-8.03 -3.05,-16.87 0,0 0,-17.45 9.74,-26.23 0,0 9.74,-8.72 29.02,-8.72 0,0 19.23,0 28.97,8.72 0,0 9.74,8.78 9.74,26.23 0,0 0,6.81 -1.15,12.15 0,0 -1.21,5.35 -3.69,9.62 z" /><path
         id="path997"
         style="fill:#000000;fill-opacity:1;fill-rule:evenodd;stroke:none"
         d="m 175.69,4492.88 c 0,0 0,-14.2 3.25,-19.67 0,0 3.24,-5.48 11.07,-5.48 0,0 6.24,0 9.93,4.07 0,0 3.63,4.14 3.63,11.21 0,0 0,9.74 -6.87,15.59 0,0 -6.94,5.92 -18.4,5.92 h -2.61 v -11.64 m -4.84,23.36 h 40.68 v -11.72 h -10.82 c 0,0 6.49,-4.01 9.61,-9.99 0,0 3.05,-5.98 3.05,-14.64 0,0 0,-10.95 -6.11,-17.44 0,0 -6.17,-6.43 -16.48,-6.43 0,0 -12.04,0 -18.15,8.02 0,0 -6.11,8.08 -6.11,24.06 v 16.42 h -1.14 c 0,0 -8.09,0 -12.48,-5.34 0,0 -4.46,-5.29 -4.46,-14.9 0,0 0,-6.11 1.47,-11.9 0,0 1.46,-5.79 4.39,-11.14 h -10.82 c 0,0 -2.48,6.43 -3.69,12.47 0,0 -1.28,6.05 -1.28,11.78 0,0 0,15.47 8.02,23.11 0,0 8.03,7.64 24.32,7.64 z" /><path
         id="path999"
         style="fill:#000000;fill-opacity:1;fill-rule:evenodd;stroke:none"
         d="m 140.23,4528.52 v 11.72 h 71.3 v -11.72 h -71.3 m -27.75,0 v 11.72 h 14.83 v -11.72 z" /><path
         id="path1001"
         style="fill:#000000;fill-opacity:1;fill-rule:evenodd;stroke:none"
         d="m 168.5,4611.79 h 43.03 v -11.72 h -42.65 c 0,0 -10.12,0 -15.15,-3.94 0,0 -5.03,-3.95 -5.03,-11.84 0,0 0,-9.49 6.05,-14.96 0,0 6.04,-5.48 16.48,-5.48 h 40.3 v -11.77 h -71.3 v 11.77 h 11.08 c 0,0 -6.43,4.2 -9.61,9.87 0,0 -3.19,5.73 -3.19,13.18 0,0 0,12.28 7.64,18.58 0,0 7.58,6.31 22.35,6.31 z" /><path
         id="path1003"
         style="fill:#000000;fill-opacity:1;fill-rule:evenodd;stroke:none"
         d="m 112.61,4693.65 c 0,0 14.64,-8.53 28.96,-12.67 0,0 14.32,-4.14 29.03,-4.14 0,0 14.7,0 29.15,4.14 0,0 14.39,4.2 28.97,12.67 v -10.19 c 0,0 -14.96,-9.54 -29.41,-14.32 0,0 -14.45,-4.71 -28.71,-4.71 0,0 -14.2,0 -28.59,4.71 0,0 -14.38,4.71 -29.4,14.32 z" /><path
         id="path1005"
         style="fill:#000000;fill-opacity:1;fill-rule:evenodd;stroke:none"
         d="m 200.2,4788.31 h 11.33 v -38.2 H 200.2 c 0,0 -6.18,11.27 -16.74,17.57 0,0 -10.57,6.31 -23.43,6.31 0,0 -15.28,0 -24.51,-8.41 0,0 -9.23,-8.4 -9.23,-22.15 0,0 0,-13.75 9.3,-22.22 0,0 9.23,-8.4 24.44,-8.4 0,0 12.86,0 23.43,6.3 0,0 10.56,6.37 16.74,17.7 h 11.33 v -38.19 H 200.2 v 20.3 c 0,0 -8.85,-10.06 -18.34,-14.7 0,0 -9.48,-4.59 -21.19,-4.59 0,0 -20.25,0 -32.79,12.23 0,0 -12.54,12.15 -12.54,31.57 0,0 0,19.29 12.54,31.57 0,0 12.48,12.23 32.15,12.23 0,0 12.35,0 21.77,-4.52 0,0 9.42,-4.52 18.4,-14.77 z" /><path
         id="path1007"
         style="fill:#000000;fill-opacity:1;fill-rule:evenodd;stroke:none"
         d="m 112.61,4798.75 v 10.18 c 0,0 15.02,9.55 29.4,14.26 0,0 14.39,4.78 28.59,4.78 0,0 14.26,0 28.71,-4.78 0,0 14.45,-4.71 29.41,-14.26 v -10.18 c 0,0 -14.58,8.46 -28.97,12.6 0,0 -14.45,4.2 -29.15,4.2 0,0 -14.71,0 -29.03,-4.2 0,0 -14.32,-4.14 -28.96,-12.6 z" /><path
         id="path1009"
         style="fill:#000000;fill-opacity:1;fill-rule:evenodd;stroke:none"
         d="m 989.28,5975.81 h 102.32 v -13.78 h -42.94 v -107.18 h -16.44 v 107.18 h -42.94 z" /><path
         id="path1011"
         style="fill:#000000;fill-opacity:1;fill-rule:evenodd;stroke:none"
         d="m 1135.43,5931.65 c 0,0 -2.51,1.46 -5.5,2.11 0,0 -2.92,0.73 -6.49,0.73 0,0 -12.63,0 -19.44,-8.27 0,0 -6.72,-8.18 -6.72,-23.57 v -47.8 h -14.99 v 90.74 h 14.99 v -14.1 c 0,0 4.69,8.26 12.23,12.23 0,0 7.53,4.06 18.31,4.06 0,0 1.54,0 3.4,-0.25 0,0 1.87,-0.16 4.13,-0.56 z" /><path
         id="path1013"
         style="fill:#000000;fill-opacity:1;fill-rule:evenodd;stroke:none"
         d="m 1192.31,5900.46 c 0,0 -18.07,0 -25.03,-4.13 0,0 -6.97,-4.13 -6.97,-14.1 0,0 0,-7.94 5.18,-12.64 0,0 5.27,-4.61 14.26,-4.61 0,0 12.4,0 19.85,8.75 0,0 7.54,8.83 7.54,23.41 v 3.32 h -14.83 m 29.73,6.16 v -51.77 h -14.9 v 13.77 c 0,0 -5.11,-8.26 -12.72,-12.23 0,0 -7.62,-3.89 -18.64,-3.89 0,0 -13.93,0 -22.2,7.78 0,0 -8.18,7.85 -8.18,20.98 0,0 0,15.31 10.21,23.09 0,0 10.29,7.78 30.62,7.78 h 20.91 v 1.46 c 0,0 0,10.29 -6.81,15.88 0,0 -6.72,5.67 -18.96,5.67 0,0 -7.78,0 -15.15,-1.87 0,0 -7.37,-1.86 -14.18,-5.59 v 13.78 c 0,0 8.19,3.16 15.88,4.7 0,0 7.7,1.62 14.99,1.62 0,0 19.69,0 29.41,-10.21 0,0 9.72,-10.21 9.72,-30.95 z" /><path
         id="path1015"
         style="fill:#000000;fill-opacity:1;fill-rule:evenodd;stroke:none"
         d="m 1313.11,5909.62 v -54.77 h -14.91 v 54.28 c 0,0 0,12.88 -5.02,19.28 0,0 -5.03,6.4 -15.07,6.4 0,0 -12.07,0 -19.04,-7.69 0,0 -6.97,-7.7 -6.97,-20.99 v -51.28 h -14.99 v 90.74 h 14.99 v -14.1 c 0,0 5.35,8.18 12.56,12.23 0,0 7.29,4.06 16.77,4.06 0,0 15.64,0 23.66,-9.73 0,0 8.02,-9.64 8.02,-28.43 z" /><path
         id="path1017"
         style="fill:#000000;fill-opacity:1;fill-rule:evenodd;stroke:none"
         d="m 1386.59,5942.91 v -14.09 c 0,0 -6.32,3.24 -13.12,4.86 0,0 -6.81,1.62 -14.1,1.62 0,0 -11.1,0 -16.69,-3.4 0,0 -5.51,-3.41 -5.51,-10.21 0,0 0,-5.19 3.97,-8.18 0,0 3.97,-2.92 15.96,-5.6 l 5.1,-1.13 c 0,0 15.88,-3.4 22.53,-9.64 0,0 6.72,-6.16 6.72,-17.26 0,0 0,-12.64 -10.04,-20.01 0,0 -9.97,-7.37 -27.47,-7.37 0,0 -7.29,0 -15.23,1.46 0,0 -7.86,1.37 -16.61,4.21 v 15.39 c 0,0 8.26,-4.29 16.29,-6.48 0,0 8.02,-2.1 15.87,-2.1 0,0 10.54,0 16.21,3.56 0,0 5.67,3.65 5.67,10.21 0,0 0,6.07 -4.13,9.32 0,0 -4.05,3.24 -17.91,6.23 l -5.18,1.22 c 0,0 -13.86,2.92 -20.01,8.91 0,0 -6.16,6.08 -6.16,16.61 0,0 0,12.8 9.07,19.77 0,0 9.08,6.97 25.77,6.97 0,0 8.26,0 15.55,-1.22 0,0 7.29,-1.21 13.45,-3.65 z" /><path
         id="path1019"
         style="fill:#000000;fill-opacity:1;fill-rule:evenodd;stroke:none"
         d="m 1453.03,5980.91 v -12.39 h -14.26 c 0,0 -8.02,0 -11.18,-3.24 0,0 -3.08,-3.25 -3.08,-11.67 v -8.02 h 24.55 V 5934 h -24.55 v -79.15 h -14.99 V 5934 h -14.26 v 11.59 h 14.26 v 6.32 c 0,0 0,15.15 7.05,22.03 0,0 7.05,6.97 22.36,6.97 z" /><path
         id="path1021"
         style="fill:#000000;fill-opacity:1;fill-rule:evenodd;stroke:none"
         d="m 1503.82,5935.14 c 0,0 -11.99,0 -18.95,-9.4 0,0 -6.97,-9.32 -6.97,-25.6 0,0 0,-16.29 6.88,-25.69 0,0 6.97,-9.31 19.04,-9.31 0,0 11.91,0 18.88,9.4 0,0 6.97,9.39 6.97,25.6 0,0 0,16.12 -6.97,25.52 0,0 -6.97,9.48 -18.88,9.48 m 0,12.64 c 0,0 19.45,0 30.55,-12.64 0,0 11.1,-12.64 11.1,-35 0,0 0,-22.28 -11.1,-35 0,0 -11.1,-12.64 -30.55,-12.64 0,0 -19.52,0 -30.62,12.64 0,0 -11.02,12.72 -11.02,35 0,0 0,22.36 11.02,35 0,0 11.1,12.64 30.62,12.64 z" /><path
         id="path1023"
         style="fill:#000000;fill-opacity:1;fill-rule:evenodd;stroke:none"
         d="m 1613.68,5931.65 c 0,0 -2.51,1.46 -5.5,2.11 0,0 -2.92,0.73 -6.49,0.73 0,0 -12.63,0 -19.44,-8.27 0,0 -6.72,-8.18 -6.72,-23.57 v -47.8 h -14.99 v 90.74 h 14.99 v -14.1 c 0,0 4.69,8.26 12.23,12.23 0,0 7.53,4.06 18.31,4.06 0,0 1.54,0 3.4,-0.25 0,0 1.87,-0.16 4.13,-0.56 z" /><path
         id="path1025"
         style="fill:#000000;fill-opacity:1;fill-rule:evenodd;stroke:none"
         d="m 1697.05,5928.17 c 0,0 5.59,10.05 13.37,14.83 0,0 7.78,4.78 18.31,4.78 0,0 14.18,0 21.88,-9.97 0,0 7.69,-9.88 7.69,-28.19 v -54.77 h -14.99 v 54.28 c 0,0 0,13.04 -4.61,19.36 0,0 -4.62,6.32 -14.1,6.32 0,0 -11.59,0 -18.31,-7.69 0,0 -6.73,-7.7 -6.73,-20.99 v -51.28 h -14.98 v 54.28 c 0,0 0,13.13 -4.62,19.36 0,0 -4.62,6.32 -14.26,6.32 0,0 -11.43,0 -18.15,-7.77 0,0 -6.72,-7.7 -6.72,-20.91 v -51.28 h -14.99 v 90.74 h 14.99 v -14.1 c 0,0 5.1,8.35 12.23,12.32 0,0 7.13,3.97 16.93,3.97 0,0 9.89,0 16.77,-5.03 0,0 6.97,-5.02 10.29,-14.58 z" /><path
         id="path1027"
         style="fill:#000000;fill-opacity:1;fill-rule:evenodd;stroke:none"
         d="m 1851.55,5903.94 v -7.29 h -68.54 c 0,0 0.97,-15.39 9.24,-23.49 0,0 8.34,-8.02 23.17,-8.02 0,0 8.59,0 16.61,2.1 0,0 8.1,2.11 16.04,6.32 v -14.09 c 0,0 -8.02,-3.41 -16.45,-5.19 0,0 -8.42,-1.78 -17.09,-1.78 0,0 -21.71,0 -34.43,12.64 0,0 -12.64,12.64 -12.64,34.19 0,0 0,22.28 11.99,35.32 0,0 12.07,13.13 32.49,13.13 0,0 18.31,0 28.92,-11.83 0,0 10.69,-11.75 10.69,-32.01 m -14.9,4.38 c 0,0 -0.17,12.23 -6.89,19.53 0,0 -6.64,7.29 -17.66,7.29 0,0 -12.48,0 -20.01,-7.05 0,0 -7.46,-7.05 -8.59,-19.85 z" /><path
         id="path1029"
         style="fill:#000000;fill-opacity:1;fill-rule:evenodd;stroke:none"
         d="m 1926.9,5931.82 v 49.09 h 14.91 v -126.06 h -14.91 v 13.61 c 0,0 -4.7,-8.1 -11.91,-12.07 0,0 -7.13,-3.89 -17.17,-3.89 0,0 -16.45,0 -26.82,13.12 0,0 -10.29,13.13 -10.29,34.52 0,0 0,21.39 10.29,34.51 0,0 10.37,13.13 26.82,13.13 0,0 10.04,0 17.17,-3.97 0,0 7.21,-3.89 11.91,-11.99 m -50.8,-31.68 c 0,0 0,-16.45 6.73,-25.85 0,0 6.8,-9.31 18.63,-9.31 0,0 11.83,0 18.64,9.31 0,0 6.8,9.4 6.8,25.85 0,0 0,16.44 -6.8,25.76 0,0 -6.81,9.4 -18.64,9.4 0,0 -11.83,0 -18.63,-9.4 0,0 -6.73,-9.32 -6.73,-25.76 z" /><path
         id="path1031"
         style="fill:#000000;fill-opacity:1;fill-rule:evenodd;stroke:none"
         d="m 2083.35,5971.84 v -15.96 c 0,0 -9.32,4.45 -17.58,6.64 0,0 -8.27,2.19 -15.96,2.19 0,0 -13.37,0 -20.66,-5.19 0,0 -7.22,-5.18 -7.22,-14.74 0,0 0,-8.02 4.78,-12.15 0,0 4.87,-4.06 18.32,-6.57 l 9.88,-2.02 c 0,0 18.31,-3.49 26.98,-12.32 0,0 8.75,-8.75 8.75,-23.49 0,0 0,-17.58 -11.83,-26.66 0,0 -11.75,-9.07 -34.51,-9.07 0,0 -8.59,0 -18.31,1.94 0,0 -9.65,1.95 -20.02,5.76 v 16.85 c 0,0 9.97,-5.59 19.53,-8.43 0,0 9.56,-2.83 18.8,-2.83 0,0 14.01,0 21.63,5.5 0,0 7.61,5.51 7.61,15.72 0,0 0,8.91 -5.51,13.94 0,0 -5.42,5.02 -17.9,7.53 l -9.97,1.95 c 0,0 -18.31,3.64 -26.49,11.42 0,0 -8.18,7.78 -8.18,21.63 0,0 0,16.04 11.26,25.28 0,0 11.34,9.24 31.19,9.24 0,0 8.51,0 17.34,-1.54 0,0 8.83,-1.54 18.07,-4.62 z" /><path
         id="path1033"
         style="fill:#000000;fill-opacity:1;fill-rule:evenodd;stroke:none"
         d="m 2120.7,5868.46 v -48.13 h -14.99 v 125.26 h 14.99 v -13.77 c 0,0 4.69,8.1 11.82,11.99 0,0 7.22,3.97 17.18,3.97 0,0 16.53,0 26.82,-13.13 0,0 10.37,-13.12 10.37,-34.51 0,0 0,-21.39 -10.37,-34.52 0,0 -10.29,-13.12 -26.82,-13.12 0,0 -9.96,0 -17.18,3.89 0,0 -7.13,3.97 -11.82,12.07 m 50.71,31.68 c 0,0 0,16.44 -6.8,25.76 0,0 -6.73,9.4 -18.56,9.4 0,0 -11.82,0 -18.63,-9.4 0,0 -6.72,-9.32 -6.72,-25.76 0,0 0,-16.45 6.72,-25.85 0,0 6.81,-9.31 18.63,-9.31 0,0 11.83,0 18.56,9.31 0,0 6.8,9.4 6.8,25.85 z" /><path
         id="path1035"
         style="fill:#000000;fill-opacity:1;fill-rule:evenodd;stroke:none"
         d="m 2280.14,5903.94 v -7.29 h -68.54 c 0,0 0.97,-15.39 9.23,-23.49 0,0 8.35,-8.02 23.18,-8.02 0,0 8.58,0 16.6,2.1 0,0 8.11,2.11 16.05,6.32 v -14.09 c 0,0 -8.03,-3.41 -16.45,-5.19 0,0 -8.43,-1.78 -17.1,-1.78 0,0 -21.71,0 -34.43,12.64 0,0 -12.64,12.64 -12.64,34.19 0,0 0,22.28 11.99,35.32 0,0 12.08,13.13 32.49,13.13 0,0 18.31,0 28.93,-11.83 0,0 10.69,-11.75 10.69,-32.01 m -14.91,4.38 c 0,0 -0.16,12.23 -6.88,19.53 0,0 -6.65,7.29 -17.67,7.29 0,0 -12.47,0 -20.01,-7.05 0,0 -7.45,-7.05 -8.59,-19.85 z" /><path
         id="path1037"
         style="fill:#000000;fill-opacity:1;fill-rule:evenodd;stroke:none"
         d="m 2361.08,5942.1 v -13.93 c 0,0 -6.32,3.48 -12.72,5.18 0,0 -6.32,1.79 -12.8,1.79 0,0 -14.51,0 -22.53,-9.24 0,0 -8.02,-9.15 -8.02,-25.76 0,0 0,-16.61 8.02,-25.85 0,0 8.02,-9.15 22.53,-9.15 0,0 6.48,0 12.8,1.7 0,0 6.4,1.78 12.72,5.26 v -13.77 c 0,0 -6.24,-2.91 -12.97,-4.37 0,0 -6.64,-1.46 -14.17,-1.46 0,0 -20.5,0 -32.57,12.88 0,0 -12.08,12.88 -12.08,34.76 0,0 0,22.2 12.16,34.92 0,0 12.23,12.72 33.46,12.72 0,0 6.88,0 13.45,-1.46 0,0 6.56,-1.38 12.72,-4.22 z" /><path
         id="path1039"
         style="fill:#000000;fill-opacity:1;fill-rule:evenodd;stroke:none"
         d="m 2391.46,5971.35 v -25.76 h 30.7 V 5934 h -30.7 v -49.26 c 0,0 0,-11.1 3,-14.26 0,0 3.07,-3.16 12.39,-3.16 h 15.31 v -12.47 h -15.31 c 0,0 -17.26,0 -23.82,6.4 0,0 -6.56,6.48 -6.56,23.49 V 5934 h -10.94 v 11.59 h 10.94 v 25.76 z" /><path
         id="path1041"
         style="fill:#000000;fill-opacity:1;fill-rule:evenodd;stroke:none"
         d="m 2490.38,5931.65 c 0,0 -2.51,1.46 -5.51,2.11 0,0 -2.91,0.73 -6.48,0.73 0,0 -12.64,0 -19.44,-8.27 0,0 -6.73,-8.18 -6.73,-23.57 v -47.8 h -14.99 v 90.74 h 14.99 v -14.1 c 0,0 4.7,8.26 12.24,12.23 0,0 7.53,4.06 18.31,4.06 0,0 1.54,0 3.4,-0.25 0,0 1.86,-0.16 4.13,-0.56 z" /><path
         id="path1043"
         style="fill:#000000;fill-opacity:1;fill-rule:evenodd;stroke:none"
         d="m 2547.26,5900.46 c 0,0 -18.07,0 -25.04,-4.13 0,0 -6.97,-4.13 -6.97,-14.1 0,0 0,-7.94 5.19,-12.64 0,0 5.27,-4.61 14.26,-4.61 0,0 12.39,0 19.85,8.75 0,0 7.53,8.83 7.53,23.41 v 3.32 h -14.82 m 29.73,6.16 v -51.77 h -14.91 v 13.77 c 0,0 -5.1,-8.26 -12.72,-12.23 0,0 -7.61,-3.89 -18.63,-3.89 0,0 -13.94,0 -22.2,7.78 0,0 -8.18,7.85 -8.18,20.98 0,0 0,15.31 10.2,23.09 0,0 10.29,7.78 30.63,7.78 h 20.9 v 1.46 c 0,0 0,10.29 -6.8,15.88 0,0 -6.73,5.67 -18.96,5.67 0,0 -7.78,0 -15.15,-1.87 0,0 -7.37,-1.86 -14.18,-5.59 v 13.78 c 0,0 8.18,3.16 15.88,4.7 0,0 7.7,1.62 14.99,1.62 0,0 19.69,0 29.41,-10.21 0,0 9.72,-10.21 9.72,-30.95 z" /><path
         id="path1045"
         style="fill:none;stroke:#009afa;stroke-width:8;stroke-linecap:butt;stroke-linejoin:miter;stroke-miterlimit:10;stroke-dasharray:none;stroke-opacity:1"
         d="m 698.58,5419.81 v -0.01 -1.1 0.36 -0.78 l 11.3,-1.06 v 0.91 0.43 -0.27 1.13 -0.46 -0.57 l 11.3,-1.95 v 2.04 -1.9 1.93 -1.56 -0.01 -0.6 0.52 l 11.3,0.08 v -1.49 1.45 -1.54 -0.17 1.43 -0.17 0.25 l 11.29,-1.48 v -0.5 -0.16 -1.03 1.76 -1.84 0.76 -0.21 l 11.3,1.42 v -1.42 -1.06 0.01 1.19 -0.1 -1.15 l 11.3,0.26 v -0.04 -0.16 0.18 -0.35 -0.19 0.89 -2.69 l 11.3,1.17 v 1.1 -2.14 2.68 -2.33 0.8 0.63 -2.74 l 11.29,1.11 v -0.45 0.47 -0.43 -0.52 -0.16 0.07 l 11.3,-0.03 v 0.14 -0.52 -0.64 0.63 0.18 -1.06 -0.52 l 11.3,2.31 v -1.97 1.41 -2.43 -0.02 0.78 1.8 -1.56 l 11.3,-0.31 v -0.75 1.04 -1.18 -0.49 2.83 -3.52 0.74 l 11.29,-1.01 v 2.26 -0.55 -1.26 0.49 -1.42 -0.67 l 11.3,-1.46 v 0.09 1.41 -0.41 1.84 -0.11 -1.34 -0.19 h 11.3 v -0.39 0.5 -2.12 -15.99 1.37 -4.43 4.27 l 11.3,-2.8 v 1.11 0.52 -3.08 2.31 -1.07 -0.63 l 11.29,-0.3 v -1.93 -3.33 -3.36 0.01 -0.25 -3.61 1.53 l 11.3,-2.46 v -2.45 -3.54 1.1 -3.14 -1.8 -2.39 2.13 l 11.3,-4.34 v -1.63 -3.01 -0.5 -4.21 0.92 -3.61 -2.24 l 11.29,0.2 v -8.37 1.26 -1.64 -1.7 -5.13 3.36 l 11.3,-5.87 v -4.37 1.89 -4.69 1.13 -5.77 -3.18 1.46 l 11.3,-2.74 v -3.1 -1.57 0.49 -5.02 -2.4 0.68 -1.69 l 11.3,-4.82 v -0.03 -1.94 -0.76 0.25 -6.2 1.15 -1.65 l 11.29,-3.87 v -3.43 -0.24 -2.6 -0.14 -7.2 1.69 l 11.3,-0.01 v -4.56 0.48 -0.93 -3.81 -4.46 3.03 -6.18 l 11.3,1.7 v -1.46 -4.77 -1.21 -3.68 1.6 -5.69 -0.88 l 11.3,0.6 v 3.29 -4.91 -5.28 -0.39 -1.08 -0.08 -2.14 l 11.29,-3.47 v -3.42 -2.01 -0.93 2.55 -4.48 -5.71 l 11.3,1.94 v -0.44 -4.71 2.05 -4.62 2.56 -1.52 -8.92 l 11.3,1.5 v -2.84 0.51 -1.51 2.19 -4.89 -1.5 -4.75 l 11.3,1.9 v -3.39 -2.46 -1.13 -2.23 -0.35 -0.36 -2.22 l 11.29,-2.93 v -3.7 1.15 0.56 -2.94 -1.52 0.1 2.05 l 11.3,-9.11 v 1.47 -1.11 -4.38 -1.66 0.53 -3.72 l 11.3,1.46 v -4.39 0.13 0.34 -9.04 3.78 -1.04 -0.42 l 11.3,-3.6 v -1.63 -4.8 5.18 -5.55 -3.01 1.86 -1.01 l 11.29,-3.64 v -1.79 -0.72 -1.59 -4.31 -2.03 0.64 l 11.3,2.13 v -6.3 2.75 -5.95 0.67 -2.69 -0.55 0.24 l 11.3,-0.65 v -2.74 -3.26 -5.67 2.02 -2.02 -3.18 -0.15 l 11.3,-0.82 v -2.55 2.2 -2.59 -5.94 1.67 0.69 -1.8 l 11.29,-2.22 v -4.11 1.99 -5 -0.11 0.53 -5.81 l 11.3,1.52 v 0.06 0.08 -1.49 0.81 -4.38 3.66 -7.35 l 11.3,-5.82 v 4.51 -0.22 -4.41 -0.75 -1.94 0.32 -5.14 l 11.29,3.9 v -2.22 -3.99 2.25 -4.27 -1.18 2.81 -2.6 l 11.3,-1.12 v -2.33 -4.34 0.44 3.33 -3.6 -2.16 l 11.3,-5.08 v 3.72 0.56 -3.69 -0.52 0.64 -5.85 0.98 l 11.3,-5.05 v 2.91 -1.28 -0.21 -1.85 -0.84 -1.39 -4.96 l 11.29,1.81 v -1.85 0.02 -3.87 -1.28 3.7 0.01 -7.06 l 11.3,0.09 v 3.7 -5.71 -5.31 4.97 -0.6 0.32 l 11.3,-6.1 v -0.86 0.7 0.13 -2.43 -0.17 0.63 -2.16 l 11.3,-7.07 v -0.29 2.68 -1.81 -1.86 -3.42 0.49 -0.84 l 11.29,-6.71 v 4.93 -2.45 -1.12 -0.03 -4.01 1.63 -7.42 l 11.3,-3.24 v 1.1 -1.63 -0.86 -3.1 0.6 -6.77 l 11.3,-2.06 v -2.41 1.31 -9.98 -1.88 1.49 -3.47 -8.05 l 11.3,-0.3 v -0.3 -10.09 -0.14 -1.77 -7.01 4.33 2.56 l 11.29,-2.2 v 7.86 -4.31 6.11 -1.62 -0.4 -1.74 5.91 l 11.3,-2.3 v -6.11 4.96 -4.84 6.2 -4.32 -3.75 -4.49 l 11.3,2.11 v -6.19 -2.9 6.44 -13.88 1.1 -1.59 -5.24 l 11.3,-3.39 v -7.12 1.67 -3.8 -2.95 -1.28 -1.92 l 11.29,-0.54 v 0.96 -1.16 -5.06 -0.53 -0.65 -1.01 3.02 l 11.3,-5.53 v 4.21 -11.14 4.96 -1.04 -3.96 2.38 -3.63 l 11.3,-1.36 v 3.7 -4.74 3.39 -9.74 2.53 -1.6 -2.63 l 11.3,-0.14 v -0.73 -1.2 -0.5 -2.2 2.08 -8.59 l 11.29,1.06 v -3.06 -2.11 2.89 -3.01 -1.8 -3.13 -0.44 l 11.3,-2.44 v 1.55 -6.67 3.44 -1.5 -3.93 1.26 -1.37 l 11.3,-7.9 v 7.36 -5.54 2.86 -8.16 3.83 -2.66 -5.47 l 11.29,5.34 v -2.77 -1.69 -5.54 -4.95 2.4 2.54 l 11.3,-4.1 v -0.68 -1.16 -0.23 -3.01 1.09 -5.61 2.8 l 11.3,-3.53 v -6.51 2.58 -3.92 -2.23 1.4 1.59 l 11.3,-3.44 v -3.11 2.42 -6.62 4.29 -4.68 2.9 -8.95 l 11.29,10.05 v -11.37 1.33 0.59 -7.28 1.09 -3.4 4.49 l 11.3,-4.07 v -0.51 -0.46 -5.28 -0.12 1.52 -0.96 -2.14 l 11.3,-2.07 v -4.84 -1.05 -1.09 2.47 -4.93 -3.56 l 11.3,-4.51 v -2.55 6.56 -2.18 1.35 -7.28 -1.96 0.1 l 11.29,1.59 v -3.97 -1.31 -3.54 2.64 0.31 -9.53 1.4 l 11.3,3.87 v -6.44 -2.14 3.15 -0.73 5.06 -6.93 2.68 l 11.3,-4.81 v -0.16 -3.72 -2.89 2.75 -5.12 2.34 l 11.3,1.72 v -8.14 2.52 -4.35 -1.66 -4.1 6.12 -6.87 l 11.29,-1 v 2.07 -1.55 -4.57 1.05 -2.25 2.88 -4.58 l 11.3,-1.95 v 1.89 -1.88 0.47 -5.97 -2.75 2.89 2.81 l 11.3,-1.12 v -6.93 2.19 -0.35 -3.41 -3.15 2.76 l 11.3,-6.68 v -0.09 -0.34 -1.12 0.43 -3.1 -2.07 1.94 l 11.29,-3.6 v 0.59 -5.63 3.33 -2.78 -2.08 -2.59 6.23 l 11.3,-2.76 v -3.85 2.88 -5.17 -3.85 -2.14 2.26 4.91 l 11.3,-7.57 v -2 -1.26 -1.11 3.05 -1.43 -1.2 l 11.3,-2.76 v -2.55 1.94 3.67 -10.96 4.42 -3.68 1.77 l 11.29,-6.77 v 2.69 1.97 -7.43 1.32 -3.92 -3.24 0.87 l 11.3,1.34 v -2.85 -2.61 8.88 -3.69 -4.15 0.59 -2.8 l 11.3,-1.23 v -2.1 1.3 -4.99 2.51 -3.45 3.69 l 11.29,-4 v -0.8 -0.35 -2.43 4.67 -4.59 2.37 -4.26 l 11.3,5.2 v -11.2 0.93 0.72 -1.68 0.65 2.04 -3.4 l 11.3,-0.56 v -6.03 3.7 2 -2.91 1.12 -3.21 l 11.3,-6.08 v 2.37 1.71 -6.83 4.4 -4 -2.93 3.96 l 11.29,0.24 v -7.35 -0.9 -0.4 -3.05 -1.14 -4.66 6.03 l 11.3,-3.93 v 4.05 0.28 -0.81 -4.03 0.29 -1.39 l 11.3,0.39 v 2.11 -3.59 -1.59 6.61 -5.74 -10.79 5.69 l 11.3,-3.55 v 4.04 1.14 -1.18 -5.55 5.03 -4.12 -5.1 l 11.29,6.07 v -7.5 3.08 -5.74 5.26 -7.58 5.03 l 11.3,-6.85 v 2.92 -6.24 1.41 -0.87 -0.35 -0.31 -2.53 l 11.3,-1.2 v 5.17 -5.1 -5.35 6.66 -928.71 436.19 94.59 l 11.3,64 v 40.94 27.62 34.69 13.51 21.93 3.03 l 11.29,20.96 v 18.24 6.92 18.55 4.23 8.26 8.58 14.54 l 11.3,11.16 v 1.9 11.49 7.1 12.54 1.13 7.1 7.01 l 11.3,6 v 8.71 3.23 7.11 2.02 9.16 5.58 3.73 l 11.3,1.94 v 5.36 7.64 0.83 4.48 8.6 0.61 l 11.29,1.69 v 5.63 5.22 3.12 -0.58 8.01 -1.92 7.55 l 11.3,-3.62 v 4.92 8.4 3.27 -2.05 9.81 -8.25 5.15 l 11.3,1.67 v 10.93 -1.55 -8.34 11.23 2.75 -4.89 3.83 l 11.3,3.9 v 3.43 1.69 2.95 -3.61 -2.23 5 l 11.29,2.36 v 5.03 1.04 0.57 8.38 -8.6 5.53 -7.8 l 11.3,6.49 v 3.77 -3.01 5.42 -0.94 -0.31 6.53 -2.35 h 11.3 v 4.95 1.7 -3 4.52 -2.1 0.34 -3.04 l 11.29,6.11 v -1.12 3.09 1.21 1.73 -3.59 9.01 l 11.3,-4.53 v 7.51 -3.17 -0.95 2.62 -1.42 2.22 7.69 l 11.3,-6.99 v 2.94 1.14 -0.82 2.78 -3.61 -1.32 l 11.3,6.45 v -3.46 1.77 -3.49 9.93 -4.28 -1.16 4.95 l 11.29,-5.23 v 6.12 -2.82 0.56 3.67 -4.94 3.27 5.3 l 11.3,-12.54 v 8.87 0.37 -0.51 0.83 5.21 -2.59 -6.12 l 11.3,6.16 v 1.87 -1.22 -0.81 -0.9 5.37 -2.89 l 11.3,3.77 v -1.88 1.44 1.52 2.63 -1.77 -0.41 1.94 l 11.29,3.36 v -4.49 -3 4.89 -2.87 7.02 -0.9 l 11.3,-4.27 v -0.57 4.54 1.71 -1.99 2.5 -8.73 13.3 l 11.3,-9.05 v 5.41 -0.85 5.42 -7.74 0.45 -0.64 2.68 l 11.3,1.64 v -1.58 1.68 2.45 0.88 -0.71 -2.1 l 11.29,-0.15 v -1.94 2.46 4.53 1.55 -6.39 1.54 -3.5 l 11.3,0.47 v 8.17 -6.14 -0.37 4.01 -0.01 4.52 -2.49 l 11.3,-3.05 v 2.17 -0.36 -1.42 4.65 -3.35 7.04 -5.4 l 11.3,-0.51 v -2.67 2.34 -2.4 2.43 5.65 -6.04 6.67 l 11.29,-5.74 v 3.29 -4.2 1.91 0.32 -6.38 11.33 l 11.3,2.35 v -8.23 -0.5 6.56 -4.78 -0.81 2.87 -4.71 l 11.3,9.32 v -1.06 -5.78 0.28 -0.35 -2.57 1.14 4.3 l 11.3,0.66 v -2.24 4.79 -4.62 5.96 -2.98 -2.88 3.12 l 11.29,1.21 v -4.3 2.95 -1.58 -0.06 4.33 -5.8 l 11.3,-0.42 v 4.59 -2.8 0.6 1.93 -5.75 8.79 -1.81 l 11.3,1.21 v -0.14 -7.14 6.87 -5.04 -0.62 7.27 -3.17 l 11.3,-3.3 v 2.55 0.25 5.32 -5.04 -1.49 5.78 -8.83 l 11.29,3.93 v 0.32 -3.2 2.22 3.97 2.55 -2.46 -1.2 l 11.3,-3.34 v 0.65 -2.9 4.02 0.64 1.31 -2.97 5.3 l 11.3,-5.39 v 3.42 -1.89 1.32 3.25 1.76 -2.19 l 11.29,-6.74 v 0.73 2.89 1.67 -4.44 1.34 -0.46 0.37 l 11.3,4.92 v 0.35 -8.58 8.19 2.24 -6.58 1.71 5.16 l 11.3,-2.47 v -3.18 0.32 2.2 1.86 -0.55 -1.84 l 11.3,-3.17 v 7.18 -0.93 -4.34 -1.84 5.33 -1.11 1.91 l 11.29,3.57 v -8.35 4.35 2.92 -2.03 6.48 -7.57 6.99 l 11.3,-6.02 v -0.52 5.52 -1.13 -1.34 -2.65 -1.03 l 11.3,10 v -2.45 -1.92 0.47 0.44 -1.19 4.21 -2.22 l 11.3,-2.33 v 4.41 0.65 2.74 -0.61 6.94 -10.97 4.23 l 11.29,-1.61 v -0.66 3.54 -4.56 6.28 3.71 -3.82 6.82 l 11.3,-7.76 v 1.47 8.46 -2.61 -2.43 2.28 -3.9 l 11.3,7.04 v -0.38 0.18 4.87 -1.05 3.26 -7.09 6.77 l 11.3,-1.06 v 3.68 0.1 -2.42 2.21 2.32 1.92 0.32 l 11.29,-0.55 v 2.18 -3.58 5.37 0.84 -6.95 8.14 2.58 l 11.3,0.15 v 3.65 0.71 -1.36 8.14 -11.06 10.19 l 11.3,-1.11 v 3.79 -2.87 -2.96 4.65 5.46 -8.8 7.44 l 11.3,-5.22 v 4.66 3.71 -5.96 6.85 1.82 -0.43 1.54 l 11.29,-0.5 v 2.83 -1.12 7.4 -3.32 -0.5 -2.37 l 11.3,7.42 v -4.8 6.41 -4.8 -0.43 11 -1.16 2.57 l 11.3,-2.85 v 2.35 -3.22 2.55 6.76 -5.44 4.62 0.82 l 11.3,-2.01 v 5.24 0.37 -2.87 2.48 1.65 3.91 l 11.29,0.35 v -1.15 -4.4 7.92 1.22 -1.32 0.81 3.87 l 11.3,2.86 v -1.4 1.73 -0.02 2.14 1.19 2.58 -2.83 l 11.3,6.48 v -7.09 4.69 3.45 -0.76 4.71 -2.33 -2.29 l 11.29,7.37 v -3.08 3.21 -0.04 -0.46 2.77 1.22 l 11.3,2.02 v -3.74 3.35 4.23 -1.84 0.29 2.3 -1.36 l 11.3,3.52 v 5.88 -6.63 8.74 -6.14 5.45 2.55 l 11.3,0.42 v -4.53 11.09 -7.5 1.3 5.95 -2.51 2.28 l 11.29,-2.79 v 7.09 0.2 3.35 0.42 -2.03 2.82 2.24 l 11.3,-6.03 v 6.41 -0.64 1.17 6.38 -3.22 -1.06 1.85 l 11.3,2.4 v 1.91 -3.02 4.54 -0.39 3.18 5.19 l 11.3,-5.17 v -5.62 11.08 4.79 -7.63 3.35 -3.4 6.28 l 11.29,3.27 v 2.8 1.77 -1.56 -0.28 1.32 2.01 l 11.3,0.17 v 4.62 -1.08 8.57 -8.33 6.79 -5.83 2.59 l 11.3,4.15 v 1.83 -2.1 6 -1.66 0.51 3.1 -4.06 l 11.3,7.48 v -1.54 3.46 1.98 -3.18 2.77 -0.89 6.44 l 11.29,-3.28 v 3.1 -0.19 -0.3 5.37 -2.45 0.48 l 11.3,-0.79 v 0.37 5.77 1.75 -1.01 4 -2.04 -2.85 l 11.3,6.97 v -1.82 1.46 1.84 1.39 0.69 6.09 0.25 l 11.3,2.13 v -5.34 3.49 3 -4.16 1.48 8.99 0.38 l 11.29,-2.55 v -2.21 5.81 2.15 -1.31 -0.51 9.54 l 11.3,-2.68 v -2.15 6.72 -4.8 3.69 0.73 1.21 -3.86 l 11.3,5.62 v 0.66 0.61 7.47 -4.85 2.75 0 -1.69 l 11.3,4.12 v -0.59 1.82 -0.21 1.21 2.23 1.32 2.9 l 11.29,-1.03 v 0.57 4.18 -0.2 1.8 1.54 -1.96 l 11.3,2.24 v 2.46 -0.28 -1.87 3.57 2.14 5.1 -3.25 l 11.3,-2.86 v 4.74 3.08 -6.15 5.19 1.29 -0.3 1.56 l 11.29,3.16 v 0.08 3.58 -0.76 -1.18 1.83 -0.73 5.22 l 11.3,1.38 v 0.78 -2.07 0.72 -1.36 2.84 3.45 -1.88 l 11.3,5.07 v 0.08 -1.92 -0.81 3.12 -1.63 2.49 2.04 l 11.3,3.99 v 0.01 -0.82 3.28 -1.81 -0.27 7.96 l 11.29,-6.66 v 5.94 -2.07 2.38 2.34 0.3 -0.09 0.34 l 11.3,4.42 v -2.38 0.03 0.84 3.11 -0.95 2.41 2.16 l 11.3,1.39 v -3.12 8.27 -3.82 3.42 -4.75 4.57 l 11.3,2.14 v -0.93 4.06 -1.98 1.88 0.75 1.72 -3.2 l 11.29,3.5 v 2.92" /><path
         id="path1047"
         style="fill:none;stroke:#e36f47;stroke-width:8;stroke-linecap:butt;stroke-linejoin:miter;stroke-miterlimit:10;stroke-dasharray:none;stroke-opacity:1"
         d="m 698.58,4909.01 v -1.36 -0.49 -1.38 0.45 l 11.3,-1.03 v 1.09 0.39 0.43 2.11 -0.63 0.19 l 11.3,-2.68 v 2.48 -4.33 3.92 -1.63 -0.27 1.46 1.69 l 11.3,-2.38 v -1.27 2.5 -2.01 -0.04 0.98 1.19 0.73 l 11.29,-1.94 v -3.41 4.01 -3.31 3.25 -4.93 2.42 1.48 l 11.3,1.18 v -0.1 -2.96 -0.93 3.87 -1.9 -1.82 l 11.3,2.53 v 1.91 -1.96 -0.43 1.15 1.81 1.04 -5.52 l 11.3,1.28 v 2.67 -4.42 5.53 -3.37 1.39 0.98 -2.83 l 11.29,0.3 v -0.12 1.06 -0.03 -0.34 0.11 0.67 l 11.3,0.46 v -0.37 -1.17 -1.02 0.84 -0.61 0.48 -0.38 l 11.3,2.4 v -1.51 3.53 -6.34 2.32 0.11 4.68 -4.31 l 11.3,0.31 v -1.92 2.39 -1.76 0.7 5.87 -7.97 0.66 l 11.29,2.26 v 2.06 1 -3.64 1.65 -1.03 -1.87 l 11.3,-2.79 v -1.07 3.39 -0.31 4.27 -0.8 -0.95 -0.46 l 11.3,0.89 v -1.18 0.34 -9.07 -32.93 4.53 -9.49 4.64 l 11.3,-1.85 v 7.94 -6.77 0.64 4.9 -1.52 1.41 l 11.29,-1.85 v 0 -1.37 -3.49 -0.39 3.16 -1.76 2.68 l 11.3,-1.27 v 2.83 -6.24 6.46 -2.59 0.32 -1.56 4.98 l 11.3,-4.46 v 2.51 -6.05 8.66 -6.49 6.58 -2.12 -2.26 l 11.29,1.98 v -10.13 2.72 5.28 -2.81 0.97 5.05 l 11.3,-6.18 v -1.19 4.45 -8.14 4.37 -4.16 -2.53 5.66 l 11.3,0.67 v -0.54 -0.77 5.5 -5.25 0.9 0.65 6.46 l 11.3,-11.25 v 4.75 1.56 -0.06 2.76 -5.72 6.07 -0.09 l 11.29,-2.77 v -8.08 9.65 -3.91 1.42 -5.16 7.04 l 11.3,0.89 v -5.88 2.24 7.62 -3.06 -3.66 1.66 -6.77 l 11.3,11.57 v -7.95 -1.67 0.01 0.55 3.42 -8.6 3.33 l 11.3,1.28 v 10.38 -5.69 -4.83 5.85 -1.47 4.23 -2.32 l 11.29,-0.78 v -4.46 -1.28 2.68 1.78 -0.97 -3.05 l 11.3,-3.08 v 10.34 -11.71 15.44 -10.01 6.22 -0.26 -8.94 l 11.3,2.08 v -1.35 5.78 -2.03 4.67 -2.66 0.13 -3.31 l 11.3,2.34 v -1.61 -1.84 -4.49 5.57 1.84 1.71 -4.57 l 11.29,-4.58 v 0.43 1.63 4.46 -1.71 -2.44 4.46 7.71 l 11.3,-10.28 v 2.74 -5.88 5 -2.31 -0.11 -0.38 l 11.3,7.09 v -6.02 3.89 2.44 -11.65 3.73 1.57 2.78 l 11.3,-2.32 v 0.71 -7.57 10.28 1.44 -12.69 10.94 -0.86 l 11.29,1.67 v -5.5 1.22 3.54 -2.65 -4.65 4.81 l 11.3,7.88 v -8.83 6.84 -8.93 4.58 -2.14 -2.31 2.29 l 11.3,7.42 v -5.13 -1.45 -6.24 2.91 3.64 2.91 -13.14 l 11.3,4.51 v 1.24 10.38 -6.39 -7.36 4.37 5.7 -6.96 l 11.29,0.88 v 1.33 1.96 -4.37 2.83 6.02 -13.49 l 11.3,6.74 v -0.01 2.85 3.71 1.27 -8.19 4.61 -7.78 l 11.3,-0.44 v 0.56 5.54 -3.05 -0.56 -0.1 3.93 -10.04 l 11.29,7.41 v 2.72 -7.32 9.52 -6.76 1.34 6.91 -4.67 l 11.3,2.52 v -0.79 -7.82 2.48 5.15 -3.31 -1.57 l 11.3,-2.6 v 5.43 3.44 -6.05 5.44 1.84 -11.65 5.98 l 11.3,-1.22 v 4.39 -4.76 -1.7 6.12 -3.56 1.63 -0.74 l 11.29,-2.89 v 2.84 3.28 -6.02 2.62 5.02 3.03 -12.3 l 11.3,1.95 v 8.88 -8.02 -2.15 6.25 5.44 -0.36 l 11.3,-11.37 v 3.42 2.72 1.52 -4.39 5.12 -0.29 -5.73 l 11.3,-4.75 v 8.86 0.39 -4.94 4.75 1.39 -1.28 -2.92 l 11.29,-6.42 v 11.7 -4.46 0.88 1.67 -5.88 8.31 -9.8 l 11.3,-0.05 v 5.74 -1.41 3.55 -1.63 5.85 -11.2 l 11.3,-1.57 v -0.53 11.88 -7.92 -4.04 5.2 5.83 -6.29 l 11.3,-2.55 v 10.6 -10.61 5.99 -0.54 -6.55 5.91 8.32 l 11.29,-5.49 v 2.84 -1.32 2.14 -5.7 -1.98 -1.63 2.94 l 11.3,-0.16 v -1.54 -2.42 -0.49 11.59 -3.36 -5.15 -6.39 l 11.3,7.28 v -2.23 0.39 8.72 -14.7 5.97 0.47 1.06 l 11.3,-1.49 v 3.29 2.03 -6.33 2.16 -0.82 2.03 l 11.29,3.7 v 0.72 -2.41 -2.57 -1.73 -0.04 2.12 -0.34 l 11.3,6.74 v -3.26 -14.08 10.84 2.3 0.85 -2.6 3.32 l 11.3,-6.18 v 9.62 -1.76 -3.26 -5.93 8.71 -4.42 -0.18 l 11.3,2.13 v 0.19 -4.2 3.53 3.49 1.46 -5.16 l 11.29,5.11 v -6.97 3.23 0.03 2.67 -1.91 -1.04 3.78 l 11.3,-6.3 v 6.99 -11.27 7.99 4.47 -4.69 0.31 4.38 l 11.3,-14.45 v 13.33 -10.88 12.63 -12.27 11.87 -5.61 -3.67 l 11.29,7.13 v 7.13 -5.77 -7.12 0.17 2.15 7.17 l 11.3,-2.88 v 0.54 -3.21 5.98 -9.1 7.81 -2.31 0.31 l 11.3,1.12 v -6.27 5.24 -3.19 -0.4 0.67 4.55 l 11.3,-2.42 v -1.39 1.28 -3.98 7.26 -5.33 5.88 -7.81 l 11.29,12.04 v -13.69 4.93 -3.45 5.29 1.36 -4.7 4.58 l 11.3,-3.06 v 0.45 -3.47 1.84 4.88 3.41 -3.26 -1.96 l 11.3,-1.02 v -1.55 -0.57 -1.33 8.93 -6.42 -3.53 l 11.3,-3.32 v 8.56 4.18 -5.24 4.14 -4.09 -3.62 8.51 l 11.29,-5.37 v 1.08 1.35 -5.62 1.81 5.65 -12.19 8.47 l 11.3,1.5 v -5 8.18 2.27 -0.16 -0.21 -1.94 2.73 l 11.3,-11.17 v 8.85 0.79 -5.06 9.05 -9.97 3.87 l 11.3,0.79 v -5.05 5.37 -0.09 -2.91 -0.76 4.76 -8.22 l 11.29,5.5 v 5.62 -1.3 -2.51 -3.03 -0.07 4.63 -5.01 l 11.3,2.55 v 2.86 2.25 -1.47 -5.79 3.42 -2.7 7.14 l 11.3,0.7 v -7.04 5.63 -4.44 -2.36 3.47 5.67 l 11.3,-8.77 v -3.48 6.76 -3.74 0.24 1.34 7.37 -4.99 h 11.29 v -0.01 -1.33 6.33 -3.48 -2.07 -3.19 6.42 l 11.3,-2.32 v 2.6 -1.07 1.41 -1.7 -7.32 8.28 2.45 l 11.3,-5.72 v -3.92 5.2 -1.27 1.4 3.28 0.07 l 11.3,-3.53 v 4.27 -5.27 7.96 -11.39 5.16 -0.63 3.89 l 11.29,-3.59 v 2.62 3.16 -7.55 -1.46 1.89 -5.01 6.59 l 11.3,-2.42 v 1.33 2.71 9.25 -4.18 -4.76 7.74 -4.19 l 11.3,-7.45 v 0.41 -1.45 -2.61 12.62 -8.92 6.36 l 11.29,-1.86 v -3.14 2.14 -2.3 10.84 -10.81 9.24 -7.33 l 11.3,9.2 v -14.99 8.33 -1.91 -0.39 2.2 2.63 -1.95 l 11.3,4.43 v -5.97 1.58 3.4 -3.37 2.96 0.9 l 11.3,-5.12 v -1.79 2.1 0.84 3.04 -2.79 1.75 0.59 l 11.29,6.14 v -11.91 3.74 0.24 -3.45 1.87 -6.96 5.48 l 11.3,1.9 v 0.7 -0.55 7.48 -8.68 3.91 2.29 l 11.3,1.05 v 3.87 -6.5 3.98 1.37 -1.81 -12.28 8.76 l 11.3,-6.12 v 8.16 -0.5 2.4 -5.07 5.72 -5.02 -8.19 l 11.29,10.24 v -8.57 6.63 -4.5 2.97 -8.3 11.82 l 11.3,-6.59 v 1.97 0.21 1.69 -0.12 -4.24 2.06 -2.67 l 11.3,-1.65 v 7.5 -4.91 -3.65 10.83 746.88 -631.6 -28.44 l 11.3,-20.21 v -18 -8.46 -2.23 -15.38 8.09 -18.73 l 11.29,5.18 v 1.85 -5.5 0.49 -6.27 0.27 -1.65 -0.35 l 11.3,-2.36 v -4.72 3.85 0.02 0.34 -6.64 1.07 6.37 l 11.3,-6.03 v 2.29 -3.76 0.05 -4.26 8.48 -0.71 3.42 l 11.3,-6.04 v 1.54 -4.82 2.96 -1.67 -1.23 -0.43 l 11.29,-4.02 v 2.48 1.23 -4.39 0.45 4.5 2.31 -3.53 l 11.3,-12.14 v 5.45 5.66 5.51 -8.22 9.84 -14.51 5.88 l 11.3,0.8 v 4.05 -7.42 -10.8 10 2.03 -6.92 5.82 l 11.3,0.23 v -0.73 -2.1 5.11 -3.92 -4.69 3.57 l 11.29,-2.2 v -0.01 9.53 -2.27 2.39 -8.24 4.69 -10.92 l 11.3,-0.28 v 9.46 -6.43 7.09 -6.06 0.33 4.83 -5.77 l 11.3,-0.78 v 6.42 -2.04 -6.82 5.99 0.7 -0.42 -4.9 l 11.29,3.91 v 0.84 0.9 -2.08 1.93 -7.03 10.58 l 11.3,-7.95 v 6.83 -1.29 -4.05 4.23 -7.05 4.78 11.67 l 11.3,-13.68 v 6.12 -2.03 3.06 -2.56 -1.93 -5.34 l 11.3,2.39 v -1.64 5.54 -5.93 10.74 -5.69 -1.01 1.3 l 11.29,-5.87 v 3.07 -3.11 6.63 0.58 -6.57 1.79 5.18 l 11.3,-9.14 v 6.94 -6.09 3.23 -2.92 9.37 -4.26 -8.54 l 11.3,8.62 v 6.96 -13.46 5.28 -0.97 0.64 -3.27 l 11.3,0.89 v 4.45 -2.45 5.64 -4.29 -2.99 2.1 5.48 l 11.29,-2.94 v -6.43 -0.1 4.07 -1.68 7.47 -6.91 l 11.3,-7.28 v 4.74 9.18 3.07 -7.71 2.71 -7.04 12.9 l 11.3,-18.41 v 7.21 5.71 -1.6 -5.57 1.41 2.27 -5 l 11.3,7.09 v -4.58 4.8 -5.07 0.63 -0.45 -0.1 l 11.29,3.04 v -4.54 7.17 -5.06 4.42 -5.78 4.11 -11.35 l 11.3,4.4 v 12.18 -11.18 1.2 4.56 1.26 1.7 -0.39 l 11.3,-4.22 v 1.22 -2.61 -0.03 12.94 -11.75 8.99 -5.27 l 11.3,-2.74 v -3.47 6.68 -10.14 5.22 9.67 -12.83 10.03 l 11.29,-5.39 v 2.04 -8.69 1.33 5.46 -8.85 14.94 l 11.3,1.63 v -10.38 -1.73 6.19 -4.6 1.01 2.57 -2.87 l 11.3,9.65 v -4.57 -5.77 -1.68 4.08 -4.99 3.06 1.79 l 11.3,0.96 v -4.17 12.25 -7.8 2.13 -7.73 3.56 1.72 l 11.29,3.49 v -8.31 6.39 -1.81 -1.43 4.64 -9.68 l 11.3,5.69 v 0.14 1.85 -6.29 7.01 -9.88 18.53 -6.39 l 11.3,-5.88 v 5.56 -13.18 11.64 -8.39 -4.01 15.18 -0.36 l 11.3,-8.14 v 4.51 -0.39 7.18 -7.76 -5.2 11.88 -9.96 l 11.29,0.22 v 5.04 -3.51 1.62 3.05 3.16 -2.61 -4.02 l 11.3,-3.61 v -2.14 1.8 5.58 -3.29 -2.28 2.19 7.32 l 11.3,-8.65 v -0.28 2.32 1.27 3.95 1.64 -3.59 l 11.29,-4.65 v -6.31 14 -6.77 2.85 -1.15 -6.61 2.92 l 11.3,6.96 v -1.84 -10.93 10.91 6.11 -10.55 5.99 2.07 l 11.3,-7.71 v 5.07 -5.59 10.65 -5.28 -4.13 3.2 l 11.3,-4.63 v 7.81 -7.65 -1.06 -2.38 2.32 9.41 -1.44 l 11.29,1.88 v -6.88 1.96 6.31 -12.58 16.28 -9.03 6.56 l 11.3,-5.86 v -2.12 8.7 -4.58 -1.58 -6.08 7.77 l 11.3,3.56 v -1.3 -2.16 -2.68 2.28 -3.62 3.26 -0.9 l 11.3,-4.83 v 9.07 -0.96 1.8 -3.23 4.98 -13.21 6.12 l 11.29,0.2 v -2.41 1.71 -5.51 7.95 -1.57 -4.75 11.83 l 11.3,-10.81 v -3.13 9.89 -4.05 -4.32 10.68 -12.31 l 11.3,3.54 v 2.21 -2.71 3.58 3.48 0.05 -9.27 9.26 l 11.3,1.55 v -1.59 -1.73 -1.89 -1.29 1.3 -0.34 3.92 l 11.29,-2.74 v -0.02 -3.07 -0.14 5.86 -11.87 12.51 -2.82 l 11.3,1.49 v 1.01 -0.99 -2.62 5.18 -9.56 14.22 l 11.3,-11.03 v 6.09 -2.81 -7.14 5.23 8.54 -11.29 7.98 l 11.3,-11.59 v 8.54 -1.18 -8.41 7.75 3.55 2.22 -4.8 l 11.29,1.16 v 2.94 -5.81 12.98 -9.58 -3.37 -3.4 l 11.3,6.01 v -0.8 -0.74 -4.19 1.11 9.72 -4.16 1.01 l 11.3,-4.17 v 2.17 -2.45 -3.1 11.49 -8.64 3.21 0.25 l 11.3,-0.56 v 4.18 -2.37 0.01 -3.92 1.49 8.05 l 11.29,-2.79 v -5.44 -6.27 7.24 -0.36 -0.5 -0.67 5.5 l 11.3,-2.5 v -0.68 1.27 -1.04 4.4 -1.43 -2.62 -4.34 l 11.3,7.5 v -8.14 2.16 2.31 -2.28 10.22 -7.61 -2.56 l 11.29,10.38 v -7.62 3.91 -5.11 0.59 1.13 0.95 l 11.3,-1.14 v -3.36 -0.72 4.65 -1.89 -3.43 2.77 -5.48 l 11.3,12.18 v -1.29 -10.83 17.32 -11.72 7.52 -0.87 l 11.3,-3.66 v -4.39 9.76 -11.91 5.69 7.15 -5.1 -0.08 l 11.29,-4.97 v 7.5 1.76 -0.23 -4.93 -0.72 3.88 -3.69 l 11.3,-9.27 v 5.23 3.11 2.8 2.43 -3.74 -4.47 7.33 l 11.3,-3.51 v 1.56 -4.67 5.59 -4.14 6.87 1.41 l 11.3,-6.94 v -6.73 12.14 0.3 -10.83 4.91 -3.1 2.9 l 11.29,4.29 v 4.39 -5.34 4.83 -0.2 -6.1 5.36 l 11.3,-0.07 v -1.71 -2.37 7.31 -6.05 1.08 -10.62 5.92 l 11.3,7.92 v 0.13 -4.89 2.91 -2.12 2.34 -2.42 -2.39 l 11.3,5.09 v -3.83 -0.06 8.03 -7.89 1.39 -4.01 8.2 l 11.29,-0.57 v -2.17 2.41 -2.91 3.02 -0.88 -3.44 l 11.3,-0.04 v -1.15 8.38 -4.65 -1.75 3.15 -5.94 -5.56 l 11.3,8.31 v -4.72 6.86 -4.56 -0.49 3.46 6.2 -6.26 l 11.3,2.33 v -1.2 -0.72 3.9 -3.45 -2.35 5.44 -1.47 l 11.29,-0.99 v -7.42 6.54 1.68 -0.16 -3.2 14.02 l 11.3,-12.45 v -5.31 11.13 -5.23 6.48 -2.54 -0.91 0.24 l 11.3,-3.71 v -2.11 2.13 6.05 -6.08 3.43 -1.32 -3.43 l 11.3,0.73 v 1.04 1.12 -8.12 6.24 1.61 0.08 2.07 l 11.29,-6.4 v 7.62 2.62 -6.81 4.28 2.03 -2.91 l 11.3,-1.74 v 1.28 4.63 -12.41 4.87 5 1.71 -4.28 l 11.3,-1.74 v 5.59 -0.06 -5.97 0.06 -1.13 3.11 2.42 l 11.29,-3.31 v 5.47 -0.15 -1.01 -2.07 -2 -3.51 7.52 l 11.3,-1.76 v 5.53 -6.89 2.05 -1.88 0.67 1.44 -8.19 l 11.3,10.32 v -0.92 -5.39 1.85 2.18 -1.55 -4.41 5.91 l 11.3,2.66 v -1.75 -1.29 2.4 0.77 -8.45 11 l 11.29,-11.24 v 7.57 -5.58 -0.59 0.13 6.5 -2.92 -2.16 l 11.3,3.61 v -2.02 -6.03 5.07 -1.95 3.37 -1.68 0.51 l 11.3,0.75 v -7.59 14.55 -10.22 3.07 -4.24 3.24 l 11.3,1.88 v -0.33 -2.54 2.42 -3.09 -0.58 5 -8.33 l 11.29,3.38 v 3.28" /><path
         id="path1049"
         style="fill:none;stroke:#3ea44e;stroke-width:8;stroke-linecap:butt;stroke-linejoin:miter;stroke-miterlimit:10;stroke-dasharray:none;stroke-opacity:1"
         d="m 698.58,4922.62 v -3.99 0.81 -3.15 2.26 l 11.3,-1.18 v 1.09 -0.52 0.86 3.46 -1.03 1.31 l 11.3,-3.11 v 1.19 -5.6 5.53 -1.7 -0.34 3.23 3.18 l 11.3,-6.33 v -0.16 3.05 -1.71 -0.6 -0.93 3.32 1 l 11.29,-1.69 v -7.27 8.41 -5.09 3.3 -6.94 3.67 3.04 l 11.3,-0.29 v 2.2 -5.03 -1.9 6.03 -3.86 -1.82 l 11.3,3.57 v 4.71 -4.34 -1.72 3.1 4.11 0.21 -7.74 l 11.3,0.88 v 3.63 -6.7 7.3 -3.5 1.19 1.14 -1.83 l 11.29,-1.66 v -0.06 1.29 0.69 0.2 -0.09 1.34 l 11.3,0.51 v -1.24 -0.87 -1.88 0.13 -1.78 3.22 -0.52 l 11.3,0.83 v -0.18 5.36 -10.16 4.75 -1.28 7.35 -7.59 l 11.3,1.08 v -2.76 3.39 -2.85 1.85 7.81 -11.12 -0.85 l 11.29,6.75 v 0.56 2.67 -5.77 2.8 -0.61 -3.27 l 11.3,-3.71 v -2.56 4.33 0.26 5.49 -1.04 -0.12 -0.68 l 11.3,1.31 v -2.27 0.42 -19.56 -43.33 7.83 -14.01 3.8 l 11.3,-1.73 v 16.4 -17.01 7.91 4.84 -1.39 1.85 l 11.29,-6.25 v 2.03 1.5 -2.55 -5.84 4.58 -0.38 1.17 l 11.3,-1.72 v 10.71 -14.01 10.25 -1.85 -1.76 -2.89 5.6 l 11.3,-6.73 v 4.03 -11.92 19.21 -12.66 10.6 -0.57 -5.5 l 11.29,-0.73 v -11 1.45 8.95 -4.57 6.62 2.13 l 11.3,-7.92 v -0.17 4.71 -13.14 3.29 -2.91 -3.64 7.19 l 11.3,3.6 v -0.79 -2.38 9.25 -5.6 1.04 -2.18 15.57 l 11.3,-24.07 v 10.29 5.66 -6 4.2 -5.76 7.81 -0.49 l 11.29,-2.84 v -18.55 21.1 -3.97 -1.95 -4.45 10.24 l 11.3,-0.15 v -8.11 3.02 14.81 -5.71 -2.74 -1.65 -15.56 l 11.3,27 v -19.04 -2.28 2.85 2.83 1.49 -10.44 4.54 l 11.3,-0.54 v 12.74 -8.94 -1.15 10.53 -4.1 8.3 -5.91 l 11.29,2.98 v -8.59 -3.27 4.02 -0.49 1.31 3.38 l 11.3,-16.9 v 21.47 -22.78 32.73 -22.26 10.83 -3.33 -8 l 11.3,-0.26 v -0.17 10.2 -5.88 5.47 1.37 -1.71 -1.4 l 11.3,-0.83 v 0.12 -1.36 -17.8 19.31 -0.85 1.69 -8.69 l 11.29,-5.23 v 4.86 -2.45 6.3 -2.59 -4.29 7.76 14.07 l 11.3,-13.65 v 4.28 -17.58 14.68 -2.65 -4.29 3.65 l 11.3,10.19 v -7.37 7.26 0.43 -14.37 0.76 2.26 5.27 l 11.3,-3.36 v 0.14 -9.55 11.93 8.71 -25.37 17.74 -1.97 l 11.29,9.01 v -13.01 1.62 9.7 -4.74 -8.62 6.2 l 11.3,13.47 v -12.88 9.79 -10.12 1.57 -3.06 -5.75 1.33 l 11.3,17.44 v -10.73 -2.4 -6.64 -1.43 13.67 1.39 -20.13 l 11.3,4.96 v 2.03 18.52 -10.54 -8.59 4.51 7.92 -12.32 l 11.29,2.58 v 7.15 -1.08 -3.95 5.28 9.78 -23.22 l 11.3,9.82 v -0.31 -0.32 11.39 0.1 -15.26 3.14 -6.13 l 11.3,8.03 v -9.66 11.03 -2.68 -4.64 2.47 6.07 -15.16 l 11.29,8.57 v 7.36 -12.63 16.74 -8.53 0.16 11.25 -10.93 l 11.3,4.25 v 1.04 -11.02 2.66 4.3 -3.24 -4.4 l 11.3,1.64 v 5.02 4.31 -9.84 10.79 1.37 -21.68 13.83 l 11.3,4.63 v 0.96 -7.58 -4.79 12.45 -7.06 3.12 2.07 l 11.29,-9.93 v 10.34 7.23 -11.84 6.88 4.1 5.24 -18.91 l 11.3,1.93 v 9.67 -9.25 2.05 4.08 10.88 -2.26 l 11.3,-19.95 v 8.87 6.51 -2.65 -4.61 8.04 -2.39 -12.32 l 11.3,-0.26 v 17.8 -5.94 -10.3 12.61 8 -7.15 -8.98 l 11.29,-3.63 v 13.17 -9.29 3.83 0.1 -10.88 16.03 -12.19 l 11.3,1.29 v 7.24 -1.72 6.83 -8.39 13.95 -14.46 l 11.3,-4.63 v 0.08 18.61 -7.75 -8.85 3.16 9.11 -2.92 l 11.3,-13.44 v 17.13 -13.64 9.87 -0.17 -7.47 3.34 17.02 l 11.29,-11.65 v -0.46 4.7 -1.77 -6.36 0.13 -4.33 1.96 l 11.3,1.63 v 7.14 -14.31 4.38 14.84 -4.89 -3.97 -12.6 l 11.3,12.51 v -1.43 2.28 4.79 -14.24 5.28 -1.7 3.74 l 11.3,-5.12 v 13.94 -4.42 -10.19 4.4 -4.24 7.33 l 11.29,7.74 v -2.39 -4.68 0.75 -3.87 -1.89 5.81 -7.55 l 11.3,21.62 v -14.87 -16.46 15.58 2.49 10.37 -14.28 12.37 l 11.3,-18.96 v 16.58 2.87 -15.36 0.72 9.42 -7.05 1.94 l 11.3,-0.37 v 3.55 -10.31 5.28 11.51 -5.46 1 l 11.29,6.95 v -12.69 8.64 -8.37 10.77 -4.64 -1.19 7.94 l 11.3,-12.79 v 10.09 -16.51 9.86 11.69 -4.97 -8.85 9.19 l 11.3,-20.72 v 16.96 -17.01 21.6 -22.69 23.47 -9.83 0.95 l 11.29,0.56 v 21.3 -15.45 -9.94 9.38 -1.9 11.41 l 11.3,-6.03 v 2.46 -9.31 11 -18.06 12.85 3.94 -6.51 l 11.3,7.52 v -8.08 5.61 -2.98 1.04 -4.95 6.23 l 11.3,-0.78 v -0.01 -2.7 -1.88 6.04 -5.4 6.15 -5.54 l 11.29,7.92 v -13.62 5.6 -14.83 24.63 -0.85 -8.86 5.43 l 11.3,-6.1 v 1.17 -14.33 14.6 8.46 0.28 -3.83 -4.38 l 11.3,0.33 v 2.26 -5.32 -2.4 13.85 -8.23 -3.16 l 11.3,-2.73 v 16.68 -1.58 -10.87 9.47 -2.37 -8.07 15.06 l 11.29,-14.12 v 4.6 4.7 -9.99 -3.62 13.19 -16.21 14.42 l 11.3,-2.29 v -6.09 21.67 -1.93 -3.75 -7.24 0.87 4.08 l 11.3,-18.49 v 15.4 5.54 -8.76 12.58 -16.06 3.12 l 11.3,-2.13 v -0.52 4.84 3.33 -5.12 5.68 -1.96 -8.24 l 11.29,11.23 v 4.78 -1.54 0.57 -11.23 0.66 8.94 -9.53 l 11.3,5.48 v 3.75 3.06 -5.68 -3.26 7.98 -13.11 9.86 l 11.3,-0.21 v -5.3 9.27 -7.15 -9.45 16.32 4.82 l 11.3,-11.42 v -11.33 14.43 -9.82 -0.86 5.33 18.04 -15.24 l 11.29,4.64 v -3.88 4.2 6.49 -4.29 -2.95 -3.34 2.43 l 11.3,-4.21 v 13.37 -10.5 8.58 0.37 -13.92 11.91 -3.44 l 11.3,-2.6 v -6.92 11.45 -5 -1 7.96 -2.73 l 11.3,-4.79 v 14.17 -17.04 9.91 -8 1.7 2.94 6.14 l 11.29,-3.03 v 1.33 1.91 -8.27 -3.01 5.44 -7.39 13.25 l 11.3,-13.38 v 6.14 8.05 10.25 -6.83 -7.72 13.63 -5.38 l 11.3,-15.64 v 1.92 -2.32 -3.6 23.81 -20.19 9.58 l 11.29,-0.07 v -7.64 6.22 -7.27 16.83 -17.36 16.17 -9.65 l 11.3,7.29 v -13.98 14.84 -7.84 0.13 3.24 0.26 -3.44 l 11.3,12.09 v -2.21 -7.76 4.64 -6.65 3.65 5.78 l 11.3,-5.48 v -7.31 0.52 10.46 -0.66 -2.61 9 -8.89 l 11.29,15.71 v -19.81 9.88 -1.2 -6.5 5.71 -8.04 0.29 l 11.3,8.17 v -5.87 -0.96 12.58 -10.8 4.34 6.04 l 11.3,-1.36 v 6.26 -10.4 12.71 -12.51 3.15 -10.37 6.6 l 11.3,-4.66 v 6.91 -2.95 5.83 -5.91 6.52 -2.58 -17.68 l 11.29,14.28 v -10.88 8.47 -2.5 -1.57 -4.43 12.69 l 11.3,-1.69 v -4.74 7.43 1.19 0.89 -11.43 3.51 -0.82 l 11.3,-4.88 v 7.73 -5.13 -0.81 9.71 -346.42 299.22 5.59 l 11.3,2.1 v -8.41 19.83 -6.59 -10.03 20 -12.76 l 11.29,8.53 v 3.22 -0.59 -3.23 -2.35 4.66 3.97 -8.55 l 11.3,-5.41 v 2.24 2.66 5.28 -4.61 -5.38 1.78 15.02 l 11.3,-10.66 v 4.69 -6.11 -1.19 -2.61 13.2 -0.94 8.09 l 11.3,-6.83 v 0.17 -9.73 9.54 -1.83 -8.5 4.03 l 11.29,-6.55 v 5.26 1.93 -10.05 8.23 2.26 14.47 -14.95 l 11.3,-19.4 v 14.56 5.65 8.95 -9.6 11.85 -16.59 8.3 l 11.3,4.66 v -6.2 -5.36 -8.46 6.89 3.44 -2.99 9.78 l 11.3,-2.8 v -2.66 -5.18 8.69 1.06 -5.3 4.72 l 11.29,-7.58 v -3.45 21.53 -2.9 -6.17 -3.12 1.71 -7.29 l 11.3,-8.84 v 15.57 -6.91 10.22 -13.12 6.55 2.35 -7.4 l 11.3,0.46 v 4.04 -4.02 -6.65 6.23 5.43 1.63 -6.21 l 11.29,3.37 v 3.12 2.03 -6.98 3.37 -10.19 12.59 l 11.3,-9.83 v 3.83 5.33 -2 3.53 -19.14 13.44 14.81 l 11.3,-18.74 v 11.81 -8.88 11.05 -7.16 0.85 -7.48 l 11.3,-1.97 v 0.34 12.53 -6.17 7.44 -2.74 -0.58 -5.11 l 11.29,-2.35 v -6.28 1.71 15.34 -4.69 -5.26 3.3 0.47 l 11.3,0.78 v 2.21 -10.84 8.01 -8.59 12.81 -5.45 -6.11 l 11.3,7.09 v 13.24 -23.56 14.73 -2.27 -8.65 -0.55 l 11.3,-1.47 v 15.74 -11 10.38 -10.88 -4.66 7.73 8.2 l 11.29,-10.24 v -7.67 4.17 3.86 -0.08 7.43 -12.87 l 11.3,-12.16 v 14.48 12.34 4.6 -11.94 4.68 -5.4 13.13 l 11.3,-25.48 v 4.19 15.55 -11.53 -1.01 7.54 3.31 -12.43 l 11.3,10.6 v -8.02 9.58 -12.22 -4.79 3.31 6.25 l 11.29,3.21 v -4.65 11.26 -16.04 7.57 -0.93 5.89 -18.56 l 11.3,6.28 v 15.54 -12.68 3.18 1.35 4.44 -1.79 1.63 l 11.3,-2.91 v -1.31 -9.52 7.77 20.26 -18.39 9.46 -5.28 l 11.3,-2.84 v -3.53 12.64 -25.37 14.82 10.42 -17.83 12.74 l 11.29,-2.55 v -0.17 -14.51 1.12 13.48 -6.53 10.12 l 11.3,0.62 v -9.5 -3.24 4.54 -3.36 4.57 0.58 1.95 l 11.3,7.57 v -8.87 -2.7 -6.05 10.51 -7.05 7.61 -3.95 l 11.3,2.91 v -5.42 16.16 -6.34 -6.06 -13.75 11.42 0.88 l 11.29,8.61 v -14.9 11.3 -3.13 -2.45 4.7 -11.71 l 11.3,13.89 v -8.9 6.42 -10.72 11.49 -12.94 27.77 -10.8 l 11.3,-19.27 v 16.45 -16.15 13.24 -11.01 -6.45 20.52 5.09 l 11.3,-11.46 v 4.76 -2.35 7.25 -7.82 -9 18.06 -10.4 l 11.29,-3.48 v 10.28 -2.58 -1.71 2.59 5.28 -2.14 -8.86 l 11.3,-2.54 v -5.23 5.72 7.4 -6.27 -6.74 8.69 6.9 l 11.3,-9.73 v -4.12 6.22 0.9 4.51 0.24 -2.85 l 11.29,-1.34 v -15.15 29.6 -19.88 13.21 -4.55 -12.6 4.95 l 11.3,8.42 v -6.42 -8.6 9.52 12.58 -13.48 10.05 -2.21 l 11.3,-11.81 v 13.97 -14.08 21.76 -14.69 -7.11 9.12 l 11.3,-3.03 v 4.39 -14.67 4.43 -2.37 -4.03 24.77 -8.66 h 11.29 v -1.13 -1.53 6.93 -20.78 25.81 -9.61 3.68 l 11.3,-1.68 v -1.74 9.86 -9.9 0.11 -9.51 21.51 l 11.3,-8.01 v -0.45 -0.59 -2.55 2.81 -6.07 1.68 3.36 l 11.3,-7.65 v 13.7 -2.69 1.64 -5.39 -0.7 -11.38 8.41 l 11.29,2.72 v -3.3 -2.28 -2.01 7.38 -7.09 -3.02 20.36 l 11.3,-14.68 v -9.12 10.3 -1.36 -5.16 17.86 -16.87 l 11.3,-0.68 v 2.55 -2.56 2.25 8.67 -3.58 -6.22 11.33 l 11.3,4.43 v -7.26 -1.18 -0.58 -2.56 -1.95 -2.12 8.68 l 11.29,-1.77 v -1.91 -1.64 -7.03 13.33 -13.96 16.26 -5.91 l 11.3,1.55 v -1.39 -3.11 -1.18 -1.73 -0.45 15.87 l 11.3,-19.78 v 8.68 -0.57 -9.87 6.43 11.3 -13.04 10.63 l 11.3,-17.18 v 13.42 -4.89 -8.76 8.87 4.28 10.46 -12.88 l 11.29,4.26 v 0.98 -7.78 16.62 -12.61 -5.43 -2.96 l 11.3,3.49 v 5.85 -9.31 -1.52 5.04 4.8 -3.72 -1.07 l 11.3,-3.57 v 2.45 0.28 -10.35 18.68 -9.01 1.63 -0.76 l 11.3,2.25 v 3.79 -1.94 1.89 -10.8 2.47 12.23 l 11.29,-3.91 v -7.72 -6.08 5.69 -1.4 1.08 -0.43 7.92 l 11.3,-7.53 v 1.67 0.54 -1.03 6.83 -4.91 -5.98 -3.62 l 11.3,7.73 v -5.95 1.37 -0.93 -0.95 14.27 -11.26 2.09 l 11.29,9.39 v -7.65 3.17 -9.58 4.2 -1.51 1.89 l 11.3,-1.79 v -1.37 -5.05 4.96 0.91 -8.44 5.06 -8.34 l 11.3,21.63 v -12.3 -9.11 24.53 -13.74 9.89 -5.93 l 11.3,-7.6 v -2.03 10.02 -14.54 12.14 7.66 -5.54 -3.94 l 11.29,-0.55 v 6.08 2.13 -3.52 -12.03 2.86 8.01 -9.65 l 11.3,-10.57 v 3.58 8.82 5.72 -4.18 0.31 -6.13 14.18 l 11.3,-8.26 v 0.56 -3.69 6.58 -9.76 17.69 -6.74 l 11.3,-6.33 v -4.36 13.23 -7.99 -8.87 5.76 3.08 -3.03 l 11.29,6.28 v 5.92 -14.66 14.92 1.82 -13.05 11.02 l 11.3,0.26 v -6.36 -5.82 5.97 0.27 -8.05 -13.73 14.11 l 11.3,10.75 v 0.19 -6.21 -1.98 1.26 5.68 -9.93 1.69 l 11.3,1.8 v -3.79 -4.78 15.12 -9.72 1.43 -5.66 9.02 l 11.29,4.15 v -5.45 6.25 -5.44 0.91 2.34 -5.64 l 11.3,2.21 v -4.05 13.71 -10.83 -0.28 2.01 -8.7 -5.53 l 11.3,7.88 v -5.58 14.72 -10.22 -3.04 8.84 5.45 -14.11 l 11.3,4.89 v 7.12 -3.88 3.23 0.88 -5.64 -1 -2.85 l 11.29,5.28 v -14.51 10.31 -0.94 5.82 -6.87 20.07 l 11.3,-23.61 v -5.69 17.1 -4.9 12.67 -7.77 -0.58 7.49 l 11.3,-16.79 v -1.59 5.2 1.28 -5.5 7.74 -0.12 -4.73 l 11.3,-2.05 v 2.7 2.26 -16.85 12.9 1.31 0.89 1.54 l 11.29,-16.09 v 23.18 -2.39 -11.9 9.63 3.67 -5.62 l 11.3,-1.77 v -0.62 12 -24.21 7.35 9.4 -2.63 -3.9 l 11.3,1.69 v 9.4 -4.97 -2.59 -5.61 -1.77 5.06 5.23 l 11.29,-11.83 v 15.2 -4.5 1.64 -1.79 -5.69 -6.37 10.24 l 11.3,-3.46 v 10.31 -7.15 4.46 -2.77 0.22 -2.01 -12.51 l 11.3,14.49 v -1.84 -5.75 6.26 2.21 1.7 -11.83 10.61 l 11.3,1.81 v -0.91 -2.01 0.11 6.86 -15.55 13.29 l 11.29,-12.48 v 6.79 -4.43 -4.2 -3.53 19.46 -7.52 -3.54 l 11.3,2.23 v -0.85 -13.99 15.86 -7.07 8.98 -4.1 -2.64 l 11.3,1.6 v -6.96 20.05 -15.59 1.93 1.09 -0.01 l 11.3,4.54 v 4.06 -11.65 10.35 -7.87 -1.76 12.36 -14.21 l 11.29,3.82 v 5.76" /><g
         transform="translate(1413.5135,1621.4449)"
         id="g1906"><g
           id="g1051"><g
             id="g1053"
             clip-path="url(#clipPath1057)"><path
               d="m 710.15,3573.64 h 1329.36 v 483.84 H 710.15"
               style="fill:#ffffff;fill-opacity:1;fill-rule:evenodd;stroke:none"
               id="path1059" /></g></g><path
           d="m 710.15,3573.64 h 1329.36 v 483.84 H 710.15 v -483.84"
           style="fill:none;stroke:#000000;stroke-width:8;stroke-linecap:butt;stroke-linejoin:miter;stroke-miterlimit:10;stroke-dasharray:none;stroke-opacity:1"
           id="path1061" /><path
           d="M 735.7,3936.52 H 888.98"
           style="fill:none;stroke:#009afa;stroke-width:8;stroke-linecap:butt;stroke-linejoin:miter;stroke-miterlimit:10;stroke-dasharray:none;stroke-opacity:1"
           id="path1063" /><path
           d="m 914.53,3971.08 h 39.72 v -7.87 h -30.37 v -20.37 h 27.41 v -7.87 h -27.41 v -33.01 h -9.35 z"
           style="fill:#000000;fill-opacity:1;fill-rule:evenodd;stroke:none"
           id="path1065" /><path
           d="m 956.29,3953.81 h 8.52 v -51.85 h -8.52 v 51.85 m 0,20.18 h 8.52 v -10.78 h -8.52 z"
           style="fill:#000000;fill-opacity:1;fill-rule:evenodd;stroke:none"
           id="path1067" /><path
           d="m 1003.79,3945.85 c 0,0 -1.44,0.83 -3.15,1.2 0,0 -1.67,0.42 -3.7,0.42 0,0 -7.23,0 -11.11,-4.73 0,0 -3.85,-4.67 -3.85,-13.47 v -27.31 h -8.56 v 51.85 h 8.56 v -8.06 c 0,0 2.69,4.73 6.99,6.99 0,0 4.31,2.32 10.47,2.32 0,0 0.88,0 1.94,-0.14 0,0 1.07,-0.09 2.36,-0.32 z"
           style="fill:#000000;fill-opacity:1;fill-rule:evenodd;stroke:none"
           id="path1069" /><path
           d="m 1045.78,3952.28 v -8.05 c 0,0 -3.61,1.85 -7.5,2.77 0,0 -3.89,0.93 -8.06,0.93 0,0 -6.34,0 -9.53,-1.95 0,0 -3.15,-1.94 -3.15,-5.83 0,0 0,-2.96 2.27,-4.67 0,0 2.27,-1.67 9.12,-3.2 l 2.91,-0.65 c 0,0 9.08,-1.94 12.87,-5.51 0,0 3.85,-3.52 3.85,-9.86 0,0 0,-7.22 -5.74,-11.43 0,0 -5.7,-4.22 -15.7,-4.22 0,0 -4.16,0 -8.7,0.84 0,0 -4.49,0.78 -9.49,2.4 v 8.8 c 0,0 4.72,-2.45 9.3,-3.7 0,0 4.59,-1.21 9.08,-1.21 0,0 6.02,0 9.26,2.04 0,0 3.24,2.08 3.24,5.83 0,0 0,3.48 -2.36,5.33 0,0 -2.32,1.85 -10.24,3.56 l -2.96,0.7 c 0,0 -7.91,1.66 -11.43,5.09 0,0 -3.52,3.47 -3.52,9.49 0,0 0,7.32 5.18,11.3 0,0 5.19,3.98 14.73,3.98 0,0 4.72,0 8.88,-0.7 0,0 4.17,-0.69 7.69,-2.08 z"
           style="fill:#000000;fill-opacity:1;fill-rule:evenodd;stroke:none"
           id="path1071" /><path
           d="m 1065.92,3968.53 v -14.72 h 17.54 v -6.62 h -17.54 v -28.15 c 0,0 0,-6.34 1.71,-8.15 0,0 1.76,-1.8 7.08,-1.8 h 8.75 v -7.13 h -8.75 c 0,0 -9.86,0 -13.61,3.65 0,0 -3.75,3.71 -3.75,13.43 v 28.15 h -6.25 v 6.62 h 6.25 v 14.72 z"
           style="fill:#000000;fill-opacity:1;fill-rule:evenodd;stroke:none"
           id="path1073" /><path
           d="m 1132.26,3963.39 v -25.97 h 11.76 c 0,0 6.53,0 10.09,3.38 0,0 3.57,3.38 3.57,9.63 0,0 0,6.2 -3.57,9.58 0,0 -3.56,3.38 -10.09,3.38 h -11.76 m -9.35,7.69 h 21.11 c 0,0 11.62,0 17.55,-5.28 0,0 5.97,-5.23 5.97,-15.37 0,0 0,-10.23 -5.97,-15.46 0,0 -5.93,-5.24 -17.55,-5.24 h -11.76 v -27.77 h -9.35 z"
           style="fill:#000000;fill-opacity:1;fill-rule:evenodd;stroke:none"
           id="path1075" /><path
           d="m 1204.85,3945.85 c 0,0 -1.43,0.83 -3.15,1.2 0,0 -1.66,0.42 -3.7,0.42 0,0 -7.22,0 -11.11,-4.73 0,0 -3.84,-4.67 -3.84,-13.47 v -27.31 h -8.57 v 51.85 h 8.57 v -8.06 c 0,0 2.68,4.73 6.99,6.99 0,0 4.3,2.32 10.46,2.32 0,0 0.88,0 1.95,-0.14 0,0 1.06,-0.09 2.36,-0.32 z"
           style="fill:#000000;fill-opacity:1;fill-rule:evenodd;stroke:none"
           id="path1077" /><path
           d="m 1213.79,3953.81 h 8.52 v -51.85 h -8.52 v 51.85 m 0,20.18 h 8.52 v -10.78 h -8.52 z"
           style="fill:#000000;fill-opacity:1;fill-rule:evenodd;stroke:none"
           id="path1079" /><path
           d="m 1274.34,3933.25 v -31.29 h -8.52 v 31.02 c 0,0 0,7.36 -2.87,11.01 0,0 -2.87,3.66 -8.61,3.66 0,0 -6.9,0 -10.88,-4.4 0,0 -3.98,-4.4 -3.98,-11.99 v -29.3 h -8.56 v 51.85 h 8.56 v -8.06 c 0,0 3.06,4.68 7.18,6.99 0,0 4.16,2.32 9.58,2.32 0,0 8.94,0 13.52,-5.56 0,0 4.58,-5.51 4.58,-16.25 z"
           style="fill:#000000;fill-opacity:1;fill-rule:evenodd;stroke:none"
           id="path1081" /><path
           d="m 1320.59,3951.82 v -7.97 c 0,0 -3.61,2 -7.27,2.97 0,0 -3.61,1.02 -7.31,1.02 0,0 -8.29,0 -12.87,-5.28 0,0 -4.58,-5.23 -4.58,-14.72 0,0 0,-9.49 4.58,-14.77 0,0 4.58,-5.23 12.87,-5.23 0,0 3.7,0 7.31,0.97 0,0 3.66,1.02 7.27,3.01 v -7.87 c 0,0 -3.56,-1.67 -7.4,-2.5 0,0 -3.8,-0.84 -8.11,-0.84 0,0 -11.71,0 -18.61,7.37 0,0 -6.9,7.36 -6.9,19.86 0,0 0,12.68 6.95,19.95 0,0 6.99,7.27 19.12,7.27 0,0 3.93,0 7.68,-0.83 0,0 3.75,-0.79 7.27,-2.41 z"
           style="fill:#000000;fill-opacity:1;fill-rule:evenodd;stroke:none"
           id="path1083" /><path
           d="m 1329.53,3953.81 h 8.52 v -51.85 h -8.52 v 51.85 m 0,20.18 h 8.52 v -10.78 h -8.52 z"
           style="fill:#000000;fill-opacity:1;fill-rule:evenodd;stroke:none"
           id="path1085" /><path
           d="m 1355.22,3909.73 v -27.5 h -8.56 v 71.58 h 8.56 v -7.87 c 0,0 2.69,4.63 6.76,6.85 0,0 4.12,2.27 9.82,2.27 0,0 9.44,0 15.32,-7.5 0,0 5.93,-7.5 5.93,-19.72 0,0 0,-12.23 -5.93,-19.73 0,0 -5.88,-7.5 -15.32,-7.5 0,0 -5.7,0 -9.82,2.23 0,0 -4.07,2.26 -6.76,6.89 m 28.98,18.11 c 0,0 0,9.39 -3.89,14.72 0,0 -3.84,5.37 -10.6,5.37 0,0 -6.76,0 -10.65,-5.37 0,0 -3.84,-5.33 -3.84,-14.72 0,0 0,-9.4 3.84,-14.77 0,0 3.89,-5.33 10.65,-5.33 0,0 6.76,0 10.6,5.33 0,0 3.89,5.37 3.89,14.77 z"
           style="fill:#000000;fill-opacity:1;fill-rule:evenodd;stroke:none"
           id="path1087" /><path
           d="m 1425.55,3928.02 c 0,0 -10.33,0 -14.31,-2.36 0,0 -3.98,-2.36 -3.98,-8.06 0,0 0,-4.53 2.96,-7.22 0,0 3.01,-2.64 8.15,-2.64 0,0 7.08,0 11.34,5 0,0 4.31,5.05 4.31,13.38 v 1.9 h -8.47 m 16.99,3.52 v -29.58 h -8.52 v 7.87 c 0,0 -2.92,-4.73 -7.27,-6.99 0,0 -4.35,-2.23 -10.65,-2.23 0,0 -7.96,0 -12.68,4.45 0,0 -4.68,4.49 -4.68,11.99 0,0 0,8.75 5.83,13.19 0,0 5.88,4.45 17.5,4.45 h 11.95 v 0.83 c 0,0 0,5.88 -3.89,9.08 0,0 -3.84,3.24 -10.83,3.24 0,0 -4.45,0 -8.66,-1.07 0,0 -4.21,-1.06 -8.1,-3.19 v 7.87 c 0,0 4.67,1.8 9.07,2.68 0,0 4.4,0.93 8.57,0.93 0,0 11.25,0 16.8,-5.83 0,0 5.56,-5.84 5.56,-17.69 z"
           style="fill:#000000;fill-opacity:1;fill-rule:evenodd;stroke:none"
           id="path1089" /><path
           d="m 1451.47,3973.99 h 8.52 v -72.03 h -8.52 z"
           style="fill:#000000;fill-opacity:1;fill-rule:evenodd;stroke:none"
           id="path1091" /><path
           d="m 1551.19,3965.75 v -9.86 c 0,0 -4.72,4.4 -10.09,6.58 0,0 -5.32,2.17 -11.34,2.17 0,0 -11.85,0 -18.15,-7.27 0,0 -6.3,-7.22 -6.3,-20.92 0,0 0,-13.66 6.3,-20.93 0,0 6.3,-7.22 18.15,-7.22 0,0 6.02,0 11.34,2.18 0,0 5.37,2.17 10.09,6.57 v -9.77 c 0,0 -4.9,-3.33 -10.41,-5 0,0 -5.47,-1.67 -11.58,-1.67 0,0 -15.69,0 -24.72,9.59 0,0 -9.03,9.63 -9.03,26.25 0,0 0,16.66 9.03,26.25 0,0 9.03,9.63 24.72,9.63 0,0 6.21,0 11.67,-1.67 0,0 5.51,-1.62 10.32,-4.91 z"
           style="fill:#000000;fill-opacity:1;fill-rule:evenodd;stroke:none"
           id="path1093" /><path
           d="m 1580.22,3947.84 c 0,0 -6.85,0 -10.83,-5.37 0,0 -3.98,-5.33 -3.98,-14.63 0,0 0,-9.31 3.93,-14.68 0,0 3.98,-5.32 10.88,-5.32 0,0 6.81,0 10.79,5.37 0,0 3.98,5.37 3.98,14.63 0,0 0,9.21 -3.98,14.58 0,0 -3.98,5.42 -10.79,5.42 m 0,7.22 c 0,0 11.11,0 17.45,-7.22 0,0 6.35,-7.23 6.35,-20 0,0 0,-12.74 -6.35,-20 0,0 -6.34,-7.23 -17.45,-7.23 0,0 -11.16,0 -17.5,7.23 0,0 -6.3,7.26 -6.3,20 0,0 0,12.77 6.3,20 0,0 6.34,7.22 17.5,7.22 z"
           style="fill:#000000;fill-opacity:1;fill-rule:evenodd;stroke:none"
           id="path1095" /><path
           d="m 1653.32,3943.85 c 0,0 3.2,5.75 7.64,8.48 0,0 4.45,2.73 10.46,2.73 0,0 8.11,0 12.5,-5.7 0,0 4.4,-5.64 4.4,-16.11 v -31.29 h -8.56 v 31.02 c 0,0 0,7.45 -2.64,11.06 0,0 -2.64,3.61 -8.06,3.61 0,0 -6.62,0 -10.46,-4.4 0,0 -3.84,-4.4 -3.84,-11.99 v -29.3 h -8.57 v 31.02 c 0,0 0,7.5 -2.64,11.06 0,0 -2.63,3.61 -8.14,3.61 0,0 -6.53,0 -10.37,-4.44 0,0 -3.85,-4.4 -3.85,-11.95 v -29.3 h -8.56 v 51.85 h 8.56 v -8.06 c 0,0 2.92,4.77 6.99,7.04 0,0 4.08,2.27 9.68,2.27 0,0 5.65,0 9.58,-2.87 0,0 3.98,-2.87 5.88,-8.34 z"
           style="fill:#000000;fill-opacity:1;fill-rule:evenodd;stroke:none"
           id="path1097" /><path
           d="m 1705.5,3909.73 v -27.5 h -8.57 v 71.58 h 8.57 v -7.87 c 0,0 2.68,4.63 6.76,6.85 0,0 4.12,2.27 9.81,2.27 0,0 9.45,0 15.33,-7.5 0,0 5.92,-7.5 5.92,-19.72 0,0 0,-12.23 -5.92,-19.73 0,0 -5.88,-7.5 -15.33,-7.5 0,0 -5.69,0 -9.81,2.23 0,0 -4.08,2.26 -6.76,6.89 m 28.98,18.11 c 0,0 0,9.39 -3.89,14.72 0,0 -3.84,5.37 -10.6,5.37 0,0 -6.76,0 -10.65,-5.37 0,0 -3.84,-5.33 -3.84,-14.72 0,0 0,-9.4 3.84,-14.77 0,0 3.89,-5.33 10.65,-5.33 0,0 6.76,0 10.6,5.33 0,0 3.89,5.37 3.89,14.77 z"
           style="fill:#000000;fill-opacity:1;fill-rule:evenodd;stroke:none"
           id="path1099" /><path
           d="m 1772.35,3947.84 c 0,0 -6.85,0 -10.83,-5.37 0,0 -3.99,-5.33 -3.99,-14.63 0,0 0,-9.31 3.94,-14.68 0,0 3.98,-5.32 10.88,-5.32 0,0 6.81,0 10.79,5.37 0,0 3.98,5.37 3.98,14.63 0,0 0,9.21 -3.98,14.58 0,0 -3.98,5.42 -10.79,5.42 m 0,7.22 c 0,0 11.11,0 17.45,-7.22 0,0 6.35,-7.23 6.35,-20 0,0 0,-12.74 -6.35,-20 0,0 -6.34,-7.23 -17.45,-7.23 0,0 -11.16,0 -17.5,7.23 0,0 -6.3,7.26 -6.3,20 0,0 0,12.77 6.3,20 0,0 6.34,7.22 17.5,7.22 z"
           style="fill:#000000;fill-opacity:1;fill-rule:evenodd;stroke:none"
           id="path1101" /><path
           d="m 1848.18,3933.25 v -31.29 h -8.52 v 31.02 c 0,0 0,7.36 -2.87,11.01 0,0 -2.87,3.66 -8.61,3.66 0,0 -6.9,0 -10.88,-4.4 0,0 -3.98,-4.4 -3.98,-11.99 v -29.3 h -8.56 v 51.85 h 8.56 v -8.06 c 0,0 3.06,4.68 7.18,6.99 0,0 4.16,2.32 9.58,2.32 0,0 8.94,0 13.52,-5.56 0,0 4.58,-5.51 4.58,-16.25 z"
           style="fill:#000000;fill-opacity:1;fill-rule:evenodd;stroke:none"
           id="path1103" /><path
           d="m 1901.47,3930.01 v -4.16 h -39.17 c 0,0 0.56,-8.8 5.28,-13.43 0,0 4.77,-4.58 13.24,-4.58 0,0 4.91,0 9.49,1.2 0,0 4.63,1.2 9.17,3.61 v -8.05 c 0,0 -4.58,-1.95 -9.4,-2.97 0,0 -4.81,-1.02 -9.77,-1.02 0,0 -12.41,0 -19.67,7.23 0,0 -7.23,7.22 -7.23,19.53 0,0 0,12.73 6.86,20.19 0,0 6.89,7.5 18.56,7.5 0,0 10.46,0 16.53,-6.76 0,0 6.11,-6.71 6.11,-18.29 m -8.52,2.5 c 0,0 -0.09,6.99 -3.93,11.16 0,0 -3.8,4.17 -10.1,4.17 0,0 -7.13,0 -11.43,-4.03 0,0 -4.26,-4.03 -4.91,-11.34 z"
           style="fill:#000000;fill-opacity:1;fill-rule:evenodd;stroke:none"
           id="path1105" /><path
           d="m 1953.51,3933.25 v -31.29 h -8.52 v 31.02 c 0,0 0,7.36 -2.87,11.01 0,0 -2.87,3.66 -8.61,3.66 0,0 -6.9,0 -10.88,-4.4 0,0 -3.98,-4.4 -3.98,-11.99 v -29.3 h -8.57 v 51.85 h 8.57 v -8.06 c 0,0 3.05,4.68 7.17,6.99 0,0 4.17,2.32 9.58,2.32 0,0 8.94,0 13.52,-5.56 0,0 4.59,-5.51 4.59,-16.25 z"
           style="fill:#000000;fill-opacity:1;fill-rule:evenodd;stroke:none"
           id="path1107" /><path
           d="m 1970.87,3968.53 v -14.72 h 17.54 v -6.62 h -17.54 v -28.15 c 0,0 0,-6.34 1.71,-8.15 0,0 1.76,-1.8 7.08,-1.8 h 8.75 v -7.13 h -8.75 c 0,0 -9.86,0 -13.61,3.65 0,0 -3.75,3.71 -3.75,13.43 v 28.15 h -6.25 v 6.62 h 6.25 v 14.72 z"
           style="fill:#000000;fill-opacity:1;fill-rule:evenodd;stroke:none"
           id="path1109" /><path
           d="M 735.7,3815.56 H 888.98"
           style="fill:none;stroke:#e36f47;stroke-width:8;stroke-linecap:butt;stroke-linejoin:miter;stroke-miterlimit:10;stroke-dasharray:none;stroke-opacity:1"
           id="path1111" /><path
           d="m 959.02,3847.85 v -9.12 c 0,0 -5.32,2.54 -10.05,3.79 0,0 -4.72,1.25 -9.12,1.25 0,0 -7.63,0 -11.8,-2.96 0,0 -4.12,-2.96 -4.12,-8.42 0,0 0,-4.59 2.73,-6.95 0,0 2.78,-2.31 10.46,-3.75 l 5.65,-1.16 c 0,0 10.46,-1.99 15.42,-7.03 0,0 5,-5 5,-13.43 0,0 0,-10.05 -6.76,-15.23 0,0 -6.71,-5.19 -19.72,-5.19 0,0 -4.91,0 -10.47,1.12 0,0 -5.51,1.11 -11.43,3.28 v 9.63 c 0,0 5.69,-3.19 11.16,-4.81 0,0 5.46,-1.62 10.74,-1.62 0,0 8.01,0 12.36,3.14 0,0 4.35,3.15 4.35,8.99 0,0 0,5.09 -3.15,7.96 0,0 -3.1,2.87 -10.23,4.3 l -5.7,1.12 c 0,0 -10.46,2.08 -15.13,6.52 0,0 -4.68,4.45 -4.68,12.36 0,0 0,9.17 6.44,14.45 0,0 6.48,5.28 17.82,5.28 0,0 4.86,0 9.91,-0.88 0,0 5.04,-0.88 10.32,-2.64 z"
           style="fill:#000000;fill-opacity:1;fill-rule:evenodd;stroke:none"
           id="path1113" /><path
           d="m 1016.47,3809.05 v -4.16 h -39.16 c 0,0 0.55,-8.8 5.28,-13.43 0,0 4.76,-4.58 13.24,-4.58 0,0 4.9,0 9.49,1.2 0,0 4.63,1.2 9.16,3.61 v -8.05 c 0,0 -4.58,-1.95 -9.39,-2.97 0,0 -4.82,-1.02 -9.77,-1.02 0,0 -12.41,0 -19.68,7.23 0,0 -7.22,7.22 -7.22,19.53 0,0 0,12.73 6.85,20.19 0,0 6.9,7.5 18.57,7.5 0,0 10.46,0 16.52,-6.76 0,0 6.11,-6.71 6.11,-18.29 m -8.51,2.5 c 0,0 -0.1,6.99 -3.94,11.16 0,0 -3.8,4.17 -10.09,4.17 0,0 -7.13,0 -11.44,-4.03 0,0 -4.26,-4.03 -4.9,-11.34 z"
           style="fill:#000000;fill-opacity:1;fill-rule:evenodd;stroke:none"
           id="path1115" /><path
           d="m 1062.72,3830.86 v -7.97 c 0,0 -3.61,2 -7.26,2.97 0,0 -3.62,1.02 -7.32,1.02 0,0 -8.29,0 -12.87,-5.28 0,0 -4.58,-5.23 -4.58,-14.72 0,0 0,-9.49 4.58,-14.77 0,0 4.58,-5.23 12.87,-5.23 0,0 3.7,0 7.32,0.97 0,0 3.65,1.02 7.26,3.01 v -7.87 c 0,0 -3.56,-1.67 -7.4,-2.5 0,0 -3.8,-0.84 -8.11,-0.84 0,0 -11.71,0 -18.61,7.37 0,0 -6.89,7.36 -6.89,19.86 0,0 0,12.68 6.94,19.95 0,0 6.99,7.27 19.12,7.27 0,0 3.94,0 7.69,-0.83 0,0 3.75,-0.79 7.26,-2.41 z"
           style="fill:#000000;fill-opacity:1;fill-rule:evenodd;stroke:none"
           id="path1117" /><path
           d="m 1091.75,3826.88 c 0,0 -6.85,0 -10.83,-5.37 0,0 -3.98,-5.33 -3.98,-14.63 0,0 0,-9.31 3.93,-14.68 0,0 3.98,-5.32 10.88,-5.32 0,0 6.81,0 10.79,5.37 0,0 3.98,5.37 3.98,14.63 0,0 0,9.21 -3.98,14.58 0,0 -3.98,5.42 -10.79,5.42 m 0,7.22 c 0,0 11.11,0 17.45,-7.22 0,0 6.35,-7.23 6.35,-20 0,0 0,-12.74 -6.35,-20 0,0 -6.34,-7.23 -17.45,-7.23 0,0 -11.16,0 -17.5,7.23 0,0 -6.29,7.26 -6.29,20 0,0 0,12.77 6.29,20 0,0 6.34,7.22 17.5,7.22 z"
           style="fill:#000000;fill-opacity:1;fill-rule:evenodd;stroke:none"
           id="path1119" /><path
           d="M 1167.58,3812.29 V 3781 h -8.51 v 31.02 c 0,0 0,7.36 -2.87,11.01 0,0 -2.87,3.66 -8.62,3.66 0,0 -6.89,0 -10.88,-4.4 0,0 -3.98,-4.4 -3.98,-11.99 V 3781 h -8.56 v 51.85 h 8.56 v -8.06 c 0,0 3.06,4.68 7.18,6.99 0,0 4.17,2.32 9.58,2.32 0,0 8.94,0 13.52,-5.56 0,0 4.58,-5.51 4.58,-16.25 z"
           style="fill:#000000;fill-opacity:1;fill-rule:evenodd;stroke:none"
           id="path1121" /><path
           d="m 1210.64,3824.98 v 28.05 h 8.52 V 3781 h -8.52 v 7.77 c 0,0 -2.69,-4.63 -6.81,-6.89 0,0 -4.07,-2.23 -9.81,-2.23 0,0 -9.4,0 -15.32,7.5 0,0 -5.88,7.5 -5.88,19.73 0,0 0,12.22 5.88,19.72 0,0 5.92,7.5 15.32,7.5 0,0 5.74,0 9.81,-2.27 0,0 4.12,-2.22 6.81,-6.85 m -29.03,-18.1 c 0,0 0,-9.4 3.84,-14.77 0,0 3.89,-5.33 10.65,-5.33 0,0 6.76,0 10.65,5.33 0,0 3.89,5.37 3.89,14.77 0,0 0,9.39 -3.89,14.72 0,0 -3.89,5.37 -10.65,5.37 0,0 -6.76,0 -10.65,-5.37 0,0 -3.84,-5.33 -3.84,-14.72 z"
           style="fill:#000000;fill-opacity:1;fill-rule:evenodd;stroke:none"
           id="path1123" /><path
           d="M 735.7,3694.6 H 888.98"
           style="fill:none;stroke:#3ea44e;stroke-width:8;stroke-linecap:butt;stroke-linejoin:miter;stroke-miterlimit:10;stroke-dasharray:none;stroke-opacity:1"
           id="path1125" /><path
           d="M 914.53,3729.16 H 973 v -7.87 h -24.53 v -61.25 h -9.4 v 61.25 h -24.54 z"
           style="fill:#000000;fill-opacity:1;fill-rule:evenodd;stroke:none"
           id="path1127" /><path
           d="m 1025.04,3691.33 v -31.29 h -8.52 v 31.02 c 0,0 0,7.36 -2.87,11.01 0,0 -2.87,3.66 -8.61,3.66 0,0 -6.9,0 -10.88,-4.4 0,0 -3.98,-4.4 -3.98,-11.99 v -29.3 h -8.57 v 72.03 h 8.57 v -28.24 c 0,0 3.05,4.68 7.17,6.99 0,0 4.17,2.32 9.59,2.32 0,0 8.93,0 13.52,-5.56 0,0 4.58,-5.51 4.58,-16.25 z"
           style="fill:#000000;fill-opacity:1;fill-rule:evenodd;stroke:none"
           id="path1129" /><path
           d="m 1033.97,3711.89 h 8.52 v -51.85 h -8.52 v 51.85 m 0,20.18 h 8.52 v -10.78 h -8.52 z"
           style="fill:#000000;fill-opacity:1;fill-rule:evenodd;stroke:none"
           id="path1131" /><path
           d="m 1081.47,3703.93 c 0,0 -1.43,0.83 -3.14,1.2 0,0 -1.67,0.42 -3.71,0.42 0,0 -7.22,0 -11.11,-4.73 0,0 -3.84,-4.67 -3.84,-13.47 v -27.31 h -8.57 v 51.85 h 8.57 v -8.06 c 0,0 2.68,4.73 6.99,6.99 0,0 4.3,2.32 10.46,2.32 0,0 0.88,0 1.95,-0.14 0,0 1.06,-0.09 2.36,-0.32 z"
           style="fill:#000000;fill-opacity:1;fill-rule:evenodd;stroke:none"
           id="path1133" /><path
           d="m 1122.86,3704.02 v 28.05 h 8.52 v -72.03 h -8.52 v 7.77 c 0,0 -2.68,-4.63 -6.8,-6.89 0,0 -4.08,-2.23 -9.82,-2.23 0,0 -9.4,0 -15.32,7.5 0,0 -5.88,7.5 -5.88,19.73 0,0 0,12.22 5.88,19.72 0,0 5.92,7.5 15.32,7.5 0,0 5.74,0 9.82,-2.27 0,0 4.12,-2.22 6.8,-6.85 m -29.03,-18.1 c 0,0 0,-9.4 3.85,-14.77 0,0 3.89,-5.33 10.65,-5.33 0,0 6.75,0 10.64,5.33 0,0 3.89,5.37 3.89,14.77 0,0 0,9.39 -3.89,14.72 0,0 -3.89,5.37 -10.64,5.37 0,0 -6.76,0 -10.65,-5.37 0,0 -3.85,-5.33 -3.85,-14.72 z"
           style="fill:#000000;fill-opacity:1;fill-rule:evenodd;stroke:none"
           id="path1135" /></g></g></g></svg>
