<?xml version="1.0" encoding="UTF-8" standalone="no"?>
<svg
   xmlns:dc="http://purl.org/dc/elements/1.1/"
   xmlns:cc="http://creativecommons.org/ns#"
   xmlns:rdf="http://www.w3.org/1999/02/22-rdf-syntax-ns#"
   xmlns:svg="http://www.w3.org/2000/svg"
   xmlns="http://www.w3.org/2000/svg"
   xmlns:sodipodi="http://sodipodi.sourceforge.net/DTD/sodipodi-0.dtd"
   xmlns:inkscape="http://www.inkscape.org/namespaces/inkscape"
   inkscape:version="1.0 (4035a4fb49, 2020-05-01)"
   sodipodi:docname="impedance_PCA_gain_lines_9329.svg"
   viewBox="0 0 4475.2915 3700.3467"
   height="3700.3467"
   width="4475.2915"
   xml:space="preserve"
   id="svg1908"
   version="1.1"><metadata
     id="metadata1914"><rdf:RDF><cc:Work
         rdf:about=""><dc:format>image/svg+xml</dc:format><dc:type
           rdf:resource="http://purl.org/dc/dcmitype/StillImage" /><dc:title></dc:title></cc:Work></rdf:RDF></metadata><defs
     id="defs1912"><clipPath
       id="clipPath1922"
       clipPathUnits="userSpaceOnUse"><path
         id="path1920"
         d="M 0,0 H 6000 V 6000 H 0 Z" /></clipPath><clipPath
       id="clipPath1930"
       clipPathUnits="userSpaceOnUse"><path
         id="path1928"
         d="M 0,0 H 6000 V 6000 H 0 Z" /></clipPath><clipPath
       id="clipPath1940"
       clipPathUnits="userSpaceOnUse"><path
         id="path1938"
         d="M 0,0 H 6000 V 6000 H 0 Z" /></clipPath><clipPath
       id="clipPath2132"
       clipPathUnits="userSpaceOnUse"><path
         id="path2130"
         d="M 0,0 H 6000 V 6000 H 0 Z" /></clipPath><clipPath
       id="clipPath2218"
       clipPathUnits="userSpaceOnUse"><path
         id="path2216"
         d="M 0,0 H 6000 V 6000 H 0 Z" /></clipPath><clipPath
       id="clipPath2440"
       clipPathUnits="userSpaceOnUse"><path
         id="path2438"
         d="M 0,0 H 6000 V 6000 H 0 Z" /></clipPath><clipPath
       id="clipPath2512"
       clipPathUnits="userSpaceOnUse"><path
         id="path2510"
         d="M 0,0 H 6000 V 6000 H 0 Z" /></clipPath><clipPath
       id="clipPath2722"
       clipPathUnits="userSpaceOnUse"><path
         id="path2720"
         d="M 0,0 H 6000 V 6000 H 0 Z" /></clipPath><clipPath
       id="clipPath2912"
       clipPathUnits="userSpaceOnUse"><path
         id="path2910"
         d="M 0,0 H 6000 V 6000 H 0 Z" /></clipPath></defs><sodipodi:namedview
     inkscape:current-layer="g1918"
     inkscape:window-maximized="1"
     inkscape:window-y="-11"
     inkscape:window-x="-11"
     inkscape:cy="2414.8707"
     inkscape:cx="2720.8099"
     inkscape:zoom="0.2565"
     fit-margin-bottom="0"
     fit-margin-right="0"
     fit-margin-left="0"
     fit-margin-top="0"
     showgrid="false"
     id="namedview1910"
     inkscape:window-height="2126"
     inkscape:window-width="3840"
     inkscape:pageshadow="2"
     inkscape:pageopacity="0"
     guidetolerance="10"
     gridtolerance="10"
     objecttolerance="10"
     borderopacity="1"
     bordercolor="#666666"
     pagecolor="#ffffff" /><g
     transform="matrix(1.3333333,0,0,-1.3333333,-149.97333,7974.5465)"
     inkscape:label="impedance_PCA_gain_lines_9329"
     inkscape:groupmode="layer"
     id="g1916"><g
       clip-path="url(#clipPath1922)"
       id="g1918"><path
         id="path1944"
         style="fill:none;stroke:#000000;stroke-width:4;stroke-linecap:butt;stroke-linejoin:miter;stroke-miterlimit:10;stroke-dasharray:none;stroke-opacity:0.0980392"
         d="M 698.58,3500.57 V 5692.58" /><path
         id="path1946"
         style="fill:none;stroke:#000000;stroke-width:4;stroke-linecap:butt;stroke-linejoin:miter;stroke-miterlimit:10;stroke-dasharray:none;stroke-opacity:0.0980392"
         d="M 1263.45,3500.57 V 5692.58" /><path
         id="path1948"
         style="fill:none;stroke:#000000;stroke-width:4;stroke-linecap:butt;stroke-linejoin:miter;stroke-miterlimit:10;stroke-dasharray:none;stroke-opacity:0.0980392"
         d="M 1828.32,3500.57 V 5692.58" /><path
         id="path1950"
         style="fill:none;stroke:#000000;stroke-width:4;stroke-linecap:butt;stroke-linejoin:miter;stroke-miterlimit:10;stroke-dasharray:none;stroke-opacity:0.0980392"
         d="M 2393.19,3500.57 V 5692.58" /><path
         id="path1952"
         style="fill:none;stroke:#000000;stroke-width:8;stroke-linecap:butt;stroke-linejoin:miter;stroke-miterlimit:10;stroke-dasharray:none;stroke-opacity:1"
         d="M 633.51,3500.57 H 2932.76" /><path
         id="path1954"
         style="fill:none;stroke:#000000;stroke-width:8;stroke-linecap:butt;stroke-linejoin:miter;stroke-miterlimit:10;stroke-dasharray:none;stroke-opacity:1"
         d="m 698.58,3500.57 v 26.3" /><path
         id="path1956"
         style="fill:none;stroke:#000000;stroke-width:8;stroke-linecap:butt;stroke-linejoin:miter;stroke-miterlimit:10;stroke-dasharray:none;stroke-opacity:1"
         d="m 1263.45,3500.57 v 26.3" /><path
         id="path1958"
         style="fill:none;stroke:#000000;stroke-width:8;stroke-linecap:butt;stroke-linejoin:miter;stroke-miterlimit:10;stroke-dasharray:none;stroke-opacity:1"
         d="m 1828.32,3500.57 v 26.3" /><path
         id="path1960"
         style="fill:none;stroke:#000000;stroke-width:8;stroke-linecap:butt;stroke-linejoin:miter;stroke-miterlimit:10;stroke-dasharray:none;stroke-opacity:1"
         d="m 2393.19,3500.57 v 26.3" /><path
         id="path1962"
         style="fill:#000000;fill-opacity:1;fill-rule:evenodd;stroke:none"
         d="m 661.62,3432.59 c 0,0 -7.23,0 -10.88,-7.13 0,0 -3.61,-7.08 -3.61,-21.34 0,0 0,-14.22 3.61,-21.35 0,0 3.65,-7.08 10.88,-7.08 0,0 7.27,0 10.88,7.08 0,0 3.65,7.13 3.65,21.35 0,0 0,14.26 -3.65,21.34 0,0 -3.61,7.13 -10.88,7.13 m 0,7.41 c 0,0 11.62,0 17.73,-9.22 0,0 6.16,-9.16 6.16,-26.66 0,0 0,-17.46 -6.16,-26.67 0,0 -6.11,-9.17 -17.73,-9.17 0,0 -11.62,0 -17.78,9.17 0,0 -6.11,9.21 -6.11,26.67 0,0 0,17.5 6.11,26.66 0,0 6.16,9.22 17.78,9.22 z" /><path
         id="path1964"
         style="fill:#000000;fill-opacity:1;fill-rule:evenodd;stroke:none"
         d="m 695.64,3381.39 h 9.77 v -11.76 h -9.77 z" /><path
         id="path1966"
         style="fill:#000000;fill-opacity:1;fill-rule:evenodd;stroke:none"
         d="m 735.55,3432.59 c 0,0 -7.22,0 -10.88,-7.13 0,0 -3.61,-7.08 -3.61,-21.34 0,0 0,-14.22 3.61,-21.35 0,0 3.66,-7.08 10.88,-7.08 0,0 7.27,0 10.88,7.08 0,0 3.66,7.13 3.66,21.35 0,0 0,14.26 -3.66,21.34 0,0 -3.61,7.13 -10.88,7.13 m 0,7.41 c 0,0 11.62,0 17.73,-9.22 0,0 6.16,-9.16 6.16,-26.66 0,0 0,-17.46 -6.16,-26.67 0,0 -6.11,-9.17 -17.73,-9.17 0,0 -11.62,0 -17.78,9.17 0,0 -6.11,9.21 -6.11,26.67 0,0 0,17.5 6.11,26.66 0,0 6.16,9.22 17.78,9.22 z" /><path
         id="path1968"
         style="fill:#000000;fill-opacity:1;fill-rule:evenodd;stroke:none"
         d="m 1227.48,3432.59 c 0,0 -7.22,0 -10.88,-7.13 0,0 -3.61,-7.08 -3.61,-21.34 0,0 0,-14.22 3.61,-21.35 0,0 3.66,-7.08 10.88,-7.08 0,0 7.27,0 10.88,7.08 0,0 3.66,7.13 3.66,21.35 0,0 0,14.26 -3.66,21.34 0,0 -3.61,7.13 -10.88,7.13 m 0,7.41 c 0,0 11.62,0 17.73,-9.22 0,0 6.16,-9.16 6.16,-26.66 0,0 0,-17.46 -6.16,-26.67 0,0 -6.11,-9.17 -17.73,-9.17 0,0 -11.62,0 -17.78,9.17 0,0 -6.11,9.21 -6.11,26.67 0,0 0,17.5 6.11,26.66 0,0 6.16,9.22 17.78,9.22 z" /><path
         id="path1970"
         style="fill:#000000;fill-opacity:1;fill-rule:evenodd;stroke:none"
         d="m 1261.51,3381.39 h 9.77 v -11.76 h -9.77 z" /><path
         id="path1972"
         style="fill:#000000;fill-opacity:1;fill-rule:evenodd;stroke:none"
         d="m 1281.51,3438.75 h 36.71 v -7.87 h -28.15 v -16.95 c 0,0 2.04,0.7 4.08,1.02 0,0 2.04,0.37 4.07,0.37 0,0 11.58,0 18.34,-6.34 0,0 6.75,-6.35 6.75,-17.18 0,0 0,-11.16 -6.94,-17.36 0,0 -6.94,-6.16 -19.58,-6.16 0,0 -4.35,0 -8.89,0.74 0,0 -4.49,0.74 -9.31,2.23 v 9.39 c 0,0 4.17,-2.26 8.61,-3.38 0,0 4.45,-1.11 9.4,-1.11 0,0 8.01,0 12.69,4.22 0,0 4.67,4.21 4.67,11.43 0,0 0,7.22 -4.67,11.44 0,0 -4.68,4.21 -12.69,4.21 0,0 -3.75,0 -7.5,-0.83 0,0 -3.7,-0.84 -7.59,-2.6 z" /><path
         id="path1974"
         style="fill:#000000;fill-opacity:1;fill-rule:evenodd;stroke:none"
         d="m 1772.12,3377.5 h 15.28 v 52.73 l -16.62,-3.34 v 8.52 l 16.53,3.34 h 9.35 v -61.25 h 15.27 v -7.87 h -39.81 z" /><path
         id="path1976"
         style="fill:#000000;fill-opacity:1;fill-rule:evenodd;stroke:none"
         d="m 1822.07,3381.39 h 9.77 v -11.76 h -9.77 z" /><path
         id="path1978"
         style="fill:#000000;fill-opacity:1;fill-rule:evenodd;stroke:none"
         d="m 1861.98,3432.59 c 0,0 -7.22,0 -10.88,-7.13 0,0 -3.61,-7.08 -3.61,-21.34 0,0 0,-14.22 3.61,-21.35 0,0 3.66,-7.08 10.88,-7.08 0,0 7.27,0 10.88,7.08 0,0 3.66,7.13 3.66,21.35 0,0 0,14.26 -3.66,21.34 0,0 -3.61,7.13 -10.88,7.13 m 0,7.41 c 0,0 11.62,0 17.73,-9.22 0,0 6.16,-9.16 6.16,-26.66 0,0 0,-17.46 -6.16,-26.67 0,0 -6.11,-9.17 -17.73,-9.17 0,0 -11.62,0 -17.78,9.17 0,0 -6.11,9.21 -6.11,26.67 0,0 0,17.5 6.11,26.66 0,0 6.16,9.22 17.78,9.22 z" /><path
         id="path1980"
         style="fill:#000000;fill-opacity:1;fill-rule:evenodd;stroke:none"
         d="m 2337.99,3377.5 h 15.27 v 52.73 l -16.62,-3.34 v 8.52 l 16.53,3.34 h 9.35 v -61.25 h 15.28 v -7.87 h -39.81 z" /><path
         id="path1982"
         style="fill:#000000;fill-opacity:1;fill-rule:evenodd;stroke:none"
         d="m 2387.94,3381.39 h 9.77 v -11.76 h -9.77 z" /><path
         id="path1984"
         style="fill:#000000;fill-opacity:1;fill-rule:evenodd;stroke:none"
         d="m 2407.94,3438.75 h 36.71 v -7.87 h -28.15 v -16.95 c 0,0 2.04,0.7 4.08,1.02 0,0 2.03,0.37 4.07,0.37 0,0 11.58,0 18.33,-6.34 0,0 6.76,-6.35 6.76,-17.18 0,0 0,-11.16 -6.94,-17.36 0,0 -6.94,-6.16 -19.58,-6.16 0,0 -4.36,0 -8.89,0.74 0,0 -4.49,0.74 -9.31,2.23 v 9.39 c 0,0 4.17,-2.26 8.61,-3.38 0,0 4.45,-1.11 9.4,-1.11 0,0 8.01,0 12.69,4.22 0,0 4.67,4.21 4.67,11.43 0,0 0,7.22 -4.67,11.44 0,0 -4.68,4.21 -12.69,4.21 0,0 -3.75,0 -7.5,-0.83 0,0 -3.7,-0.84 -7.59,-2.6 z" /><path
         id="path1986"
         style="fill:#000000;fill-opacity:1;fill-rule:evenodd;stroke:none"
         d="m 1412.52,3317.88 h 80.4 v -10.82 h -33.74 v -84.22 h -12.92 v 84.22 h -33.74 z" /><path
         id="path1988"
         style="fill:#000000;fill-opacity:1;fill-rule:evenodd;stroke:none"
         d="m 1501.2,3294.14 h 11.71 v -71.3 h -11.71 v 71.3 m 0,27.75 h 11.71 v -14.83 h -11.71 z" /><path
         id="path1990"
         style="fill:#000000;fill-opacity:1;fill-rule:evenodd;stroke:none"
         d="m 1580.7,3280.45 c 0,0 4.4,7.9 10.51,11.65 0,0 6.11,3.76 14.38,3.76 0,0 11.14,0 17.19,-7.83 0,0 6.05,-7.77 6.05,-22.16 v -43.03 h -11.78 v 42.65 c 0,0 0,10.25 -3.63,15.22 0,0 -3.62,4.96 -11.07,4.96 0,0 -9.1,0 -14.39,-6.05 0,0 -5.28,-6.04 -5.28,-16.48 v -40.3 h -11.78 v 42.65 c 0,0 0,10.31 -3.63,15.22 0,0 -3.63,4.96 -11.2,4.96 0,0 -8.98,0 -14.26,-6.11 0,0 -5.28,-6.05 -5.28,-16.42 v -40.3 h -11.78 v 71.3 h 11.78 v -11.08 c 0,0 4.01,6.56 9.61,9.68 0,0 5.6,3.12 13.3,3.12 0,0 7.77,0 13.18,-3.95 0,0 5.47,-3.95 8.08,-11.46 z" /><path
         id="path1992"
         style="fill:#000000;fill-opacity:1;fill-rule:evenodd;stroke:none"
         d="m 1702.1,3261.42 v -5.73 h -53.86 c 0,0 0.77,-12.1 7.26,-18.46 0,0 6.56,-6.3 18.21,-6.3 0,0 6.75,0 13.05,1.65 0,0 6.36,1.66 12.6,4.97 v -11.08 c 0,0 -6.3,-2.67 -12.92,-4.07 0,0 -6.62,-1.4 -13.43,-1.4 0,0 -17.06,0 -27.06,9.93 0,0 -9.93,9.93 -9.93,26.86 0,0 0,17.51 9.42,27.75 0,0 9.49,10.32 25.53,10.32 0,0 14.39,0 22.73,-9.3 0,0 8.4,-9.23 8.4,-25.14 m -11.71,3.44 c 0,0 -0.13,9.61 -5.42,15.34 0,0 -5.22,5.73 -13.87,5.73 0,0 -9.81,0 -15.73,-5.54 0,0 -5.85,-5.54 -6.74,-15.6 z" /><path
         id="path1994"
         style="fill:#000000;fill-opacity:1;fill-rule:evenodd;stroke:none"
         d="m 1783.96,3321.76 c 0,0 -8.53,-14.64 -12.67,-28.96 0,0 -4.13,-14.32 -4.13,-29.03 0,0 0,-14.7 4.13,-29.15 0,0 4.21,-14.39 12.67,-28.97 h -10.18 c 0,0 -9.55,14.96 -14.33,29.41 0,0 -4.71,14.45 -4.71,28.71 0,0 0,14.2 4.71,28.59 0,0 4.71,14.38 14.33,29.4 z" /><path
         id="path1996"
         style="fill:#000000;fill-opacity:1;fill-rule:evenodd;stroke:none"
         d="m 1855.51,3265.87 v -43.03 h -11.71 v 42.65 c 0,0 0,10.12 -3.95,15.15 0,0 -3.94,5.03 -11.84,5.03 0,0 -9.48,0 -14.96,-6.05 0,0 -5.47,-6.04 -5.47,-16.48 v -40.3 h -11.78 v 99.05 h 11.78 v -38.83 c 0,0 4.2,6.43 9.87,9.61 0,0 5.72,3.19 13.17,3.19 0,0 12.29,0 18.59,-7.64 0,0 6.3,-7.58 6.3,-22.35 z" /><path
         id="path1998"
         style="fill:#000000;fill-opacity:1;fill-rule:evenodd;stroke:none"
         d="m 1895.43,3285.93 c 0,0 -9.43,0 -14.9,-7.39 0,0 -5.48,-7.32 -5.48,-20.11 0,0 0,-12.8 5.42,-20.18 0,0 5.47,-7.32 14.96,-7.32 0,0 9.35,0 14.83,7.38 0,0 5.47,7.38 5.47,20.12 0,0 0,12.66 -5.47,20.05 0,0 -5.48,7.45 -14.83,7.45 m 0,9.93 c 0,0 15.27,0 23.99,-9.93 0,0 8.72,-9.93 8.72,-27.5 0,0 0,-17.51 -8.72,-27.5 0,0 -8.72,-9.93 -23.99,-9.93 0,0 -15.35,0 -24.07,9.93 0,0 -8.65,9.99 -8.65,27.5 0,0 0,17.57 8.65,27.5 0,0 8.72,9.93 24.07,9.93 z" /><path
         id="path2000"
         style="fill:#000000;fill-opacity:1;fill-rule:evenodd;stroke:none"
         d="m 1939.22,3250.98 v 43.16 h 11.71 v -42.72 c 0,0 0,-10.12 3.95,-15.21 0,0 3.95,-5.03 11.84,-5.03 0,0 9.49,0 14.96,6.05 0,0 5.54,6.05 5.54,16.49 v 40.42 h 11.71 v -71.3 h -11.71 v 10.95 c 0,0 -4.27,-6.49 -9.93,-9.67 0,0 -5.6,-3.12 -13.05,-3.12 0,0 -12.29,0 -18.65,7.63 0,0 -6.37,7.64 -6.37,22.35 m 29.47,44.88 z" /><path
         id="path2002"
         style="fill:#000000;fill-opacity:1;fill-rule:evenodd;stroke:none"
         d="m 2052.53,3283.19 c 0,0 -1.97,1.14 -4.33,1.65 0,0 -2.29,0.58 -5.09,0.58 0,0 -9.93,0 -15.28,-6.5 0,0 -5.28,-6.43 -5.28,-18.52 v -37.56 h -11.78 v 71.3 h 11.78 v -11.08 c 0,0 3.69,6.49 9.61,9.61 0,0 5.92,3.19 14.39,3.19 0,0 1.21,0 2.67,-0.19 0,0 1.46,-0.13 3.25,-0.45 z" /><path
         id="path2004"
         style="fill:#000000;fill-opacity:1;fill-rule:evenodd;stroke:none"
         d="m 2110.27,3292.04 v -11.08 c 0,0 -4.97,2.55 -10.31,3.82 0,0 -5.35,1.27 -11.08,1.27 0,0 -8.72,0 -13.11,-2.67 0,0 -4.33,-2.67 -4.33,-8.02 0,0 0,-4.08 3.12,-6.43 0,0 3.12,-2.29 12.54,-4.39 l 4.01,-0.89 c 0,0 12.47,-2.68 17.69,-7.58 0,0 5.29,-4.84 5.29,-13.56 0,0 0,-9.93 -7.9,-15.72 0,0 -7.83,-5.79 -21.58,-5.79 0,0 -5.73,0 -11.96,1.14 0,0 -6.18,1.08 -13.05,3.31 v 12.1 c 0,0 6.49,-3.38 12.79,-5.1 0,0 6.3,-1.65 12.48,-1.65 0,0 8.27,0 12.73,2.8 0,0 4.46,2.86 4.46,8.02 0,0 0,4.78 -3.25,7.32 0,0 -3.18,2.55 -14.07,4.9 l -4.07,0.96 c 0,0 -10.89,2.29 -15.73,7 0,0 -4.83,4.77 -4.83,13.05 0,0 0,10.06 7.13,15.53 0,0 7.13,5.48 20.24,5.48 0,0 6.49,0 12.22,-0.96 0,0 5.73,-0.95 10.57,-2.86 z" /><path
         id="path2006"
         style="fill:#000000;fill-opacity:1;fill-rule:evenodd;stroke:none"
         d="m 2124.53,3321.76 h 10.18 c 0,0 9.55,-15.02 14.26,-29.4 0,0 4.78,-14.39 4.78,-28.59 0,0 0,-14.26 -4.78,-28.71 0,0 -4.71,-14.45 -14.26,-29.41 h -10.18 c 0,0 8.46,14.58 12.6,28.97 0,0 4.2,14.45 4.2,29.15 0,0 0,14.71 -4.2,29.03 0,0 -4.14,14.32 -12.6,28.96 z" /><path
         id="path2008"
         style="fill:none;stroke:#000000;stroke-width:4;stroke-linecap:butt;stroke-linejoin:miter;stroke-miterlimit:10;stroke-dasharray:none;stroke-opacity:0.0980392"
         d="M 633.51,3769.28 H 2932.76" /><path
         id="path2010"
         style="fill:none;stroke:#000000;stroke-width:4;stroke-linecap:butt;stroke-linejoin:miter;stroke-miterlimit:10;stroke-dasharray:none;stroke-opacity:0.0980392"
         d="M 633.51,4225.75 H 2932.76" /><path
         id="path2012"
         style="fill:none;stroke:#000000;stroke-width:4;stroke-linecap:butt;stroke-linejoin:miter;stroke-miterlimit:10;stroke-dasharray:none;stroke-opacity:0.0980392"
         d="M 633.51,4682.23 H 2932.76" /><path
         id="path2014"
         style="fill:none;stroke:#000000;stroke-width:4;stroke-linecap:butt;stroke-linejoin:miter;stroke-miterlimit:10;stroke-dasharray:none;stroke-opacity:0.0980392"
         d="M 633.51,5138.7 H 2932.76" /><path
         id="path2016"
         style="fill:none;stroke:#000000;stroke-width:4;stroke-linecap:butt;stroke-linejoin:miter;stroke-miterlimit:10;stroke-dasharray:none;stroke-opacity:0.0980392"
         d="M 633.51,5595.17 H 2932.76" /><path
         id="path2018"
         style="fill:none;stroke:#000000;stroke-width:8;stroke-linecap:butt;stroke-linejoin:miter;stroke-miterlimit:10;stroke-dasharray:none;stroke-opacity:1"
         d="M 633.51,3500.57 V 5692.58" /><path
         id="path2020"
         style="fill:none;stroke:#000000;stroke-width:8;stroke-linecap:butt;stroke-linejoin:miter;stroke-miterlimit:10;stroke-dasharray:none;stroke-opacity:1"
         d="M 633.51,3769.28 H 661.1" /><path
         id="path2022"
         style="fill:none;stroke:#000000;stroke-width:8;stroke-linecap:butt;stroke-linejoin:miter;stroke-miterlimit:10;stroke-dasharray:none;stroke-opacity:1"
         d="M 633.51,4225.75 H 661.1" /><path
         id="path2024"
         style="fill:none;stroke:#000000;stroke-width:8;stroke-linecap:butt;stroke-linejoin:miter;stroke-miterlimit:10;stroke-dasharray:none;stroke-opacity:1"
         d="M 633.51,4682.23 H 661.1" /><path
         id="path2026"
         style="fill:none;stroke:#000000;stroke-width:8;stroke-linecap:butt;stroke-linejoin:miter;stroke-miterlimit:10;stroke-dasharray:none;stroke-opacity:1"
         d="M 633.51,5138.7 H 661.1" /><path
         id="path2028"
         style="fill:none;stroke:#000000;stroke-width:8;stroke-linecap:butt;stroke-linejoin:miter;stroke-miterlimit:10;stroke-dasharray:none;stroke-opacity:1"
         d="M 633.51,5595.17 H 661.1" /><path
         id="path2030"
         style="fill:#000000;fill-opacity:1;fill-rule:evenodd;stroke:none"
         d="m 271.85,3768.38 h 59.35 v -7.87 h -59.35 z" /><path
         id="path2032"
         style="fill:#000000;fill-opacity:1;fill-rule:evenodd;stroke:none"
         d="m 338.98,3803.84 h 44.44 v -3.98 l -25.09,-65.14 h -9.77 l 23.61,61.25 h -33.19 z" /><path
         id="path2034"
         style="fill:#000000;fill-opacity:1;fill-rule:evenodd;stroke:none"
         d="m 393.65,3803.84 h 36.71 v -7.87 h -28.14 v -16.94 c 0,0 2.03,0.69 4.07,1.02 0,0 2.04,0.37 4.07,0.37 0,0 11.58,0 18.34,-6.35 0,0 6.76,-6.34 6.76,-17.17 0,0 0,-11.16 -6.95,-17.36 0,0 -6.94,-6.16 -19.58,-6.16 0,0 -4.35,0 -8.89,0.74 0,0 -4.49,0.74 -9.31,2.22 v 9.4 c 0,0 4.17,-2.27 8.62,-3.38 0,0 4.44,-1.11 9.39,-1.11 0,0 8.01,0 12.69,4.21 0,0 4.67,4.22 4.67,11.44 0,0 0,7.22 -4.67,11.43 0,0 -4.68,4.22 -12.69,4.22 0,0 -3.75,0 -7.5,-0.84 0,0 -3.7,-0.83 -7.59,-2.59 z" /><path
         id="path2036"
         style="fill:#000000;fill-opacity:1;fill-rule:evenodd;stroke:none"
         d="m 465.59,3797.68 c 0,0 -7.22,0 -10.87,-7.13 0,0 -3.62,-7.08 -3.62,-21.34 0,0 0,-14.21 3.62,-21.34 0,0 3.65,-7.08 10.87,-7.08 0,0 7.27,0 10.88,7.08 0,0 3.66,7.13 3.66,21.34 0,0 0,14.26 -3.66,21.34 0,0 -3.61,7.13 -10.88,7.13 m 0,7.41 c 0,0 11.63,0 17.74,-9.21 0,0 6.15,-9.17 6.15,-26.67 0,0 0,-17.45 -6.15,-26.66 0,0 -6.11,-9.17 -17.74,-9.17 0,0 -11.62,0 -17.77,9.17 0,0 -6.11,9.21 -6.11,26.66 0,0 0,17.5 6.11,26.67 0,0 6.15,9.21 17.77,9.21 z" /><path
         id="path2038"
         style="fill:#000000;fill-opacity:1;fill-rule:evenodd;stroke:none"
         d="m 519.62,3797.68 c 0,0 -7.22,0 -10.88,-7.13 0,0 -3.61,-7.08 -3.61,-21.34 0,0 0,-14.21 3.61,-21.34 0,0 3.66,-7.08 10.88,-7.08 0,0 7.27,0 10.88,7.08 0,0 3.66,7.13 3.66,21.34 0,0 0,14.26 -3.66,21.34 0,0 -3.61,7.13 -10.88,7.13 m 0,7.41 c 0,0 11.62,0 17.73,-9.21 0,0 6.16,-9.17 6.16,-26.67 0,0 0,-17.45 -6.16,-26.66 0,0 -6.11,-9.17 -17.73,-9.17 0,0 -11.62,0 -17.78,9.17 0,0 -6.11,9.21 -6.11,26.66 0,0 0,17.5 6.11,26.67 0,0 6.16,9.21 17.78,9.21 z" /><path
         id="path2040"
         style="fill:#000000;fill-opacity:1;fill-rule:evenodd;stroke:none"
         d="m 270.04,4224.85 h 59.35 v -7.87 h -59.35 z" /><path
         id="path2042"
         style="fill:#000000;fill-opacity:1;fill-rule:evenodd;stroke:none"
         d="m 339.62,4260.31 h 36.72 v -7.87 h -28.15 v -16.94 c 0,0 2.04,0.69 4.07,1.02 0,0 2.04,0.37 4.08,0.37 0,0 11.57,0 18.33,-6.34 0,0 6.76,-6.35 6.76,-17.18 0,0 0,-11.16 -6.95,-17.36 0,0 -6.94,-6.16 -19.58,-6.16 0,0 -4.35,0 -8.89,0.74 0,0 -4.49,0.74 -9.3,2.23 v 9.39 c 0,0 4.16,-2.27 8.61,-3.38 0,0 4.44,-1.11 9.4,-1.11 0,0 8.01,0 12.68,4.22 0,0 4.68,4.21 4.68,11.43 0,0 0,7.22 -4.68,11.44 0,0 -4.67,4.21 -12.68,4.21 0,0 -3.75,0 -7.5,-0.83 0,0 -3.71,-0.84 -7.6,-2.6 z" /><path
         id="path2044"
         style="fill:#000000;fill-opacity:1;fill-rule:evenodd;stroke:none"
         d="m 411.57,4254.16 c 0,0 -7.22,0 -10.88,-7.13 0,0 -3.61,-7.09 -3.61,-21.34 0,0 0,-14.22 3.61,-21.35 0,0 3.66,-7.08 10.88,-7.08 0,0 7.27,0 10.88,7.08 0,0 3.65,7.13 3.65,21.35 0,0 0,14.25 -3.65,21.34 0,0 -3.61,7.13 -10.88,7.13 m 0,7.4 c 0,0 11.62,0 17.73,-9.21 0,0 6.16,-9.16 6.16,-26.66 0,0 0,-17.46 -6.16,-26.67 0,0 -6.11,-9.17 -17.73,-9.17 0,0 -11.62,0 -17.78,9.17 0,0 -6.11,9.21 -6.11,26.67 0,0 0,17.5 6.11,26.66 0,0 6.16,9.21 17.78,9.21 z" /><path
         id="path2046"
         style="fill:#000000;fill-opacity:1;fill-rule:evenodd;stroke:none"
         d="m 465.59,4254.16 c 0,0 -7.22,0 -10.87,-7.13 0,0 -3.62,-7.09 -3.62,-21.34 0,0 0,-14.22 3.62,-21.35 0,0 3.65,-7.08 10.87,-7.08 0,0 7.27,0 10.88,7.08 0,0 3.66,7.13 3.66,21.35 0,0 0,14.25 -3.66,21.34 0,0 -3.61,7.13 -10.88,7.13 m 0,7.4 c 0,0 11.63,0 17.74,-9.21 0,0 6.15,-9.16 6.15,-26.66 0,0 0,-17.46 -6.15,-26.67 0,0 -6.11,-9.17 -17.74,-9.17 0,0 -11.62,0 -17.77,9.17 0,0 -6.11,9.21 -6.11,26.67 0,0 0,17.5 6.11,26.66 0,0 6.15,9.21 17.77,9.21 z" /><path
         id="path2048"
         style="fill:#000000;fill-opacity:1;fill-rule:evenodd;stroke:none"
         d="m 519.62,4254.16 c 0,0 -7.22,0 -10.88,-7.13 0,0 -3.61,-7.09 -3.61,-21.34 0,0 0,-14.22 3.61,-21.35 0,0 3.66,-7.08 10.88,-7.08 0,0 7.27,0 10.88,7.08 0,0 3.66,7.13 3.66,21.35 0,0 0,14.25 -3.66,21.34 0,0 -3.61,7.13 -10.88,7.13 m 0,7.4 c 0,0 11.62,0 17.73,-9.21 0,0 6.16,-9.16 6.16,-26.66 0,0 0,-17.46 -6.16,-26.67 0,0 -6.11,-9.17 -17.73,-9.17 0,0 -11.62,0 -17.78,9.17 0,0 -6.11,9.21 -6.11,26.67 0,0 0,17.5 6.11,26.66 0,0 6.16,9.21 17.78,9.21 z" /><path
         id="path2050"
         style="fill:#000000;fill-opacity:1;fill-rule:evenodd;stroke:none"
         d="m 273.23,4681.33 h 59.36 v -7.88 h -59.36 z" /><path
         id="path2052"
         style="fill:#000000;fill-opacity:1;fill-rule:evenodd;stroke:none"
         d="m 350.78,4655.54 h 32.64 v -7.87 h -43.89 v 7.87 c 0,0 5.32,5.51 14.49,14.77 0,0 9.21,9.3 11.58,11.99 0,0 4.49,5.04 6.25,8.52 0,0 1.8,3.51 1.8,6.89 0,0 0,5.51 -3.89,8.99 0,0 -3.84,3.47 -10.04,3.47 0,0 -4.4,0 -9.31,-1.53 0,0 -4.86,-1.53 -10.42,-4.63 v 9.44 c 0,0 5.65,2.27 10.56,3.43 0,0 4.91,1.16 8.98,1.16 0,0 10.74,0 17.13,-5.37 0,0 6.39,-5.37 6.39,-14.35 0,0 0,-4.26 -1.62,-8.11 0,0 -1.58,-3.79 -5.79,-8.98 0,0 -1.16,-1.34 -7.36,-7.78 0,0 -6.2,-6.38 -17.5,-17.91 z" /><path
         id="path2054"
         style="fill:#000000;fill-opacity:1;fill-rule:evenodd;stroke:none"
         d="m 393.65,4716.79 h 36.71 v -7.87 h -28.14 v -16.95 c 0,0 2.03,0.7 4.07,1.02 0,0 2.04,0.37 4.07,0.37 0,0 11.58,0 18.34,-6.34 0,0 6.76,-6.34 6.76,-17.18 0,0 0,-11.15 -6.95,-17.36 0,0 -6.94,-6.15 -19.58,-6.15 0,0 -4.35,0 -8.89,0.74 0,0 -4.49,0.74 -9.31,2.22 v 9.4 c 0,0 4.17,-2.27 8.62,-3.38 0,0 4.44,-1.11 9.39,-1.11 0,0 8.01,0 12.69,4.21 0,0 4.67,4.21 4.67,11.43 0,0 0,7.23 -4.67,11.44 0,0 -4.68,4.21 -12.69,4.21 0,0 -3.75,0 -7.5,-0.83 0,0 -3.7,-0.83 -7.59,-2.59 z" /><path
         id="path2056"
         style="fill:#000000;fill-opacity:1;fill-rule:evenodd;stroke:none"
         d="m 465.59,4710.63 c 0,0 -7.22,0 -10.87,-7.13 0,0 -3.62,-7.08 -3.62,-21.34 0,0 0,-14.21 3.62,-21.34 0,0 3.65,-7.09 10.87,-7.09 0,0 7.27,0 10.88,7.09 0,0 3.66,7.13 3.66,21.34 0,0 0,14.26 -3.66,21.34 0,0 -3.61,7.13 -10.88,7.13 m 0,7.41 c 0,0 11.63,0 17.74,-9.21 0,0 6.15,-9.17 6.15,-26.67 0,0 0,-17.46 -6.15,-26.67 0,0 -6.11,-9.16 -17.74,-9.16 0,0 -11.62,0 -17.77,9.16 0,0 -6.11,9.21 -6.11,26.67 0,0 0,17.5 6.11,26.67 0,0 6.15,9.21 17.77,9.21 z" /><path
         id="path2058"
         style="fill:#000000;fill-opacity:1;fill-rule:evenodd;stroke:none"
         d="m 519.62,4710.63 c 0,0 -7.22,0 -10.88,-7.13 0,0 -3.61,-7.08 -3.61,-21.34 0,0 0,-14.21 3.61,-21.34 0,0 3.66,-7.09 10.88,-7.09 0,0 7.27,0 10.88,7.09 0,0 3.66,7.13 3.66,21.34 0,0 0,14.26 -3.66,21.34 0,0 -3.61,7.13 -10.88,7.13 m 0,7.41 c 0,0 11.62,0 17.73,-9.21 0,0 6.16,-9.17 6.16,-26.67 0,0 0,-17.46 -6.16,-26.67 0,0 -6.11,-9.16 -17.73,-9.16 0,0 -11.62,0 -17.78,9.16 0,0 -6.11,9.21 -6.11,26.67 0,0 0,17.5 6.11,26.67 0,0 6.16,9.21 17.78,9.21 z" /><path
         id="path2060"
         style="fill:#000000;fill-opacity:1;fill-rule:evenodd;stroke:none"
         d="m 519.62,5167.1 c 0,0 -7.22,0 -10.88,-7.13 0,0 -3.61,-7.08 -3.61,-21.34 0,0 0,-14.21 3.61,-21.34 0,0 3.66,-7.08 10.88,-7.08 0,0 7.27,0 10.88,7.08 0,0 3.66,7.13 3.66,21.34 0,0 0,14.26 -3.66,21.34 0,0 -3.61,7.13 -10.88,7.13 m 0,7.41 c 0,0 11.62,0 17.73,-9.21 0,0 6.16,-9.17 6.16,-26.67 0,0 0,-17.45 -6.16,-26.66 0,0 -6.11,-9.17 -17.73,-9.17 0,0 -11.62,0 -17.78,9.17 0,0 -6.11,9.21 -6.11,26.66 0,0 0,17.5 6.11,26.67 0,0 6.16,9.21 17.78,9.21 z" /><path
         id="path2062"
         style="fill:#000000;fill-opacity:1;fill-rule:evenodd;stroke:none"
         d="m 350.78,5568.48 h 32.64 v -7.87 h -43.89 v 7.87 c 0,0 5.32,5.51 14.49,14.77 0,0 9.21,9.31 11.58,11.99 0,0 4.49,5.05 6.25,8.52 0,0 1.8,3.52 1.8,6.9 0,0 0,5.51 -3.89,8.98 0,0 -3.84,3.47 -10.04,3.47 0,0 -4.4,0 -9.31,-1.52 0,0 -4.86,-1.53 -10.42,-4.63 v 9.44 c 0,0 5.65,2.27 10.56,3.43 0,0 4.91,1.15 8.98,1.15 0,0 10.74,0 17.13,-5.37 0,0 6.39,-5.37 6.39,-14.35 0,0 0,-4.26 -1.62,-8.1 0,0 -1.58,-3.8 -5.79,-8.98 0,0 -1.16,-1.34 -7.36,-7.78 0,0 -6.2,-6.39 -17.5,-17.92 z" /><path
         id="path2064"
         style="fill:#000000;fill-opacity:1;fill-rule:evenodd;stroke:none"
         d="m 393.65,5629.73 h 36.71 v -7.87 h -28.14 v -16.94 c 0,0 2.03,0.69 4.07,1.02 0,0 2.04,0.37 4.07,0.37 0,0 11.58,0 18.34,-6.34 0,0 6.76,-6.35 6.76,-17.18 0,0 0,-11.16 -6.95,-17.36 0,0 -6.94,-6.16 -19.58,-6.16 0,0 -4.35,0 -8.89,0.74 0,0 -4.49,0.74 -9.31,2.22 v 9.4 c 0,0 4.17,-2.27 8.62,-3.38 0,0 4.44,-1.11 9.39,-1.11 0,0 8.01,0 12.69,4.22 0,0 4.67,4.21 4.67,11.43 0,0 0,7.22 -4.67,11.44 0,0 -4.68,4.21 -12.69,4.21 0,0 -3.75,0 -7.5,-0.83 0,0 -3.7,-0.84 -7.59,-2.6 z" /><path
         id="path2066"
         style="fill:#000000;fill-opacity:1;fill-rule:evenodd;stroke:none"
         d="m 465.59,5623.58 c 0,0 -7.22,0 -10.87,-7.13 0,0 -3.62,-7.09 -3.62,-21.34 0,0 0,-14.22 3.62,-21.35 0,0 3.65,-7.08 10.87,-7.08 0,0 7.27,0 10.88,7.08 0,0 3.66,7.13 3.66,21.35 0,0 0,14.25 -3.66,21.34 0,0 -3.61,7.13 -10.88,7.13 m 0,7.4 c 0,0 11.63,0 17.74,-9.21 0,0 6.15,-9.17 6.15,-26.66 0,0 0,-17.46 -6.15,-26.67 0,0 -6.11,-9.17 -17.74,-9.17 0,0 -11.62,0 -17.77,9.17 0,0 -6.11,9.21 -6.11,26.67 0,0 0,17.49 6.11,26.66 0,0 6.15,9.21 17.77,9.21 z" /><path
         id="path2068"
         style="fill:#000000;fill-opacity:1;fill-rule:evenodd;stroke:none"
         d="m 519.62,5623.58 c 0,0 -7.22,0 -10.88,-7.13 0,0 -3.61,-7.09 -3.61,-21.34 0,0 0,-14.22 3.61,-21.35 0,0 3.66,-7.08 10.88,-7.08 0,0 7.27,0 10.88,7.08 0,0 3.66,7.13 3.66,21.35 0,0 0,14.25 -3.66,21.34 0,0 -3.61,7.13 -10.88,7.13 m 0,7.4 c 0,0 11.62,0 17.73,-9.21 0,0 6.16,-9.17 6.16,-26.66 0,0 0,-17.46 -6.16,-26.67 0,0 -6.11,-9.17 -17.73,-9.17 0,0 -11.62,0 -17.78,9.17 0,0 -6.11,9.21 -6.11,26.67 0,0 0,17.49 6.11,26.66 0,0 6.16,9.21 17.78,9.21 z" /><path
         id="path2070"
         style="fill:#000000;fill-opacity:1;fill-rule:evenodd;stroke:none"
         d="m 197.97,4435.46 h -25.53 v -21.01 h -10.56 v 33.74 h 40.8 c 0,0 5.28,-7.45 8.02,-16.43 0,0 2.67,-8.97 2.67,-19.16 0,0 0,-22.28 -12.98,-34.88 0,0 -13.05,-12.54 -36.29,-12.54 0,0 -23.29,0 -36.28,12.54 0,0 -13.05,12.6 -13.05,34.88 0,0 0,9.3 2.29,17.64 0,0 2.29,8.4 6.75,15.47 h 13.69 c 0,0 -6.05,-7.13 -9.11,-15.15 0,0 -3.05,-8.03 -3.05,-16.87 0,0 0,-17.45 9.74,-26.23 0,0 9.74,-8.72 29.02,-8.72 0,0 19.23,0 28.97,8.72 0,0 9.74,8.78 9.74,26.23 0,0 0,6.81 -1.15,12.15 0,0 -1.21,5.35 -3.69,9.62 z" /><path
         id="path2072"
         style="fill:#000000;fill-opacity:1;fill-rule:evenodd;stroke:none"
         d="m 175.69,4492.88 c 0,0 0,-14.2 3.25,-19.67 0,0 3.24,-5.48 11.07,-5.48 0,0 6.24,0 9.93,4.07 0,0 3.63,4.14 3.63,11.21 0,0 0,9.74 -6.87,15.59 0,0 -6.94,5.92 -18.4,5.92 h -2.61 v -11.64 m -4.84,23.36 h 40.68 v -11.72 h -10.82 c 0,0 6.49,-4.01 9.61,-9.99 0,0 3.05,-5.98 3.05,-14.64 0,0 0,-10.95 -6.11,-17.44 0,0 -6.17,-6.43 -16.48,-6.43 0,0 -12.04,0 -18.15,8.02 0,0 -6.11,8.08 -6.11,24.06 v 16.42 h -1.14 c 0,0 -8.09,0 -12.48,-5.34 0,0 -4.46,-5.29 -4.46,-14.9 0,0 0,-6.11 1.47,-11.9 0,0 1.46,-5.79 4.39,-11.14 h -10.82 c 0,0 -2.48,6.43 -3.69,12.47 0,0 -1.28,6.05 -1.28,11.78 0,0 0,15.47 8.02,23.11 0,0 8.03,7.64 24.32,7.64 z" /><path
         id="path2074"
         style="fill:#000000;fill-opacity:1;fill-rule:evenodd;stroke:none"
         d="m 140.23,4528.52 v 11.72 h 71.3 v -11.72 h -71.3 m -27.75,0 v 11.72 h 14.83 v -11.72 z" /><path
         id="path2076"
         style="fill:#000000;fill-opacity:1;fill-rule:evenodd;stroke:none"
         d="m 168.5,4611.79 h 43.03 v -11.72 h -42.65 c 0,0 -10.12,0 -15.15,-3.94 0,0 -5.03,-3.95 -5.03,-11.84 0,0 0,-9.49 6.05,-14.96 0,0 6.04,-5.48 16.48,-5.48 h 40.3 v -11.77 h -71.3 v 11.77 h 11.08 c 0,0 -6.43,4.2 -9.61,9.87 0,0 -3.19,5.73 -3.19,13.18 0,0 0,12.28 7.64,18.58 0,0 7.58,6.31 22.35,6.31 z" /><path
         id="path2078"
         style="fill:#000000;fill-opacity:1;fill-rule:evenodd;stroke:none"
         d="m 112.61,4693.65 c 0,0 14.64,-8.53 28.96,-12.67 0,0 14.32,-4.14 29.03,-4.14 0,0 14.7,0 29.15,4.14 0,0 14.39,4.2 28.97,12.67 v -10.19 c 0,0 -14.96,-9.54 -29.41,-14.32 0,0 -14.45,-4.71 -28.71,-4.71 0,0 -14.2,0 -28.59,4.71 0,0 -14.38,4.71 -29.4,14.32 z" /><path
         id="path2080"
         style="fill:#000000;fill-opacity:1;fill-rule:evenodd;stroke:none"
         d="m 200.2,4788.31 h 11.33 v -38.2 H 200.2 c 0,0 -6.18,11.27 -16.74,17.57 0,0 -10.57,6.31 -23.43,6.31 0,0 -15.28,0 -24.51,-8.41 0,0 -9.23,-8.4 -9.23,-22.15 0,0 0,-13.75 9.3,-22.22 0,0 9.23,-8.4 24.44,-8.4 0,0 12.86,0 23.43,6.3 0,0 10.56,6.37 16.74,17.7 h 11.33 v -38.19 H 200.2 v 20.3 c 0,0 -8.85,-10.06 -18.34,-14.7 0,0 -9.48,-4.59 -21.19,-4.59 0,0 -20.25,0 -32.79,12.23 0,0 -12.54,12.15 -12.54,31.57 0,0 0,19.29 12.54,31.57 0,0 12.48,12.23 32.15,12.23 0,0 12.35,0 21.77,-4.52 0,0 9.42,-4.52 18.4,-14.77 z" /><path
         id="path2082"
         style="fill:#000000;fill-opacity:1;fill-rule:evenodd;stroke:none"
         d="m 112.61,4798.75 v 10.18 c 0,0 15.02,9.55 29.4,14.26 0,0 14.39,4.78 28.59,4.78 0,0 14.26,0 28.71,-4.78 0,0 14.45,-4.71 29.41,-14.26 v -10.18 c 0,0 -14.58,8.46 -28.97,12.6 0,0 -14.45,4.2 -29.15,4.2 0,0 -14.71,0 -29.03,-4.2 0,0 -14.32,-4.14 -28.96,-12.6 z" /><path
         id="path2084"
         style="fill:#000000;fill-opacity:1;fill-rule:evenodd;stroke:none"
         d="m 989.28,5975.81 h 102.32 v -13.78 h -42.94 v -107.18 h -16.44 v 107.18 h -42.94 z" /><path
         id="path2086"
         style="fill:#000000;fill-opacity:1;fill-rule:evenodd;stroke:none"
         d="m 1135.43,5931.65 c 0,0 -2.51,1.46 -5.5,2.11 0,0 -2.92,0.73 -6.49,0.73 0,0 -12.63,0 -19.44,-8.27 0,0 -6.72,-8.18 -6.72,-23.57 v -47.8 h -14.99 v 90.74 h 14.99 v -14.1 c 0,0 4.69,8.26 12.23,12.23 0,0 7.53,4.06 18.31,4.06 0,0 1.54,0 3.4,-0.25 0,0 1.87,-0.16 4.13,-0.56 z" /><path
         id="path2088"
         style="fill:#000000;fill-opacity:1;fill-rule:evenodd;stroke:none"
         d="m 1192.31,5900.46 c 0,0 -18.07,0 -25.03,-4.13 0,0 -6.97,-4.13 -6.97,-14.1 0,0 0,-7.94 5.18,-12.64 0,0 5.27,-4.61 14.26,-4.61 0,0 12.4,0 19.85,8.75 0,0 7.54,8.83 7.54,23.41 v 3.32 h -14.83 m 29.73,6.16 v -51.77 h -14.9 v 13.77 c 0,0 -5.11,-8.26 -12.72,-12.23 0,0 -7.62,-3.89 -18.64,-3.89 0,0 -13.93,0 -22.2,7.78 0,0 -8.18,7.85 -8.18,20.98 0,0 0,15.31 10.21,23.09 0,0 10.29,7.78 30.62,7.78 h 20.91 v 1.46 c 0,0 0,10.29 -6.81,15.88 0,0 -6.72,5.67 -18.96,5.67 0,0 -7.78,0 -15.15,-1.87 0,0 -7.37,-1.86 -14.18,-5.59 v 13.78 c 0,0 8.19,3.16 15.88,4.7 0,0 7.7,1.62 14.99,1.62 0,0 19.69,0 29.41,-10.21 0,0 9.72,-10.21 9.72,-30.95 z" /><path
         id="path2090"
         style="fill:#000000;fill-opacity:1;fill-rule:evenodd;stroke:none"
         d="m 1313.11,5909.62 v -54.77 h -14.91 v 54.28 c 0,0 0,12.88 -5.02,19.28 0,0 -5.03,6.4 -15.07,6.4 0,0 -12.07,0 -19.04,-7.69 0,0 -6.97,-7.7 -6.97,-20.99 v -51.28 h -14.99 v 90.74 h 14.99 v -14.1 c 0,0 5.35,8.18 12.56,12.23 0,0 7.29,4.06 16.77,4.06 0,0 15.64,0 23.66,-9.73 0,0 8.02,-9.64 8.02,-28.43 z" /><path
         id="path2092"
         style="fill:#000000;fill-opacity:1;fill-rule:evenodd;stroke:none"
         d="m 1386.59,5942.91 v -14.09 c 0,0 -6.32,3.24 -13.12,4.86 0,0 -6.81,1.62 -14.1,1.62 0,0 -11.1,0 -16.69,-3.4 0,0 -5.51,-3.41 -5.51,-10.21 0,0 0,-5.19 3.97,-8.18 0,0 3.97,-2.92 15.96,-5.6 l 5.1,-1.13 c 0,0 15.88,-3.4 22.53,-9.64 0,0 6.72,-6.16 6.72,-17.26 0,0 0,-12.64 -10.04,-20.01 0,0 -9.97,-7.37 -27.47,-7.37 0,0 -7.29,0 -15.23,1.46 0,0 -7.86,1.37 -16.61,4.21 v 15.39 c 0,0 8.26,-4.29 16.29,-6.48 0,0 8.02,-2.1 15.87,-2.1 0,0 10.54,0 16.21,3.56 0,0 5.67,3.65 5.67,10.21 0,0 0,6.07 -4.13,9.32 0,0 -4.05,3.24 -17.91,6.23 l -5.18,1.22 c 0,0 -13.86,2.92 -20.01,8.91 0,0 -6.16,6.08 -6.16,16.61 0,0 0,12.8 9.07,19.77 0,0 9.08,6.97 25.77,6.97 0,0 8.26,0 15.55,-1.22 0,0 7.29,-1.21 13.45,-3.65 z" /><path
         id="path2094"
         style="fill:#000000;fill-opacity:1;fill-rule:evenodd;stroke:none"
         d="m 1453.03,5980.91 v -12.39 h -14.26 c 0,0 -8.02,0 -11.18,-3.24 0,0 -3.08,-3.25 -3.08,-11.67 v -8.02 h 24.55 V 5934 h -24.55 v -79.15 h -14.99 V 5934 h -14.26 v 11.59 h 14.26 v 6.32 c 0,0 0,15.15 7.05,22.03 0,0 7.05,6.97 22.36,6.97 z" /><path
         id="path2096"
         style="fill:#000000;fill-opacity:1;fill-rule:evenodd;stroke:none"
         d="m 1503.82,5935.14 c 0,0 -11.99,0 -18.95,-9.4 0,0 -6.97,-9.32 -6.97,-25.6 0,0 0,-16.29 6.88,-25.69 0,0 6.97,-9.31 19.04,-9.31 0,0 11.91,0 18.88,9.4 0,0 6.97,9.39 6.97,25.6 0,0 0,16.12 -6.97,25.52 0,0 -6.97,9.48 -18.88,9.48 m 0,12.64 c 0,0 19.45,0 30.55,-12.64 0,0 11.1,-12.64 11.1,-35 0,0 0,-22.28 -11.1,-35 0,0 -11.1,-12.64 -30.55,-12.64 0,0 -19.52,0 -30.62,12.64 0,0 -11.02,12.72 -11.02,35 0,0 0,22.36 11.02,35 0,0 11.1,12.64 30.62,12.64 z" /><path
         id="path2098"
         style="fill:#000000;fill-opacity:1;fill-rule:evenodd;stroke:none"
         d="m 1613.68,5931.65 c 0,0 -2.51,1.46 -5.5,2.11 0,0 -2.92,0.73 -6.49,0.73 0,0 -12.63,0 -19.44,-8.27 0,0 -6.72,-8.18 -6.72,-23.57 v -47.8 h -14.99 v 90.74 h 14.99 v -14.1 c 0,0 4.69,8.26 12.23,12.23 0,0 7.53,4.06 18.31,4.06 0,0 1.54,0 3.4,-0.25 0,0 1.87,-0.16 4.13,-0.56 z" /><path
         id="path2100"
         style="fill:#000000;fill-opacity:1;fill-rule:evenodd;stroke:none"
         d="m 1697.05,5928.17 c 0,0 5.59,10.05 13.37,14.83 0,0 7.78,4.78 18.31,4.78 0,0 14.18,0 21.88,-9.97 0,0 7.69,-9.88 7.69,-28.19 v -54.77 h -14.99 v 54.28 c 0,0 0,13.04 -4.61,19.36 0,0 -4.62,6.32 -14.1,6.32 0,0 -11.59,0 -18.31,-7.69 0,0 -6.73,-7.7 -6.73,-20.99 v -51.28 h -14.98 v 54.28 c 0,0 0,13.13 -4.62,19.36 0,0 -4.62,6.32 -14.26,6.32 0,0 -11.43,0 -18.15,-7.77 0,0 -6.72,-7.7 -6.72,-20.91 v -51.28 h -14.99 v 90.74 h 14.99 v -14.1 c 0,0 5.1,8.35 12.23,12.32 0,0 7.13,3.97 16.93,3.97 0,0 9.89,0 16.77,-5.03 0,0 6.97,-5.02 10.29,-14.58 z" /><path
         id="path2102"
         style="fill:#000000;fill-opacity:1;fill-rule:evenodd;stroke:none"
         d="m 1851.55,5903.94 v -7.29 h -68.54 c 0,0 0.97,-15.39 9.24,-23.49 0,0 8.34,-8.02 23.17,-8.02 0,0 8.59,0 16.61,2.1 0,0 8.1,2.11 16.04,6.32 v -14.09 c 0,0 -8.02,-3.41 -16.45,-5.19 0,0 -8.42,-1.78 -17.09,-1.78 0,0 -21.71,0 -34.43,12.64 0,0 -12.64,12.64 -12.64,34.19 0,0 0,22.28 11.99,35.32 0,0 12.07,13.13 32.49,13.13 0,0 18.31,0 28.92,-11.83 0,0 10.69,-11.75 10.69,-32.01 m -14.9,4.38 c 0,0 -0.17,12.23 -6.89,19.53 0,0 -6.64,7.29 -17.66,7.29 0,0 -12.48,0 -20.01,-7.05 0,0 -7.46,-7.05 -8.59,-19.85 z" /><path
         id="path2104"
         style="fill:#000000;fill-opacity:1;fill-rule:evenodd;stroke:none"
         d="m 1926.9,5931.82 v 49.09 h 14.91 v -126.06 h -14.91 v 13.61 c 0,0 -4.7,-8.1 -11.91,-12.07 0,0 -7.13,-3.89 -17.17,-3.89 0,0 -16.45,0 -26.82,13.12 0,0 -10.29,13.13 -10.29,34.52 0,0 0,21.39 10.29,34.51 0,0 10.37,13.13 26.82,13.13 0,0 10.04,0 17.17,-3.97 0,0 7.21,-3.89 11.91,-11.99 m -50.8,-31.68 c 0,0 0,-16.45 6.73,-25.85 0,0 6.8,-9.31 18.63,-9.31 0,0 11.83,0 18.64,9.31 0,0 6.8,9.4 6.8,25.85 0,0 0,16.44 -6.8,25.76 0,0 -6.81,9.4 -18.64,9.4 0,0 -11.83,0 -18.63,-9.4 0,0 -6.73,-9.32 -6.73,-25.76 z" /><path
         id="path2106"
         style="fill:#000000;fill-opacity:1;fill-rule:evenodd;stroke:none"
         d="m 2083.35,5971.84 v -15.96 c 0,0 -9.32,4.45 -17.58,6.64 0,0 -8.27,2.19 -15.96,2.19 0,0 -13.37,0 -20.66,-5.19 0,0 -7.22,-5.18 -7.22,-14.74 0,0 0,-8.02 4.78,-12.15 0,0 4.87,-4.06 18.32,-6.57 l 9.88,-2.02 c 0,0 18.31,-3.49 26.98,-12.32 0,0 8.75,-8.75 8.75,-23.49 0,0 0,-17.58 -11.83,-26.66 0,0 -11.75,-9.07 -34.51,-9.07 0,0 -8.59,0 -18.31,1.94 0,0 -9.65,1.95 -20.02,5.76 v 16.85 c 0,0 9.97,-5.59 19.53,-8.43 0,0 9.56,-2.83 18.8,-2.83 0,0 14.01,0 21.63,5.5 0,0 7.61,5.51 7.61,15.72 0,0 0,8.91 -5.51,13.94 0,0 -5.42,5.02 -17.9,7.53 l -9.97,1.95 c 0,0 -18.31,3.64 -26.49,11.42 0,0 -8.18,7.78 -8.18,21.63 0,0 0,16.04 11.26,25.28 0,0 11.34,9.24 31.19,9.24 0,0 8.51,0 17.34,-1.54 0,0 8.83,-1.54 18.07,-4.62 z" /><path
         id="path2108"
         style="fill:#000000;fill-opacity:1;fill-rule:evenodd;stroke:none"
         d="m 2120.7,5868.46 v -48.13 h -14.99 v 125.26 h 14.99 v -13.77 c 0,0 4.69,8.1 11.82,11.99 0,0 7.22,3.97 17.18,3.97 0,0 16.53,0 26.82,-13.13 0,0 10.37,-13.12 10.37,-34.51 0,0 0,-21.39 -10.37,-34.52 0,0 -10.29,-13.12 -26.82,-13.12 0,0 -9.96,0 -17.18,3.89 0,0 -7.13,3.97 -11.82,12.07 m 50.71,31.68 c 0,0 0,16.44 -6.8,25.76 0,0 -6.73,9.4 -18.56,9.4 0,0 -11.82,0 -18.63,-9.4 0,0 -6.72,-9.32 -6.72,-25.76 0,0 0,-16.45 6.72,-25.85 0,0 6.81,-9.31 18.63,-9.31 0,0 11.83,0 18.56,9.31 0,0 6.8,9.4 6.8,25.85 z" /><path
         id="path2110"
         style="fill:#000000;fill-opacity:1;fill-rule:evenodd;stroke:none"
         d="m 2280.14,5903.94 v -7.29 h -68.54 c 0,0 0.97,-15.39 9.23,-23.49 0,0 8.35,-8.02 23.18,-8.02 0,0 8.58,0 16.6,2.1 0,0 8.11,2.11 16.05,6.32 v -14.09 c 0,0 -8.03,-3.41 -16.45,-5.19 0,0 -8.43,-1.78 -17.1,-1.78 0,0 -21.71,0 -34.43,12.64 0,0 -12.64,12.64 -12.64,34.19 0,0 0,22.28 11.99,35.32 0,0 12.08,13.13 32.49,13.13 0,0 18.31,0 28.93,-11.83 0,0 10.69,-11.75 10.69,-32.01 m -14.91,4.38 c 0,0 -0.16,12.23 -6.88,19.53 0,0 -6.65,7.29 -17.67,7.29 0,0 -12.47,0 -20.01,-7.05 0,0 -7.45,-7.05 -8.59,-19.85 z" /><path
         id="path2112"
         style="fill:#000000;fill-opacity:1;fill-rule:evenodd;stroke:none"
         d="m 2361.08,5942.1 v -13.93 c 0,0 -6.32,3.48 -12.72,5.18 0,0 -6.32,1.79 -12.8,1.79 0,0 -14.51,0 -22.53,-9.24 0,0 -8.02,-9.15 -8.02,-25.76 0,0 0,-16.61 8.02,-25.85 0,0 8.02,-9.15 22.53,-9.15 0,0 6.48,0 12.8,1.7 0,0 6.4,1.78 12.72,5.26 v -13.77 c 0,0 -6.24,-2.91 -12.97,-4.37 0,0 -6.64,-1.46 -14.17,-1.46 0,0 -20.5,0 -32.57,12.88 0,0 -12.08,12.88 -12.08,34.76 0,0 0,22.2 12.16,34.92 0,0 12.23,12.72 33.46,12.72 0,0 6.88,0 13.45,-1.46 0,0 6.56,-1.38 12.72,-4.22 z" /><path
         id="path2114"
         style="fill:#000000;fill-opacity:1;fill-rule:evenodd;stroke:none"
         d="m 2391.46,5971.35 v -25.76 h 30.7 V 5934 h -30.7 v -49.26 c 0,0 0,-11.1 3,-14.26 0,0 3.07,-3.16 12.39,-3.16 h 15.31 v -12.47 h -15.31 c 0,0 -17.26,0 -23.82,6.4 0,0 -6.56,6.48 -6.56,23.49 V 5934 h -10.94 v 11.59 h 10.94 v 25.76 z" /><path
         id="path2116"
         style="fill:#000000;fill-opacity:1;fill-rule:evenodd;stroke:none"
         d="m 2490.38,5931.65 c 0,0 -2.51,1.46 -5.51,2.11 0,0 -2.91,0.73 -6.48,0.73 0,0 -12.64,0 -19.44,-8.27 0,0 -6.73,-8.18 -6.73,-23.57 v -47.8 h -14.99 v 90.74 h 14.99 v -14.1 c 0,0 4.7,8.26 12.24,12.23 0,0 7.53,4.06 18.31,4.06 0,0 1.54,0 3.4,-0.25 0,0 1.86,-0.16 4.13,-0.56 z" /><path
         id="path2118"
         style="fill:#000000;fill-opacity:1;fill-rule:evenodd;stroke:none"
         d="m 2547.26,5900.46 c 0,0 -18.07,0 -25.04,-4.13 0,0 -6.97,-4.13 -6.97,-14.1 0,0 0,-7.94 5.19,-12.64 0,0 5.27,-4.61 14.26,-4.61 0,0 12.39,0 19.85,8.75 0,0 7.53,8.83 7.53,23.41 v 3.32 h -14.82 m 29.73,6.16 v -51.77 h -14.91 v 13.77 c 0,0 -5.1,-8.26 -12.72,-12.23 0,0 -7.61,-3.89 -18.63,-3.89 0,0 -13.94,0 -22.2,7.78 0,0 -8.18,7.85 -8.18,20.98 0,0 0,15.31 10.2,23.09 0,0 10.29,7.78 30.63,7.78 h 20.9 v 1.46 c 0,0 0,10.29 -6.8,15.88 0,0 -6.73,5.67 -18.96,5.67 0,0 -7.78,0 -15.15,-1.87 0,0 -7.37,-1.86 -14.18,-5.59 v 13.78 c 0,0 8.18,3.16 15.88,4.7 0,0 7.7,1.62 14.99,1.62 0,0 19.69,0 29.41,-10.21 0,0 9.72,-10.21 9.72,-30.95 z" /><path
         id="path2120"
         style="fill:none;stroke:#009afa;stroke-width:8;stroke-linecap:butt;stroke-linejoin:miter;stroke-miterlimit:10;stroke-dasharray:none;stroke-opacity:1"
         d="m 698.58,5630.51 v -0.77 -0.56 -0.37 0.85 l 11.3,-0.3 v -0.3 0.37 -0.88 1.34 -1.26 1.46 l 11.3,0.22 v -1.77 0.81 0.8 -2.39 1.45 -0.56 1.89 l 11.3,-1.71 v -1.82 1.62 -0.51 -0.41 -0.09 0.95 -1.57 l 11.29,0.27 v 0.72 0.56 -1.58 0.22 -1.26 1.09 0.47 l 11.3,-0.6 v 1.35 -1.59 -1.02 -0.04 0.86 -1.91 l 11.3,2.73 v -1.39 -0.61 0.67 -1.85 1.11 -0.34 0.18 l 11.3,0.44 v -0.06 -0.51 -0.44 -0.66 0.14 -1.64 1.1 l 11.29,0.43 v -1.12 0.1 0.41 0.86 0.22 -0.9 l 11.3,-0.28 v -0.63 -0.34 0.84 -2.17 1.38 0.83 -1.25 l 11.3,-0.68 v 1.47 -2.01 1.49 0.96 -1.61 -1.17 0.3 l 11.3,-0.69 v 0.65 -1.1 1.72 -0.32 -0.97 -0.45 0.1 l 11.29,0.89 v -2.46 2.1 0.94 -1.96 -0.36 -0.43 l 11.3,-1.58 v 0.12 1.39 -0.88 0.16 -0.04 1.06 -0.64 l 11.3,0.83 v -3.26 -14.3 -3.15 2.81 0.13 -1.15 2.02 l 11.3,-2.12 v -0.5 -2.3 1.98 0.58 0.87 -2.15 l 11.29,-0.73 v 0.41 -2.89 0.63 -0.85 -1.6 -0.55 -4.52 l 11.3,1.08 v -1.16 0.25 -2.71 -0.55 -2.48 0.52 0.36 l 11.3,-2.38 v -2.38 -1.41 -0.54 -4.21 -3.2 2.83 -0.67 l 11.29,-0.32 v -4.23 -1.91 -0.26 0.43 -1.07 -1.85 l 11.3,-6.65 v 1.5 -0.77 -2.76 -0.5 -0.23 -0.97 -3.86 l 11.3,0.85 v -2.46 0.51 -3.4 -1.34 -0.19 -3.91 0.55 l 11.3,-1.92 v -1.88 0.11 -1.16 -4.79 -0.53 0.25 -1.06 l 11.29,1.51 v -4.25 -4.81 -0.24 0.07 -3.08 -1.27 l 11.3,-0.24 v -0.78 -3.6 -1.69 -0.36 0 -3.47 -1.02 l 11.3,-0.93 v -0.61 -0.18 -3.62 -0.65 0.77 -1.11 -4.92 l 11.3,1.73 v -2.05 0.37 -3.53 1.26 -4.76 0.12 -3.05 l 11.29,1.02 v -2.54 -2.75 -0.31 -1.81 0.03 -0.69 l 11.3,-1.42 v -1.48 -1.21 -0.45 -1.46 0.05 -2.9 1.83 l 11.3,-6.98 v 0.98 -0.95 -2.24 -0.65 0.48 -0.61 -0.07 l 11.3,-6.35 v 2.64 -4.15 0.31 -2.65 1.26 -4.04 0.72 l 11.29,-3.3 v 1.01 -2.75 -0.29 -2.26 1.48 -2.99 -1.52 l 11.3,-1.72 v 1.94 -5.12 -0.65 -0.76 -2.1 0.95 l 11.3,-1.15 v -4.2 0.16 -1.32 0.52 -5.16 2.7 -2.46 l 11.3,-0.86 v 0.38 -3.3 0.29 1.95 -6.46 0.52 -4.84 l 11.29,1.88 v -0.32 -0.93 -3.36 -1.1 1.87 -5.62 l 11.3,3.67 v -3.77 -0.18 -1.5 -0.81 -3.43 0.69 -0.93 l 11.3,-5.71 v 3.46 0.94 -2.58 -0.8 -5.24 -0.58 1.41 l 11.3,-5.67 v 2.27 -4.07 1.52 0.1 -1.16 -1.99 -2.4 l 11.29,-0.92 v -0.6 1.77 -3.86 -1.6 2 -3.58 l 11.3,2.9 v -5.7 -1.96 -0.86 -1.15 3.17 -4.15 2.38 l 11.3,-4.1 v -0.4 -1.63 -0.89 -4.2 1.77 -0.96 -2.73 l 11.29,1.72 v -4.57 -2.83 2.02 0.09 -1.28 0.6 -4.35 l 11.3,1.97 v -0.23 -5.14 -1.69 -0.97 -0.52 -3.32 l 11.3,4.31 v -1.69 -5.05 -0.75 1.33 -0.85 -3.09 -1.71 l 11.3,3.28 v -3.55 -5.2 3.82 -1.62 0.89 -3.83 0.95 l 11.29,-4.95 v -0.21 -0.61 -2.52 0.47 -0.84 -2.26 3.48 l 11.3,-2.58 v -4.38 3.17 -1.05 -3.78 1.32 -2.52 l 11.3,-3.65 v 0.6 0.08 -0.46 -5.81 -0.4 1.97 -1.69 l 11.3,-0.09 v -2.83 -2.74 5.77 -6.51 -0.06 -2.91 -2.42 l 11.29,3.34 v -2.16 -4.92 -0.24 -2.85 1.02 -2.48 1.25 l 11.3,-5.13 v 2.65 -2.38 -4.33 -0.07 2.25 -1.38 l 11.3,-0.95 v -0.36 -3.31 -1.36 -1.57 1.04 -4.05 4.62 l 11.3,-6.24 v -0.53 -3.11 3.76 -2.71 -5.69 -0.64 3.74 l 11.29,-6.35 v 2.61 0.47 -0.97 -3.63 -2.87 -1.51 -0.76 l 11.3,1.95 v -6.44 2.73 1.78 -6.98 -1.26 1.11 -1.32 l 11.3,-0.64 v -0.6 -3.88 1.06 -2.15 -6.76 0.28 3.49 l 11.3,0.35 v -1.3 -4.39 -2.28 -0.28 -1.65 0.12 l 11.29,-3.58 v -3.78 4.16 -3.1 -0.04 -4.06 -0.99 2.11 l 11.3,-0.5 v -5.91 2.17 -0.21 -1.2 -4.65 -3.4 -0.3 l 11.3,1.82 v -3.85 2.2 -6.13 -1.07 -1.05 -1.38 2.14 l 11.3,0.28 v -3.24 -0.85 -2.2 1.81 -1.96 0.95 l 11.29,-8.54 v 4.13 -0.34 -5.62 1.45 1.44 -3.55 -6.4 l 11.3,3.71 v 0.54 -7.41 3.34 -5.1 1.78 -1.54 -0.73 l 11.3,-2.66 v -5.2 2.42 -3.01 -0.58 -2.02 -4.78 4.91 l 11.29,-6.38 v 6.01 -5.17 -2.37 -4.28 1.81 3.22 l 11.3,-7.49 v -1.23 3.26 -1.62 0.02 -4.06 1.88 -2.23 l 11.3,0.6 v -0.1 -0.83 -0.71 2.24 -3 2.33 l 11.3,-1.66 v -5.28 4.19 -0.03 -1.19 -3.41 2.63 -3.67 l 11.29,1.28 v -4.27 2.67 -2.53 1.47 1.38 -2.7 -0.18 l 11.3,0.84 v 0.1 -7.72 -0.74 1.11 -1.32 -2.57 1.39 l 11.3,2.38 v -4.94 -0.09 -0.9 -0.2 -3.41 1.18 l 11.3,-1.13 v -3.35 4.26 -5.14 -5.44 -1.28 0.82 3.97 l 11.29,-3.03 v 0.5 0.67 -8.61 4.58 -3.37 1.93 -2.52 l 11.3,0.76 v -4.62 2.46 -5.21 -1.02 0.46 -2.66 0.79 l 11.3,0.73 v -5.86 2.8 -5.3 2.69 -2.73 1.7 l 11.3,-2.72 v -1.62 1.23 -2.39 -5.52 2.6 -0.77 -3.82 l 11.29,3.81 v -3.31 -1.45 -0.77 -1.45 -1.4 1.88 -5.22 l 11.3,0.53 v 3.6 -0.77 -8.01 0.58 1.68 -2.06 -4.73 l 11.3,0.64 v 0.63 1.55 -2.71 0.27 -2.21 -0.92 l 11.3,1.16 v 1.05 -9.27 0.19 2.26 -0.73 -6.17 1.67 l 11.29,-0.28 v 4.09 -9.01 -3.61 5.16 -0.62 -1.95 -1.47 l 11.3,-1.81 v -1.52 4.55 -6.31 1.12 1.99 -4.36 0.73 l 11.3,-1.35 v -3.18 2.67 0.57 -6.63 0.46 -5.95 l 11.3,2.42 v 0.5 1.96 -6.8 4.33 -3.94 3.13 -0.83 l 11.29,-6.94 v 1.17 1.36 -1.9 -2.88 1.61 2.66 -3.18 l 11.3,0.74 v -3.89 -2.45 1.06 -5.45 6.89 -3.39 -4.91 l 11.3,0.77 v -2.78 -0.1 -0.56 3.27 -2.46 -2.15 l 11.29,-0.39 v -1.95 2.14 -1.78 0.78 -6.65 4.46 -3.37 l 11.3,-5.42 v 2.01 -0.5 -3.05 -0.62 3.5 -3.4 -1.65 l 11.3,5.23 v -2.64 -4.07 -3.15 2.96 0.69 -2.56 l 11.3,1.01 v -2.76 -3.89 2.24 -1.15 1.18 -4.19 1.83 l 11.29,-1.02 v -1.6 0.04 -2.39 0.7 -1.39 -2.37 -1.6 l 11.3,2.79 v -1.6 0.73 -2.08 -5.27 3.1 -1.27 l 11.3,0.24 v 0.4 -2.84 3.53 -5.55 1.04 -4.29 3.93 l 11.3,-4.15 v 4.03 -3.59 -3.78 -1.17 -1.11 0.42 1.61 l 11.29,-4.75 v 1.75 -0.61 -2.44 -0.17 1.48 -3.72 l 11.3,2.12 v -3.57 0.56 -1.6 0.05 -0.73 -1.72 0.32 l 11.3,-3.79 v 3.53 -0.52 -2.48 -2.78 1.68 -1.54 0.17 l 11.3,2.8 v -2.57 -4.69 2.13 -6.24 2.77 1.56 l 11.29,-2.43 v 4.84 -3.4 -1.37 -5.47 -3.17 3.54 0.79 l 11.3,-3.85 v -0.43 2.6 -1.15 -1.06 -4.32 1.04 1.85 l 11.3,0.85 v -2.75 -2.64 1.98 -1.62 -3.31 3.82 -2.5 l 11.3,3.21 v -4.61 1.74 -3.98 1.28 -1.65 -1.28 l 11.29,0.07 v 2.52 -8.97 1.65 1.35 -3.43 3.63 -2.15 l 11.3,-0.07 v 6.97 -8.82 1.14 -2.8 -0.8 -1.69 -0.17 l 11.3,-3.3 v 1.85 3.54 -8.91 5.7 -0.42 -7.95 1.73 l 11.3,3.86 v 1.72 -6.3 0.88 4.2 -3.14 -4.48 l 11.29,-2.33 v 3.12 3.86 -3.82 -0.81 -4.78 -2.12 4.01 l 11.3,2.61 v -4.79 -1.8 -1.11 -1275.82 186.08 266.23 125.67 l 11.3,82.16 v 68.06 40.45 27.97 35.51 30.3 26.18 19.78 l 11.29,22.58 v 22.42 11.93 13.55 15.11 13.66 9.73 l 11.3,15.05 v 2.93 13.8 10.58 14.87 9.94 9.57 6.44 l 11.3,12.51 v 4.56 5.82 8.37 6.18 3.15 4.77 l 11.3,9.43 v 8.72 -3.2 8.66 9.2 4.76 0.65 5.27 l 11.29,-0.71 v 8.87 8.21 -1.09 9.74 1.15 0.58 6.39 l 11.3,2.4 v -0.07 7.96 3.56 -0.69 3.66 3.15 7.54 l 11.3,-4.23 v 12.02 -3.12 2.37 -0.97 5.33 -0.22 l 11.3,2.3 v 2.69 -1.06 11.5 -0.52 0.97 -2.34 2.54 l 11.29,2.86 v 3.96 2.48 -2.36 7.39 2.99 -1.96 l 11.3,5.23 v -1.49 -2.04 9.5 2.94 0.43 -2.96 -0.72 l 11.3,4.91 v 2.43 -3.86 3.33 5.06 3.77 0.9 -2.9 l 11.3,1.45 v 0.77 1.38 3.94 0.67 -1.02 1.81 l 11.29,-1.8 v 7.68 3.04 -1.93 -1.02 6.28 -3.78 1.46 l 11.3,1.51 v 0.36 3.11 0.27 -0.86 3.56 -2.42 1.74 l 11.3,1.54 v -3.09 5.51 -2.33 6.5 -1.92 0.88 -1.43 l 11.3,2.69 v -2.68 9.08 0.08 -3.06 0.16 -3.58 5.12 l 11.29,4.36 v -5.02 2.67 1.16 0.14 -1.21 4.72 l 11.3,-0.94 v 3.27 -5.42 1.79 -0.74 2.63 4.06 -2.11 l 11.3,2.99 v -9.1 9 -3.86 0.85 5.51 2.45 -4.01 l 11.3,-4.76 v 5.6 1.56 2.29 -0.97 -0.44 0.78 -0.02 l 11.29,-1.46 v 3.65 0.1 0.4 -0.93 -2.68 4.43 l 11.3,-0.02 v -0.77 1.42 3.44 -1.98 -1.81 1.27 3.87 l 11.3,-2.34 v -2.97 4.79 -0.68 0.89 1.01 1.27 -0.81 l 11.3,3.24 v -0.67 2.82 -1.16 -4.09 5.42 -6.28 2.41 l 11.29,1.48 v 5.56 -4.62 -0.43 2.05 -1.14 3.85 -3.39 l 11.3,1.08 v 2.05 1.74 5.32 -7.79 -0.37 1.59 -1.94 l 11.3,-2.11 v 3.16 -1.73 3.76 -2.99 0.45 0.93 l 11.29,4.63 v -3.37 -0.35 0.51 -0.14 2.74 -0.29 -3.35 l 11.3,-1.12 v 3.45 2.32 -0.97 3.05 -1.16 1.86 1.96 l 11.3,-4.33 v 0.27 1.46 -1.5 -2.58 4.65 -2.24 l 11.3,3.93 v -6.06 5.5 1.88 2.1 -1.54 -3.67 -0.95 l 11.29,1.99 v -1.23 2.07 -3.5 0.68 1.65 -3.93 6.11 l 11.3,-2.14 v 1.46 -0.8 0.57 2.54 -2.27 4.5 l 11.3,-5.03 v 2.2 -0.94 3.17 -1.02 -2.82 0.73 -0.41 l 11.3,0.45 v -1.28 -0.45 4.98 -4.44 2.62 1.01 -1.07 l 11.29,4.33 v 2.29 -7.86 0.43 5.82 -3.15 -0.85 1.48 l 11.3,2.1 v 1.85 -3.28 0.45 -4.5 5.43 1.51 l 11.3,-1.17 v -1.39 3.39 1.06 -6.68 2.39 3.73 3.08 l 11.3,2.83 v -3.44 0.25 -1.37 -2.58 1.36 0.85 0.58 l 11.29,3.66 v 0.03 -1.09 -0.69 -1.52 3.89 1.98 -2.42 l 11.3,-2.27 v 5.09 0.36 -1.4 0.94 -5.18 7.34 l 11.3,-4.43 v 1.48 2.52 2.05 -6.71 10.49 -1.68 -1.99 l 11.3,0.21 v 1.63 -3.13 3.48 -1.07 2.59 -1.88 1.86 l 11.29,-3.36 v 6.63 -0.36 0.62 -0.17 1.19 0.74 l 11.3,-0.56 v 1.22 -1.98 5.27 1.57 -4.47 0.32 0.76 l 11.3,2.17 v 3.41 1.3 -3.67 4.87 -3.38 5.56 -0.37 l 11.3,-0.06 v -1.04 2.05 -1.74 3.5 3.09 0.48 l 11.29,-2.55 v 2.3 1.53 -0.05 0.89 4.42 -5.79 3.11 l 11.3,-3.57 v 3.12 -1.74 5.06 -1.48 0.12 0.53 -1.29 l 11.3,2.29 v -0.58 -0.59 4.62 -0.48 -1.26 2.46 5.25 l 11.29,-6.17 v 5.64 -1.6 -1.1 0.75 -2.09 2.54 l 11.3,1.33 v 3.16 -0.62 1.75 -2.72 3.05 1.74 3.93 l 11.3,1.26 v 1.52 -1.21 -0.03 -0.3 7.01 -3.05 l 11.3,3.97 v 3.34 -5.26 2.62 -0.93 8.32 -4.08 -0.2 l 11.29,4.43 v -2.71 3.74 -0.01 -2.12 7.88 -1.05 -0.53 l 11.3,5.95 v -1.63 1.72 2.31 2.66 -1.33 2.51 -1.34 l 11.3,0.74 v 1.58 -0.58 9.56 -3.93 1.26 0.44 l 11.3,6.39 v -4.89 4.6 -0.72 2 -3.13 8.54 -0.14 l 11.29,0.2 v 1.03 -0.16 4.67 1.92 1.23 0.08 l 11.3,3.3 v -2.86 3.81 3.89 4.08 -3.11 -0.54 0.06 l 11.3,7.64 v 1.85 -3.76 0.49 1.26 2.75 3.55 -1.34 l 11.3,1.89 v 2 -0.08 0.82 2.47 -3.21 8.3 -3.42 l 11.29,4.75 v 1.15 1.91 -0.12 0.12 1.05 -2.12 l 11.3,3.67 v 3.07 1.14 1.53 1.96 4.17 -1.81 3.06 l 11.3,-2.54 v 5.71 -1.77 2.32 3 -0.03 0.8 -1.2 l 11.3,3.04 v 2.97 3.58 0.24 5.73 -5.34 2.96 3.73 l 11.29,0.7 v 3.67 -0.53 -1.09 2.19 3.03 0.01 l 11.3,-0.86 v 2.74 2.8 1.83 2.6 -3.64 4.5 -2.12 l 11.3,6.75 v -5.6 1.64 0.74 5.35 -2.15 -0.13 1.49 l 11.3,3.2 v 3.21 1.22 2.48 0.18 4.76 -1.35 2.53 l 11.29,1.37 v 2.18 -3.19 2.56 3.65 0.19 0.96 l 11.3,3.34 v -1.47 0.46 0.05 2.34 0.23 2.71 1.46 l 11.3,-1.32 v 6.2 -2.2 5.02 -1.65 5.06 -5.21 7.07 l 11.29,0.85 v -1.9 2.62 0.84 4.34 2.44 0.87 -0.68 l 11.3,5.98 v -0.99 2.19 0.57 4.24 -3.85 5.14 -0.08 l 11.3,1.05 v 1.78 3.29 -0.95 0.24 3.88 1.53 -0.46 l 11.3,2.78 v 1.45 -0.79 2.92 1.76 0.47 2.87 l 11.29,-0.25 v -0.04 0.95 1.47 -1.86 4.85 -1.83 3.75 l 11.3,-3.95 v 3.73 2.9 -0.05 1.07 -0.67 4.22 -1.23 l 11.3,-0.73 v 2.27 0.97 1.83 -0.26 3.74 0.96 l 11.3,3.24 v -1.56 1.29 -0.49 2.36 1.69 1.73 1.2 l 11.29,-0.25 v 3.22" /><path
         id="path2122"
         style="fill:none;stroke:#e36f47;stroke-width:8;stroke-linecap:butt;stroke-linejoin:miter;stroke-miterlimit:10;stroke-dasharray:none;stroke-opacity:1"
         d="m 698.58,5199.95 v -6.09 -0.33 -2.37 2.57 l 11.3,3.85 v -2.9 1.99 -2.31 3.9 -2.31 -0.07 l 11.3,1.96 v -2.16 -0.2 3.98 -6.63 2.33 -2.56 10.01 l 11.3,-7.71 v -3.04 6.32 -2.46 0.15 -1.47 0.9 -1.48 l 11.29,-0.09 v -1.28 6.18 -4.84 0.58 -3.33 5.28 2.1 l 11.3,-3.53 v 2.95 -1.76 -0.72 0.54 -0.01 -3.87 l 11.3,3.3 v 0.97 -0.58 1.39 -4.72 2.39 -0.64 -1.22 l 11.3,6.34 v -4.56 4.01 0.27 -6.81 2.41 -0.85 -1.09 l 11.29,2.21 v -5.06 4.63 -1.21 4.84 -1.83 1.47 l 11.3,-0.41 v -2.18 -0.46 -0.73 -1.61 2.78 4.54 -5.05 l 11.3,0.54 v 0.91 -0.78 2.07 0.59 -1.33 -1.71 -1.04 l 11.3,-1.42 v 2.92 -2.98 6.24 -4.67 1.07 -1.29 -4.42 l 11.29,4.18 v 0.17 3.78 -0.47 -0.42 -3.65 -2.03 l 11.3,-4.2 v -0.68 6.09 -1.98 -1.28 3.63 -0.44 4.75 l 11.3,0.59 v -8.4 -59.16 -9.73 11.66 -4.22 3.69 9.97 l 11.3,-19.32 v -6.54 5.2 7.66 -3.07 7.88 1.63 l 11.29,-2.84 v -2.43 -13.56 11.85 2.86 -1.2 2.62 -8.52 l 11.3,8.94 v -9.42 10.43 -9.16 7.79 -17.5 15.21 3.69 l 11.3,1.39 v -8.39 7.32 -1.92 -11.07 -7.16 17.77 6.95 l 11.29,4.78 v -10.95 -6.37 2.99 4.01 0.57 6.29 l 11.3,-22.11 v 11.51 -10.8 5.96 0.87 10.61 -7.79 -0.07 l 11.3,3.18 v 6.86 -7.24 -5.25 8.01 -1.88 -3.65 4.37 l 11.3,-15.97 v 4.6 9.91 -7.36 0.59 -0.55 6.64 -4.62 l 11.29,20.61 v -14.52 -9.49 -13.13 20.24 -1.04 -8.57 l 11.3,-1.82 v 12.7 -16.2 2.19 10.38 2.88 -9.04 6.45 l 11.3,-7.15 v 7.46 -0.44 -7.59 9.52 2.69 -0.03 -9.5 l 11.3,-0.14 v 14.46 -17.36 5.74 5.6 -8.18 2.9 -2.09 l 11.29,4.4 v -5.38 -7.95 8.12 -9.57 10.16 -1.98 l 11.3,-0.27 v 1.88 2.12 0.69 5.14 -3.54 -2.88 9.55 l 11.3,-15.56 v 10.12 -10.7 9.96 -10.78 17.86 -7.78 6.86 l 11.3,-12.7 v 8.9 -8.42 3.28 -1.31 4.5 -18.48 22.33 l 11.29,-13.96 v 6.49 -9.38 8.16 -3.2 8.51 1.32 -4.14 l 11.3,-3.97 v 6.23 -10.11 5.61 -3.06 -5.27 8.82 l 11.3,2.47 v -9.79 8.74 -9.83 10.65 -5.82 8.15 -11.55 l 11.3,9.43 v 11.68 -18.05 4.54 7.41 -10.52 5.2 -9.3 l 11.29,-3.3 v 11.59 -6.02 -1.65 -2.17 15.06 -16.69 l 11.3,12 v -8.28 10.33 -2.77 1.86 -12.94 2.8 7.34 l 11.3,-5.66 v -4.69 18.76 -6.54 6.7 -8.92 1.11 0.37 l 11.3,-5.03 v 5.41 -7.99 8.51 0.52 2.13 -14.35 3.79 l 11.29,-0.4 v -1.43 -1.09 3.2 -0.3 4.33 -16.42 l 11.3,22.68 v -1.22 -9.88 2.73 -6.57 8.71 -2.83 9.23 l 11.3,-3.59 v -1.15 -9.4 5.65 -6.42 7.02 6.56 -6.83 l 11.29,-0.7 v -1.83 5.6 4.19 -5.9 -0.44 1.81 -11.82 l 11.3,13.86 v -4.29 -9.77 8.3 4.16 -3.87 0.84 l 11.3,-4.49 v 4.48 4.72 -5.58 9.9 -8.45 -1.94 -8.06 l 11.3,11.66 v -0.68 -17.3 20.21 -0.87 0.73 -0.95 2.07 l 11.29,-11.33 v 13.04 0.56 -17.61 8.86 1.31 -6.87 13.17 l 11.3,-4.51 v -2.84 6.13 4.14 -5.76 0.66 3.33 l 11.3,-3.92 v -0.55 4.39 -1.07 -8.35 0.44 4.37 3.11 l 11.3,2.17 v -5.2 -3.23 13.7 -7.62 4.95 -12.04 -2.55 l 11.29,12.59 v 5.76 -15.65 -2.38 -0.27 5.83 0.21 -0.21 l 11.3,-8.01 v 14.49 -3.72 -13.27 -0.21 17.67 -1.34 l 11.3,-1.46 v -2.23 -0.96 -5.23 0.14 7.25 -4.03 13.85 l 11.3,-13.79 v 3.08 -6.48 3.73 1.99 -13.51 19.19 -1.62 l 11.29,-3.06 v 3.73 -5.28 3.84 3.34 -10.96 3.58 6.39 l 11.3,-1.53 v -15.47 11.85 7.33 -11.64 0.58 6.89 6.23 l 11.3,-4.03 v -4.78 -13.36 14.09 1.68 -14.51 9.53 -1 l 11.3,10.42 v -1.32 -1.75 -6.23 -4.09 8.5 -1.06 l 11.29,-14.91 v 0.41 13 0.37 -3 3.52 -16.91 24.69 l 11.3,-17.84 v 4.09 12.87 0.93 0.31 -0.44 -18.47 11.95 l 11.3,-0.24 v -0.73 11.9 -20.65 9.61 -2.19 5.04 1 l 11.3,1.24 v 5.85 -7.81 -1.77 4.54 -14.53 13.36 l 11.29,-21.63 v 25.12 -4.53 1.74 -7.68 9.36 -10.41 -0.18 l 11.3,4.7 v 1.13 -2.72 5.51 -12.89 6.83 12.34 -1.68 l 11.3,-10.4 v 1.35 10.49 -7.99 -0.65 -7.64 -18.45 22.99 l 11.29,-2.14 v 12.61 -7.11 2.25 -8.24 9.69 -4.25 l 11.3,-20.73 v 13.8 8.63 -2.09 0.75 -9.25 7.56 -3.56 l 11.3,4.53 v 1.83 5.11 -12.5 10.37 -3.87 2.49 l 11.3,1.64 v -9.35 0.88 10.3 -11.16 0.04 14.88 -21.1 l 11.29,5.47 v 4.39 -6.02 -6.48 16.74 -9.07 2.26 4.69 l 11.3,7.56 v -9.46 -7.37 2.65 -1.3 6.26 -2.42 -0.1 l 11.3,9.48 v -16.38 16.55 -5.79 4.69 -5.52 7.08 l 11.3,-4.98 v -18.95 31.8 -13.05 -12.05 12.57 -7.29 5.68 l 11.29,-5.1 v 17.64 -12.9 -5.41 12.46 -7.38 -0.73 -3.21 l 11.3,12.59 v -3.68 3.08 -10.69 6.58 2.4 -14.03 10.63 l 11.3,4.89 v -5.35 5.22 -13.84 12.38 -11.94 6.92 l 11.3,0.11 v 8.71 -3.84 0.89 -15 7.22 -0.05 -3.52 l 11.29,10.82 v -14.16 19.09 -10.83 7.23 -6.03 -0.05 -8.51 l 11.3,2.95 v 15.09 -5.32 -7.75 -5.29 23.26 -11.11 0.5 l 11.3,3.1 v -1.3 3.82 -10.28 -0.22 9.04 -2.42 l 11.3,1.97 v 2.31 -17.34 11.64 7.82 -3.82 -18.89 15.51 l 11.29,-7.33 v 11.61 -21.68 4.7 9.31 3.53 -18.46 13.47 l 11.3,1.31 v 4.45 3.9 -13.97 16.73 -8.41 7.94 -3.55 l 11.3,-2.97 v 0.23 -1.99 8.33 -7.23 -3.78 2.75 l 11.3,-1.02 v 2.99 5.65 -8.17 1.26 7.25 -8.33 3.44 l 11.29,-13.89 v -2.89 16.81 -8.23 10.94 -10.31 16.32 -7.16 l 11.3,4.85 v -13.15 6.33 -1.97 -12.64 21.83 -6.9 -1.68 l 11.3,-4.73 v 12 -13.21 2.6 11.36 -9.23 -6.55 l 11.29,7.34 v 3.55 9.59 -3.06 0.38 -10.97 3.95 2.8 l 11.3,-23.95 v 16.6 1.34 -4.7 4.36 -1.64 6 -1.64 l 11.3,9.64 v -11.86 -0.04 -5.95 6.19 1.41 3.35 l 11.3,1.54 v -7.13 -6.5 6.64 1.88 -0.84 -13.54 19.81 l 11.29,-3.72 v 5.86 -10.68 9.73 -1.94 2.13 -9.26 -1.55 l 11.3,21.5 v -18.17 17.68 -2.21 -16.92 -2.34 5.04 l 11.3,-4.43 v 11.33 4.15 4.98 -0.85 8.58 -31.77 21.55 l 11.3,-24.99 v 14.5 1.34 -3.74 2.58 -1.22 5.03 -5.45 l 11.29,-4.93 v 3.76 1.42 4.63 -5.91 4.77 -7.01 l 11.3,10.09 v -13.35 9.72 0.76 -3.53 -6.93 12.96 -1.05 l 11.3,-14.89 v 12.18 3.52 -5.54 -0.18 -0.43 0.44 2.11 l 11.3,11.09 v -10.4 -8.39 10.74 -5.98 3.12 -1.38 l 11.29,-0.32 v 6.97 -6.73 5.19 -6.32 -0.2 7.19 -6.93 l 11.3,-2.65 v 2.74 1.39 1.4 4.79 -7.82 3.75 7.75 l 11.3,-0.61 v -6.34 -3.91 11.97 1.03 -12.17 9.88 -7.07 l 11.3,5.34 v -2.4 2.49 -12.36 13.89 -9.17 10.03 l 11.29,-8.09 v 17.34 -27.36 8.14 7.83 -5.94 3.25 3.81 l 11.3,-4.47 v 13.04 -9.38 -4.96 -3.94 4.26 -3.35 -5.53 l 11.3,-2 v 5.71 1.99 -4.04 6.44 7.51 -17.9 -7.07 l 11.3,11.59 v 6.4 -2.41 7.28 2.02 -0.87 -11.04 l 11.29,3.02 v -1.44 7.56 -2.98 5.04 -8.85 -3.39 -5.83 l 11.3,9.38 v -2.46 4.88 9.76 182 96.21 -103.56 -50.03 l 11.3,-27.46 v -13.42 -5.41 -33.32 -10.66 7.7 -14.36 1.51 l 11.29,0.95 v 6.93 -9.74 -22.24 -0.53 17.47 -3.73 l 11.3,-1.05 v -16.56 -2.17 -1.09 8.41 6.77 -5.5 -6.48 l 11.3,-1.09 v -4 3.35 -5.61 14.25 -19.04 1.42 l 11.3,9.02 v -1.67 -7.71 10.86 -4.03 -0.6 -4.94 1.88 l 11.29,-23.77 v 22.23 -1.61 -8 21 -8.1 -19.73 23.64 l 11.3,-9.41 v -10.17 15.23 -0.18 -7.85 0.22 7.13 -0.7 l 11.3,-9.17 v -2.34 2.65 1.27 -12.69 6.07 5.69 l 11.3,-1.15 v -6.8 7.53 13.32 -16.09 7.51 -10.61 -0.95 l 11.29,4.99 v 1.18 15.33 -17.94 13.22 -5.69 -5.48 l 11.3,-2.8 v 12.94 -24.47 30.31 -6.79 -7.13 -5.95 -0.55 l 11.3,3.39 v 2.84 -7.62 0.97 0.9 1.11 5.5 -4.73 l 11.3,-3.54 v -1.15 -1.78 10.1 -2.31 -4.24 4.05 l 11.29,-18.88 v 10.27 12.08 -3 -5.64 0.69 3.82 2.19 l 11.3,-1.6 v -1.48 -0.68 -14.67 16.03 -5.44 1.3 -1 l 11.3,-1.99 v -1 5.45 -8.35 18.73 -24.73 7.64 -4 l 11.3,4.7 v 1.12 16.51 1.07 -5.11 -5.32 -7.68 8.69 l 11.29,12.2 v -22.2 -1.58 15.5 -8.23 -6.08 7.23 l 11.3,7.17 v -12.2 -6.39 8.74 -9.09 14.08 2.66 -4.06 l 11.3,-0.86 v -1.56 3.93 -6.39 8.2 -4.93 10.65 -7.87 l 11.3,-7.07 v 6.21 0.13 1.02 -1.19 4.59 -3.55 -4.98 l 11.29,8.77 v -2.27 -5.24 12.53 -9.33 0.81 0.53 l 11.3,-4.33 v -9.19 12.66 -0.23 2.59 -17.83 10 3.33 l 11.3,-2.42 v -13.11 6.29 7.35 3.07 -11.62 9.99 0.02 l 11.3,5.84 v 1.53 -0.7 1.02 -12.51 12.11 -9.65 -6.86 l 11.29,10.43 v 9.87 -4.84 -18.24 10.46 2.98 5.02 -11.04 l 11.3,5.17 v 3.35 -0.01 7.38 -4.37 -0.8 -7.24 -4.01 l 11.3,4.14 v 4.21 -3.48 5.18 -6.68 -5.99 1.98 l 11.29,13.96 v -5.2 -4.43 -4.1 13.99 -2.58 -1.03 -5.34 l 11.3,-4.77 v 8.61 2.59 -8.74 2.82 7.36 -8.47 9.63 l 11.3,-11.76 v 9.44 -11.63 9.44 -10.1 12.74 -12.71 l 11.3,7.75 v -1.51 7.33 1.76 4.82 0.75 -9.08 -7.6 l 11.29,1.9 v 0.4 -1.96 0.62 6.06 -2.84 -14.14 15.59 l 11.3,-0.16 v -3.45 -9.91 12.04 2.76 5.63 0.61 l 11.3,-11.14 v 12.28 -12.52 -1.71 12.7 -11.57 3.13 -3.03 l 11.3,-1.63 v -0.55 1.41 4.37 -2.38 -0.93 2.84 -3.76 l 11.29,17.82 v -5.12 -10.78 1 6.27 -4.39 -4.63 1.22 l 11.3,18.48 v -6.51 -14.35 2.86 -2.35 10.24 2.54 l 11.3,-9.19 v 4.74 3.68 -4.04 -9.93 3.14 0.69 2.97 l 11.3,9.04 v -8.16 -4.65 2.17 -10.84 11.06 4.62 -7.36 l 11.29,12.75 v -8.16 -10.68 14.67 -11.25 3.09 10.12 -10.17 l 11.3,0.73 v 6.37 3.11 -5.73 6.74 -20.9 13.81 l 11.3,-5.75 v -6.12 9.55 -2.16 -10.53 25.42 -2.65 -4.52 l 11.3,-7.78 v 2.1 -10.62 11.49 -1.77 1.44 -7.19 12.36 l 11.29,-16.45 v 20.28 0.18 4.74 -9.4 -12.77 13.57 l 11.3,-4.45 v -4.65 -2.89 13.6 -7.96 -7.22 7.42 -8.58 l 11.3,3.27 v 12.53 2.76 -13.13 14.94 -11.95 3.61 3.98 l 11.3,-4 v -6.75 6.72 3.15 -4.09 8.25 -12.26 l 11.29,7.2 v 0.63 -5.91 -2.63 12 -1.83 -3.56 5.17 l 11.3,-10.26 v 7.21 -8.25 4.72 -1.77 0.19 -7.2 9.1 l 11.3,-2.2 v 2.74 -4.65 1.27 3.78 -5.52 -0.15 17.22 l 11.29,-14.03 v 10.45 -11.27 0.01 -3.22 0.37 -5.72 l 11.3,0.34 v 8.09 -1.49 -1.19 1.45 8.66 -6.4 8.38 l 11.3,1.25 v -1.65 1.7 -10.49 3.72 -0.55 -1.82 l 11.3,3.66 v 7.25 -27.47 8.37 -3.58 20.14 -8.47 -4.38 l 11.29,3.7 v -6.57 8.14 3.09 -5.2 5.29 1.53 -15.42 l 11.3,24.12 v -15.54 8.12 -6 4.79 -8.56 1.53 3.23 l 11.3,-10.7 v 4.38 2.96 11.9 -8.8 -3.13 -2.55 l 11.3,6.19 v -10.24 6.41 -1.58 -2.75 0.24 8.29 -5.39 l 11.29,0.59 v 7.9 -10.56 6.11 -5.58 4.52 2.1 l 11.3,-1.35 v -6.83 4.61 7.89 5.75 -5.32 -2.77 -14.31 l 11.3,6.8 v 13.51 -11.71 6.95 -10.63 -4.96 15.19 -15.32 l 11.3,13.2 v 1.33 -0.71 -7.2 -1.66 -3.53 21.23 -17.14 l 11.29,4.66 v 9.56 -5.79 -5.73 -0.7 -6.61 2.42 l 11.3,3.75 v 1.85 -5.08 6.18 -8.93 9 -1.1 0.41 l 11.3,-3.04 v -6.49 10.15 -1.81 5.5 -11.59 7.1 -8.99 l 11.3,9.98 v -1.7 7.09 -7.75 14.04 -16.41 5.55 1.54 l 11.29,-2.39 v 4.89 -9.71 10.01 -6.08 -1.46 -1.27 l 11.3,3.39 v -3.63 7.46 -4.98 7.58 -8.65 5.52 -7.21 l 11.3,8.34 v -17.89 7.75 -7.84 8.79 5.71 -8.74 3.59 l 11.3,0.7 v 0.13 11.41 -5.3 -13.8 16.02 -4.82 10.16 l 11.29,-2.58 v 3.76 -10.93 7.02 -0.57 -6.31 -2.76 l 11.3,15.41 v -14.28 1.54 -0.62 1.82 0.98 2.89 5.95 l 11.3,-20.32 v 5.39 8.56 -2.96 -1.57 1.88 -16.7 17.87 l 11.29,-2.28 v -7.88 4.03 -8.28 21.6 -1.32 -0.98 -6.68 l 11.3,13.37 v -16.95 16.92 -11.12 5.95 -19.61 15.71 0.74 l 11.3,-6.29 v 8.7 -0.49 -6.64 -1.34 2.44 7.89 -12.96 l 11.3,3.44 v 0.76 -1.93 1.36 5.39 -4.41 5.08 l 11.29,1.87 v -4.32 -4.22 -6.31 13.04 -2.07 -3.71 5.05 l 11.3,-5.97 v 8.1 -1.17 -2.88 4.81 3.7 -10.75 1.93 l 11.3,0.96 v 1.9 -6.6 16.05 -12 5.65 2.89 l 11.3,-4.9 v -13.69 8.16 6.33 -1.44 -2.01 1.59 4.2 l 11.29,-2.02 v 6.55" /><path
         id="path2124"
         style="fill:none;stroke:#3ea44e;stroke-width:8;stroke-linecap:butt;stroke-linejoin:miter;stroke-miterlimit:10;stroke-dasharray:none;stroke-opacity:1"
         d="m 698.58,5126.08 v 2.6 -0.32 0.69 -0.1 l 11.3,-2.05 v 1.42 -0.91 0.38 -0.53 -0.31 0.8 l 11.3,-0.62 v 0.85 0.26 -1.06 1.79 -1.17 0.83 -2.18 l 11.3,2.22 v 0.48 -2.39 0.67 -0.56 1.46 0.35 -0.88 l 11.29,0.13 v 1.58 -2.53 1.5 0.22 0.11 -1.77 -0.18 l 11.3,1.76 v -0.31 0.15 -0.6 -0.1 0.67 -0.53 l 11.3,1.22 v -1.74 -0.18 0.45 0.75 -0.82 0.2 1.27 l 11.3,-2.65 v 1.98 -1.28 0.18 0.93 0.12 -1.32 1.34 l 11.29,0.27 v 1.23 -2.58 1.46 -1.44 1.32 -1.74 l 11.3,0.32 v 0.74 -0.74 1.28 0.3 -0.95 -0.95 1.27 l 11.3,-0.46 v 0.54 -1.05 0.27 0 -0.33 -0.19 1.61 l 11.3,0.23 v -1.32 0.58 -0.79 1.7 -1.32 1.03 1.5 l 11.29,-1.13 v -2.04 0.9 -0.33 0.04 0.58 1.09 l 11.3,0.43 v 0.33 -0.71 0.08 0.11 -1.02 1.02 -2.29 l 11.3,-0.29 v 2.01 15.88 7.38 -8.51 3.78 -5.1 -4.94 l 11.3,11.12 v 8.42 -9.08 -3.63 4.24 -3.72 -2.75 l 11.29,1.77 v 1.78 8.59 -10.01 0.34 0.32 1.1 0.18 l 11.3,-0.86 v 5.35 -6.71 4.2 -3.79 10.52 -9.4 0.58 l 11.3,-6.87 v 6.57 -4.25 4.86 0.92 0.79 -5.44 -3.2 l 11.29,-0.34 v 2.15 4.92 -1.5 -0.52 -1.28 -0.71 l 11.3,5.88 v -4.94 6.23 -4.01 1.39 -7.33 7.99 -4.57 l 11.3,2.69 v -8.93 8.98 0.58 -6.41 4.82 -1.57 0.52 l 11.3,6.15 v 0.67 -6.54 4.05 -3.25 2.17 -2.18 3.17 l 11.29,-14.26 v 7.88 4.29 15.85 -19.67 0.14 3.66 l 11.3,7.18 v -8.68 13.07 -6.58 -10.1 3.25 2.42 -5.65 l 11.3,5.72 v -3 1.44 4.48 -6.63 1.26 -1.29 2.88 l 11.3,1.83 v -6.79 9.63 -4.54 -0.91 4.2 -2.57 -2.01 l 11.29,0.52 v 1.93 0.8 -0.31 1.78 -3.18 1.07 l 11.3,-0.84 v 0.25 -0.72 -0.34 -2.42 2.26 -0.72 -0.36 l 11.3,2.09 v -1.86 3.97 -6.84 10.15 -12.49 7.07 -5.55 l 11.3,5.91 v -3.17 6.22 -4.38 0.22 -2.3 12.56 -13.07 l 11.29,6.71 v -3.56 2.41 -2.32 0.94 -2.57 -4.39 0.71 l 11.3,4.83 v -1.39 1.81 -0.6 -0.07 3.81 -4.49 l 11.3,-0.15 v 2.16 -6.41 9.29 -4.49 0.71 -1.83 4.49 l 11.3,-7.97 v -3.87 10.22 -1.52 -0.99 1.59 -2.56 2.74 l 11.29,5.72 v -7.4 2.95 0.94 0.26 -4.52 3.7 l 11.3,-2.75 v 3.87 -6.95 0.77 0.39 4.14 4.9 -5.59 l 11.3,-2.56 v 11.49 -13.38 3.19 -2.48 0.94 1.23 -2.02 l 11.3,-1.72 v 2.61 2.15 -4.19 3.22 -4.34 8.05 -2.11 l 11.29,-2.25 v 2.53 5.1 -6.64 -0.54 2.78 8.18 l 11.3,-11.97 v -5.03 8.01 -5.64 6.14 -1.62 -0.87 -2.13 l 11.3,-3.3 v 4.46 5.33 -2.71 0.17 -2.15 -2.95 3.22 l 11.29,1.14 v -0.68 -7.88 1.51 7.81 1 -4.79 6.3 l 11.3,-5.71 v 2.4 3.77 -6.74 -0.55 1.86 -0.76 l 11.3,6.24 v -1.49 -7.76 2.31 -3.61 5.31 -1.9 7.31 l 11.3,-4.48 v -1.42 11.19 -14.62 1.8 -0.03 -0.76 1.23 l 11.29,2.44 v -6 1.4 6.82 -3.04 1.79 1.97 -4.16 l 11.3,0.68 v -1.66 0.5 -1.86 -0.24 1.49 -5.12 l 11.3,0.85 v 5.81 -2.84 1.3 2.03 -2.73 2.41 -4.91 l 11.3,1 v 2.22 -0.1 -3.42 1.8 -3.98 7.76 -1.13 l 11.29,-2.54 v -8.13 9.34 1.18 1.89 -1.48 -3.01 1.96 l 11.3,-0.39 v -3.54 3.64 4.46 -0.92 -6.12 -0.41 l 11.3,0.85 v 2.17 -0.03 3.23 -2.26 -3.3 1.75 -1.25 l 11.3,2.12 v -1.28 -0.21 3.97 -2.9 4.48 -9.24 4.88 l 11.29,-3.39 v 2.66 2.39 -0.21 -4.98 7.19 -4.15 -4.64 l 11.3,2.6 v 2.88 -3.09 -0.35 4.9 -4.02 -1.46 -4.53 l 11.3,6.54 v 4.02 1.88 -5.62 -1.25 2.08 -0.69 2.72 l 11.3,-5.69 v 0.08 1.82 -0.63 3.95 -6.4 2.8 l 11.29,5.42 v -0.41 -3.16 -3.64 4.26 -3.17 14.3 -16.32 l 11.3,13.81 v -8.58 -5.77 -0.08 1.7 -3.4 9.33 -5.01 l 11.3,-0.09 v 1.13 -7.3 9.91 -4.25 0.94 -3.49 1.59 l 11.3,3.47 v -9.27 6.53 0.42 0.28 4.42 -2.79 l 11.29,4.31 v -7.48 3.94 -9.25 5.88 0.24 3.29 -4.9 l 11.3,2.24 v -1.86 -3.78 1.76 6.33 -1.77 -4.57 0.59 l 11.3,3.23 v -3.08 -2.32 4.51 0.08 3.3 11.76 -10.95 l 11.29,-8.75 v 2.98 0.81 -1.25 3.13 -2.72 2.81 l 11.3,12.3 v -13.38 -0.18 3.62 -4.55 2.08 -3.54 -2.07 l 11.3,2.24 v 1.29 -3.51 5.53 -2.81 -4.8 6.99 l 11.3,-2.45 v 1.03 2.45 -8.9 9.4 -1.55 -7.39 8.93 l 11.29,-1.39 v -6.51 8.74 0.04 -8.7 15.46 -8.8 -4.47 l 11.3,0.68 v 3.2 0.19 -1.15 4.83 -6.73 -4.02 4.55 l 11.3,-1.41 v 7.18 -12.5 4.27 -1.38 5.95 -6.86 l 11.3,4.76 v 8.04 -10.74 -0.03 5.13 -5.74 6.14 -4.33 l 11.29,5.53 v -10.33 12.86 -6.41 -0.55 2.95 0.13 0.06 l 11.3,-4.38 v -0.85 1.9 0.65 -2.57 0.68 6.79 -5.33 l 11.3,-0.33 v -1.26 -0.88 2.64 -2.09 3.14 1.2 l 11.3,-3.25 v -5.08 6.1 -3.74 5.25 -0.5 1.52 -1.58 l 11.29,-0.83 v 8.66 -15.92 8.4 -9.55 6.45 2.86 0.38 l 11.3,0.89 v -4.31 4.19 -1.11 1.3 -8.15 1.29 1.83 l 11.3,-2.23 v 0.92 -1.45 7.43 -1.82 -3.36 2.88 l 11.3,4.11 v -5.57 2.98 -5.76 -1.31 3.98 3.06 -4.6 l 11.29,6.74 v -2.63 1.17 -2.68 0.86 -2.42 16.82 -12.13 l 11.3,-5.52 v -2.72 4.77 2.72 -9.35 5.56 -4.41 2.64 l 11.3,0.48 v -1.51 0.44 -2.23 0.83 7.32 -9.65 l 11.3,5.48 v 0.62 -3.58 0.39 4.1 -8.94 10.16 -0.03 l 11.29,0.94 v 11.87 -16.18 4.59 -6.68 7.63 -8.91 5.5 l 11.3,-3.01 v 5.49 -5.36 3.06 2.06 -6.82 4.79 -4.35 l 11.3,4.22 v -6.55 6.78 -2.36 -0.34 1.9 0.74 l 11.29,-0.31 v -5.21 -0.82 -1.08 4.85 0.52 1 -1.93 l 11.3,5.13 v -4.93 -0.55 6.49 -5.91 3.94 -8.05 1.27 l 11.3,3.74 v 3.27 -4.14 3.38 1.48 1.15 -5.68 l 11.3,-0.18 v 2.2 3.48 -6.27 -0.06 1.34 11.32 -11.7 l 11.29,1.32 v -9.47 9.95 -6.09 2.97 -0.57 2.91 0.76 l 11.3,-12.18 v 11.42 -5.16 -3.2 6.46 8.11 -6.66 l 11.3,2.69 v -4.44 -5.6 -0.87 -3.68 -2.09 13.51 -6.49 l 11.3,14.63 v -8.36 -0.44 0.71 -3.72 2.15 -1.52 2.5 l 11.29,-0.9 v -0.44 0.45 -1.19 1.98 -1.8 3.94 l 11.3,-4.84 v 4.04 -4.83 0.68 3.13 0.45 -3.91 2.53 l 11.3,1.54 v -2.74 -1.13 5.85 -5.67 1.97 0.53 -3.16 l 11.3,-2.84 v 4.99 0.11 -1.09 -0.07 -1.16 4.05 l 11.29,-0.23 v -0.13 -0.04 -0.77 -0.26 -2.27 -4.27 6.23 l 11.3,0.89 v -2.07 -0.85 1.65 -6.65 6.59 0.7 -3.63 l 11.3,-3.24 v 4.41 0.82 -2.19 -6.28 9.56 -1.89 3.03 l 11.3,-2.53 v 0.14 0.53 2.02 -6.73 6.3 -5.95 l 11.29,4.75 v -8.88 10.08 -0.83 -3.11 0.73 1.2 -2.47 l 11.3,2.81 v -0.58 -0.89 3.11 -1.03 -1.27 -0.25 4.51 l 11.3,-1.08 v -1.94 3.69 -7.28 1.59 -2.7 5.44 12.95 l 11.3,-12.38 v -0.35 -4.42 -1.46 -0.3 2.03 2.82 l 11.29,-2.66 v 3.22 -0.15 3.98 -6.59 -1.97 3.9 2.88 l 11.3,-1.96 v -1.15 -2.36 -2.68 -457.71 772.27 -120.96 -45.49 l 11.3,-25.59 v -13.18 -22.93 -1.26 -1.59 -10.38 -1.59 -6.74 l 11.29,-4.12 v -6.59 -1.26 4.99 0.82 -12.43 -4.79 l 11.3,1.46 v 0.63 -1.72 1.15 -0.95 -10.38 2.45 3.41 l 11.3,0.84 v -2.49 -4.13 3.14 -8.58 7.75 -2.1 l 11.3,-2.64 v -0.33 -1.91 -3.32 4.94 -0.52 -0.47 -3.18 l 11.29,15.49 v -17.82 5.53 -1.65 -8.28 4.09 5.13 -9.2 l 11.3,2.92 v 3.85 -9.19 3.61 -1.36 2.88 -7.16 0.7 l 11.3,3.84 v 14.29 -13.75 -1.06 4.27 -0.1 -3.75 l 11.3,-2.75 v 9.25 -11.67 1.83 2.27 -3.73 2.37 2.27 l 11.29,-2.81 v -1.84 -8.04 13.23 -12.54 7.43 -1.88 l 11.3,5.2 v -11.28 10.18 -10.81 7.12 2.39 -0.39 -6.41 l 11.3,4.03 v 0.42 -0.12 -0.6 8.12 -5.31 -6.77 5.06 l 11.3,0.11 v -4.83 5 -0.98 -6.21 6.13 -2.14 l 11.29,6.88 v -3.41 -5.55 1.94 4.45 4.68 -6.97 -4.33 l 11.3,1.98 v 4.3 -2.27 11.78 -14.66 4.33 -5.83 4.34 l 11.3,2.72 v -3.39 -3.46 8.01 -5.87 16.29 -6.67 -3.62 l 11.3,-2.85 v -1.91 -3 -3.59 3.88 2.59 -4.51 3.58 l 11.29,-3.09 v 7.99 -1.06 -10.65 8.68 -0.66 1.58 l 11.3,-3.33 v 6.67 -3.2 -4.16 4 -2.43 0.67 -0.92 l 11.3,2.2 v -5.46 4.46 -0.01 -7.73 9.68 -3.77 0.85 l 11.3,-1.76 v 0.8 -0.96 2.59 -0.72 -1.32 -0.25 1.62 l 11.29,-5.01 v 3.41 2.67 -6.51 3.95 -7.79 10.25 l 11.3,-1.28 v 3.05 -9.22 9.66 -6.14 8.32 -4.33 0.24 l 11.3,-1.48 v 6.15 -1.18 -4.15 -0.91 7.78 -3.95 -5.19 l 11.3,0.42 v -4.81 6.19 -3.11 4.31 -0.64 1.51 6.9 l 11.29,-8.01 v -1.38 -4.17 13.09 -7.78 -0.28 -0.96 2.79 l 11.3,-2 v -0.62 2.28 -0.49 -3.61 -1.29 5.11 2.27 l 11.3,-4.33 v -1.81 2.95 -2.13 1.62 1.15 1.87 l 11.29,-3.19 v -2.92 5.21 2.63 -9.07 3.91 -4.62 3.06 l 11.3,6.26 v -8.09 4.21 0.59 1.53 -3.73 4.67 -4.18 l 11.3,2.71 v -3.69 4.24 -2.11 0.48 -2.98 5.26 l 11.3,-0.91 v -6.87 1.11 2.64 -6.98 -0.15 5.16 6.69 l 11.29,-4.56 v 1.22 -0.1 -1.13 -2.3 3.87 5.51 -8.19 l 11.3,1.73 v -0.29 9.73 -9.14 -1.84 -6.47 4.66 l 11.3,4.65 v -6.88 10.21 3.53 -10.43 1.03 -0.94 4.75 l 11.3,-0.74 v -1.33 -2.1 6.84 -7.28 1.51 -0.54 2.27 l 11.29,-6.53 v 3.51 -2.29 1.95 0.83 -0.46 3.86 -4.34 l 11.3,-6.39 v 5.01 4.8 0.43 -3.47 -0.6 -4.51 l 11.3,9.13 v -3.67 -0.5 -1.57 2.11 -0.13 1.25 1.45 l 11.3,-0.59 v 2.35 -0.42 -0.19 6.22 -6.87 -2.44 2.64 l 11.29,-3.38 v 2.28 8.12 -11.13 3.08 1.1 -3.2 2.75 l 11.3,-0.84 v -1.43 -2.79 2.37 0.5 5.48 -4.11 l 11.3,-1.16 v 4.58 -2.77 2.09 0.14 -3.78 -2.21 0.88 l 11.3,2.06 v 0.66 3.25 -4.12 -0.87 1.45 0.92 -4.92 l 11.29,4.39 v -3.15 -4.8 2.6 1.74 8.44 -7.38 l 11.3,1.97 v 2.04 -0.33 -5.04 7.2 -0.73 -4.34 8.91 l 11.3,-4.4 v -4.57 0.17 -1.22 -0.36 0.32 4.8 -3.58 l 11.3,0.2 v 2.41 -2.93 -1.56 5.56 -5.37 5.87 l 11.29,-5.48 v -4.67 9.14 6.75 -11.53 3.92 -1.29 -0.07 l 11.3,2.36 v -3.64 0.75 0.95 1.04 0.8 1.97 -7.03 l 11.3,1.95 v -3.13 6.46 -0.29 -0.3 0.12 4.26 -9.07 l 11.29,1.37 v 1.02 3.6 -2.21 0.96 -0.27 2.65 l 11.3,-0.06 v -0.86 -5.4 5.4 -7.19 3.27 0.13 2.65 l 11.3,-2.62 v -1.47 -1.23 5.17 -2.18 2.11 -0.09 l 11.3,0.13 v -3.17 9.1 -3.04 0.88 -3.39 1.88 -3.22 l 11.29,2.1 v 1.54 -1.84 -4.75 2.43 1.82 0.65 3.75 l 11.3,-7.44 v 0.32 1.52 3.84 -3.02 4.75 -1.97 -2.43 l 11.3,6.45 v -4.47 -1.82 -0.37 2.13 1.58 4.29 l 11.3,-3.93 v 1.95 -3.44 0.68 -0.37 -1.66 1.67 3.36 l 11.29,-3.14 v -2.66 2.85 0.74 1.45 -0.23 -1.19 l 11.3,1.48 v -2.42 1.8 -1.27 -3.47 1.14 -1.55 8.1 l 11.3,0.47 v -7.27 1.05 -0.51 5.37 5.85 -7.78 5.75 l 11.3,-6.08 v -2.67 -1.25 5.41 2.2 0.8 -9.78 6.9 l 11.29,0.59 v -7.94 0.9 9.26 -2.5 1.76 -3.77 l 11.3,2.58 v 0.6 1.33 -3 7.45 -3.6 -4.3 2.04 l 11.3,-2.33 v 7.2 -6.2 1.57 -2.49 7.38 -8.49 4.58 l 11.3,-2.53 v 3.75 -3.27 2.7 -3.46 -0.71 1.19 2.06 l 11.29,-1.54 v -0.55 10.26 -8.51 2.88 -0.13 3.69 l 11.3,-8.76 v 5.74 -2.7 3.36 -2.82 1.36 0.48 0.85 l 11.3,-1.3 v 4.38 -2.95 4.75 -3.84 -4.68 4.94 -4.71 l 11.3,3.68 v 3.88 -7.86 2.71 12.35 -12.11 1.29 -4.09 l 11.29,-1.58 v 1.88 2.49 -2.26 2.25 2.01 1.6 l 11.3,-7.55 v 5.94 -0.29 -1.78 1.79 -3.32 -0.99 -2.79 l 11.3,9.4 v 0.99 -4.25 2.07 0.68 -0.04 3.27 -4.52 l 11.29,0.69 v 0.36 0.6 4.23 -8.32 1.8 -0.22 1.01 l 11.3,-3.72 v 10.7 -13.85 6.89 -1.44 11.17 -9.95 -3.36 l 11.3,6.08 v -5.16 0.35 3.17 0.4 1.01 -6.36 11.32 l 11.3,-3.05 v -1.79 0.59 2.82 -6.92 3.64 -0.62 l 11.29,-0.78 v 1.15 2.26 8.82 -18.32 7.67 -0.06 1.08 l 11.3,-4.83 v -3.76 6.57 0.98 -4.16 -2.31 11.16 -2.22 l 11.3,-3.02 v 1.19 6.48 -14.67 8.17 -4.45 -1.79 l 11.3,8.81 v 3.48 0.49 -8.98 1.13 2.98 -1.1 -0.26 l 11.29,-3.87 v 2.77" /><g
         transform="translate(1425.4387,350.8772)"
         id="g3560"><g
           id="g2126"><g
             id="g2128"
             clip-path="url(#clipPath2132)"><path
               d="m 710.15,3573.64 h 1329.36 v 483.84 H 710.15"
               style="fill:#ffffff;fill-opacity:1;fill-rule:evenodd;stroke:none"
               id="path2134" /></g></g><path
           d="m 710.15,3573.64 h 1329.36 v 483.84 H 710.15 v -483.84"
           style="fill:none;stroke:#000000;stroke-width:8;stroke-linecap:butt;stroke-linejoin:miter;stroke-miterlimit:10;stroke-dasharray:none;stroke-opacity:1"
           id="path2136" /><path
           d="M 735.7,3936.52 H 888.98"
           style="fill:none;stroke:#009afa;stroke-width:8;stroke-linecap:butt;stroke-linejoin:miter;stroke-miterlimit:10;stroke-dasharray:none;stroke-opacity:1"
           id="path2138" /><path
           d="m 914.53,3971.08 h 39.72 v -7.87 h -30.37 v -20.37 h 27.41 v -7.87 h -27.41 v -33.01 h -9.35 z"
           style="fill:#000000;fill-opacity:1;fill-rule:evenodd;stroke:none"
           id="path2140" /><path
           d="m 956.29,3953.81 h 8.52 v -51.85 h -8.52 v 51.85 m 0,20.18 h 8.52 v -10.78 h -8.52 z"
           style="fill:#000000;fill-opacity:1;fill-rule:evenodd;stroke:none"
           id="path2142" /><path
           d="m 1003.79,3945.85 c 0,0 -1.44,0.83 -3.15,1.2 0,0 -1.67,0.42 -3.7,0.42 0,0 -7.23,0 -11.11,-4.73 0,0 -3.85,-4.67 -3.85,-13.47 v -27.31 h -8.56 v 51.85 h 8.56 v -8.06 c 0,0 2.69,4.73 6.99,6.99 0,0 4.31,2.32 10.47,2.32 0,0 0.88,0 1.94,-0.14 0,0 1.07,-0.09 2.36,-0.32 z"
           style="fill:#000000;fill-opacity:1;fill-rule:evenodd;stroke:none"
           id="path2144" /><path
           d="m 1045.78,3952.28 v -8.05 c 0,0 -3.61,1.85 -7.5,2.77 0,0 -3.89,0.93 -8.06,0.93 0,0 -6.34,0 -9.53,-1.95 0,0 -3.15,-1.94 -3.15,-5.83 0,0 0,-2.96 2.27,-4.67 0,0 2.27,-1.67 9.12,-3.2 l 2.91,-0.65 c 0,0 9.08,-1.94 12.87,-5.51 0,0 3.85,-3.52 3.85,-9.86 0,0 0,-7.22 -5.74,-11.43 0,0 -5.7,-4.22 -15.7,-4.22 0,0 -4.16,0 -8.7,0.84 0,0 -4.49,0.78 -9.49,2.4 v 8.8 c 0,0 4.72,-2.45 9.3,-3.7 0,0 4.59,-1.21 9.08,-1.21 0,0 6.02,0 9.26,2.04 0,0 3.24,2.08 3.24,5.83 0,0 0,3.48 -2.36,5.33 0,0 -2.32,1.85 -10.24,3.56 l -2.96,0.7 c 0,0 -7.91,1.66 -11.43,5.09 0,0 -3.52,3.47 -3.52,9.49 0,0 0,7.32 5.18,11.3 0,0 5.19,3.98 14.73,3.98 0,0 4.72,0 8.88,-0.7 0,0 4.17,-0.69 7.69,-2.08 z"
           style="fill:#000000;fill-opacity:1;fill-rule:evenodd;stroke:none"
           id="path2146" /><path
           d="m 1065.92,3968.53 v -14.72 h 17.54 v -6.62 h -17.54 v -28.15 c 0,0 0,-6.34 1.71,-8.15 0,0 1.76,-1.8 7.08,-1.8 h 8.75 v -7.13 h -8.75 c 0,0 -9.86,0 -13.61,3.65 0,0 -3.75,3.71 -3.75,13.43 v 28.15 h -6.25 v 6.62 h 6.25 v 14.72 z"
           style="fill:#000000;fill-opacity:1;fill-rule:evenodd;stroke:none"
           id="path2148" /><path
           d="m 1132.26,3963.39 v -25.97 h 11.76 c 0,0 6.53,0 10.09,3.38 0,0 3.57,3.38 3.57,9.63 0,0 0,6.2 -3.57,9.58 0,0 -3.56,3.38 -10.09,3.38 h -11.76 m -9.35,7.69 h 21.11 c 0,0 11.62,0 17.55,-5.28 0,0 5.97,-5.23 5.97,-15.37 0,0 0,-10.23 -5.97,-15.46 0,0 -5.93,-5.24 -17.55,-5.24 h -11.76 v -27.77 h -9.35 z"
           style="fill:#000000;fill-opacity:1;fill-rule:evenodd;stroke:none"
           id="path2150" /><path
           d="m 1204.85,3945.85 c 0,0 -1.43,0.83 -3.15,1.2 0,0 -1.66,0.42 -3.7,0.42 0,0 -7.22,0 -11.11,-4.73 0,0 -3.84,-4.67 -3.84,-13.47 v -27.31 h -8.57 v 51.85 h 8.57 v -8.06 c 0,0 2.68,4.73 6.99,6.99 0,0 4.3,2.32 10.46,2.32 0,0 0.88,0 1.95,-0.14 0,0 1.06,-0.09 2.36,-0.32 z"
           style="fill:#000000;fill-opacity:1;fill-rule:evenodd;stroke:none"
           id="path2152" /><path
           d="m 1213.79,3953.81 h 8.52 v -51.85 h -8.52 v 51.85 m 0,20.18 h 8.52 v -10.78 h -8.52 z"
           style="fill:#000000;fill-opacity:1;fill-rule:evenodd;stroke:none"
           id="path2154" /><path
           d="m 1274.34,3933.25 v -31.29 h -8.52 v 31.02 c 0,0 0,7.36 -2.87,11.01 0,0 -2.87,3.66 -8.61,3.66 0,0 -6.9,0 -10.88,-4.4 0,0 -3.98,-4.4 -3.98,-11.99 v -29.3 h -8.56 v 51.85 h 8.56 v -8.06 c 0,0 3.06,4.68 7.18,6.99 0,0 4.16,2.32 9.58,2.32 0,0 8.94,0 13.52,-5.56 0,0 4.58,-5.51 4.58,-16.25 z"
           style="fill:#000000;fill-opacity:1;fill-rule:evenodd;stroke:none"
           id="path2156" /><path
           d="m 1320.59,3951.82 v -7.97 c 0,0 -3.61,2 -7.27,2.97 0,0 -3.61,1.02 -7.31,1.02 0,0 -8.29,0 -12.87,-5.28 0,0 -4.58,-5.23 -4.58,-14.72 0,0 0,-9.49 4.58,-14.77 0,0 4.58,-5.23 12.87,-5.23 0,0 3.7,0 7.31,0.97 0,0 3.66,1.02 7.27,3.01 v -7.87 c 0,0 -3.56,-1.67 -7.4,-2.5 0,0 -3.8,-0.84 -8.11,-0.84 0,0 -11.71,0 -18.61,7.37 0,0 -6.9,7.36 -6.9,19.86 0,0 0,12.68 6.95,19.95 0,0 6.99,7.27 19.12,7.27 0,0 3.93,0 7.68,-0.83 0,0 3.75,-0.79 7.27,-2.41 z"
           style="fill:#000000;fill-opacity:1;fill-rule:evenodd;stroke:none"
           id="path2158" /><path
           d="m 1329.53,3953.81 h 8.52 v -51.85 h -8.52 v 51.85 m 0,20.18 h 8.52 v -10.78 h -8.52 z"
           style="fill:#000000;fill-opacity:1;fill-rule:evenodd;stroke:none"
           id="path2160" /><path
           d="m 1355.22,3909.73 v -27.5 h -8.56 v 71.58 h 8.56 v -7.87 c 0,0 2.69,4.63 6.76,6.85 0,0 4.12,2.27 9.82,2.27 0,0 9.44,0 15.32,-7.5 0,0 5.93,-7.5 5.93,-19.72 0,0 0,-12.23 -5.93,-19.73 0,0 -5.88,-7.5 -15.32,-7.5 0,0 -5.7,0 -9.82,2.23 0,0 -4.07,2.26 -6.76,6.89 m 28.98,18.11 c 0,0 0,9.39 -3.89,14.72 0,0 -3.84,5.37 -10.6,5.37 0,0 -6.76,0 -10.65,-5.37 0,0 -3.84,-5.33 -3.84,-14.72 0,0 0,-9.4 3.84,-14.77 0,0 3.89,-5.33 10.65,-5.33 0,0 6.76,0 10.6,5.33 0,0 3.89,5.37 3.89,14.77 z"
           style="fill:#000000;fill-opacity:1;fill-rule:evenodd;stroke:none"
           id="path2162" /><path
           d="m 1425.55,3928.02 c 0,0 -10.33,0 -14.31,-2.36 0,0 -3.98,-2.36 -3.98,-8.06 0,0 0,-4.53 2.96,-7.22 0,0 3.01,-2.64 8.15,-2.64 0,0 7.08,0 11.34,5 0,0 4.31,5.05 4.31,13.38 v 1.9 h -8.47 m 16.99,3.52 v -29.58 h -8.52 v 7.87 c 0,0 -2.92,-4.73 -7.27,-6.99 0,0 -4.35,-2.23 -10.65,-2.23 0,0 -7.96,0 -12.68,4.45 0,0 -4.68,4.49 -4.68,11.99 0,0 0,8.75 5.83,13.19 0,0 5.88,4.45 17.5,4.45 h 11.95 v 0.83 c 0,0 0,5.88 -3.89,9.08 0,0 -3.84,3.24 -10.83,3.24 0,0 -4.45,0 -8.66,-1.07 0,0 -4.21,-1.06 -8.1,-3.19 v 7.87 c 0,0 4.67,1.8 9.07,2.68 0,0 4.4,0.93 8.57,0.93 0,0 11.25,0 16.8,-5.83 0,0 5.56,-5.84 5.56,-17.69 z"
           style="fill:#000000;fill-opacity:1;fill-rule:evenodd;stroke:none"
           id="path2164" /><path
           d="m 1451.47,3973.99 h 8.52 v -72.03 h -8.52 z"
           style="fill:#000000;fill-opacity:1;fill-rule:evenodd;stroke:none"
           id="path2166" /><path
           d="m 1551.19,3965.75 v -9.86 c 0,0 -4.72,4.4 -10.09,6.58 0,0 -5.32,2.17 -11.34,2.17 0,0 -11.85,0 -18.15,-7.27 0,0 -6.3,-7.22 -6.3,-20.92 0,0 0,-13.66 6.3,-20.93 0,0 6.3,-7.22 18.15,-7.22 0,0 6.02,0 11.34,2.18 0,0 5.37,2.17 10.09,6.57 v -9.77 c 0,0 -4.9,-3.33 -10.41,-5 0,0 -5.47,-1.67 -11.58,-1.67 0,0 -15.69,0 -24.72,9.59 0,0 -9.03,9.63 -9.03,26.25 0,0 0,16.66 9.03,26.25 0,0 9.03,9.63 24.72,9.63 0,0 6.21,0 11.67,-1.67 0,0 5.51,-1.62 10.32,-4.91 z"
           style="fill:#000000;fill-opacity:1;fill-rule:evenodd;stroke:none"
           id="path2168" /><path
           d="m 1580.22,3947.84 c 0,0 -6.85,0 -10.83,-5.37 0,0 -3.98,-5.33 -3.98,-14.63 0,0 0,-9.31 3.93,-14.68 0,0 3.98,-5.32 10.88,-5.32 0,0 6.81,0 10.79,5.37 0,0 3.98,5.37 3.98,14.63 0,0 0,9.21 -3.98,14.58 0,0 -3.98,5.42 -10.79,5.42 m 0,7.22 c 0,0 11.11,0 17.45,-7.22 0,0 6.35,-7.23 6.35,-20 0,0 0,-12.74 -6.35,-20 0,0 -6.34,-7.23 -17.45,-7.23 0,0 -11.16,0 -17.5,7.23 0,0 -6.3,7.26 -6.3,20 0,0 0,12.77 6.3,20 0,0 6.34,7.22 17.5,7.22 z"
           style="fill:#000000;fill-opacity:1;fill-rule:evenodd;stroke:none"
           id="path2170" /><path
           d="m 1653.32,3943.85 c 0,0 3.2,5.75 7.64,8.48 0,0 4.45,2.73 10.46,2.73 0,0 8.11,0 12.5,-5.7 0,0 4.4,-5.64 4.4,-16.11 v -31.29 h -8.56 v 31.02 c 0,0 0,7.45 -2.64,11.06 0,0 -2.64,3.61 -8.06,3.61 0,0 -6.62,0 -10.46,-4.4 0,0 -3.84,-4.4 -3.84,-11.99 v -29.3 h -8.57 v 31.02 c 0,0 0,7.5 -2.64,11.06 0,0 -2.63,3.61 -8.14,3.61 0,0 -6.53,0 -10.37,-4.44 0,0 -3.85,-4.4 -3.85,-11.95 v -29.3 h -8.56 v 51.85 h 8.56 v -8.06 c 0,0 2.92,4.77 6.99,7.04 0,0 4.08,2.27 9.68,2.27 0,0 5.65,0 9.58,-2.87 0,0 3.98,-2.87 5.88,-8.34 z"
           style="fill:#000000;fill-opacity:1;fill-rule:evenodd;stroke:none"
           id="path2172" /><path
           d="m 1705.5,3909.73 v -27.5 h -8.57 v 71.58 h 8.57 v -7.87 c 0,0 2.68,4.63 6.76,6.85 0,0 4.12,2.27 9.81,2.27 0,0 9.45,0 15.33,-7.5 0,0 5.92,-7.5 5.92,-19.72 0,0 0,-12.23 -5.92,-19.73 0,0 -5.88,-7.5 -15.33,-7.5 0,0 -5.69,0 -9.81,2.23 0,0 -4.08,2.26 -6.76,6.89 m 28.98,18.11 c 0,0 0,9.39 -3.89,14.72 0,0 -3.84,5.37 -10.6,5.37 0,0 -6.76,0 -10.65,-5.37 0,0 -3.84,-5.33 -3.84,-14.72 0,0 0,-9.4 3.84,-14.77 0,0 3.89,-5.33 10.65,-5.33 0,0 6.76,0 10.6,5.33 0,0 3.89,5.37 3.89,14.77 z"
           style="fill:#000000;fill-opacity:1;fill-rule:evenodd;stroke:none"
           id="path2174" /><path
           d="m 1772.35,3947.84 c 0,0 -6.85,0 -10.83,-5.37 0,0 -3.99,-5.33 -3.99,-14.63 0,0 0,-9.31 3.94,-14.68 0,0 3.98,-5.32 10.88,-5.32 0,0 6.81,0 10.79,5.37 0,0 3.98,5.37 3.98,14.63 0,0 0,9.21 -3.98,14.58 0,0 -3.98,5.42 -10.79,5.42 m 0,7.22 c 0,0 11.11,0 17.45,-7.22 0,0 6.35,-7.23 6.35,-20 0,0 0,-12.74 -6.35,-20 0,0 -6.34,-7.23 -17.45,-7.23 0,0 -11.16,0 -17.5,7.23 0,0 -6.3,7.26 -6.3,20 0,0 0,12.77 6.3,20 0,0 6.34,7.22 17.5,7.22 z"
           style="fill:#000000;fill-opacity:1;fill-rule:evenodd;stroke:none"
           id="path2176" /><path
           d="m 1848.18,3933.25 v -31.29 h -8.52 v 31.02 c 0,0 0,7.36 -2.87,11.01 0,0 -2.87,3.66 -8.61,3.66 0,0 -6.9,0 -10.88,-4.4 0,0 -3.98,-4.4 -3.98,-11.99 v -29.3 h -8.56 v 51.85 h 8.56 v -8.06 c 0,0 3.06,4.68 7.18,6.99 0,0 4.16,2.32 9.58,2.32 0,0 8.94,0 13.52,-5.56 0,0 4.58,-5.51 4.58,-16.25 z"
           style="fill:#000000;fill-opacity:1;fill-rule:evenodd;stroke:none"
           id="path2178" /><path
           d="m 1901.47,3930.01 v -4.16 h -39.17 c 0,0 0.56,-8.8 5.28,-13.43 0,0 4.77,-4.58 13.24,-4.58 0,0 4.91,0 9.49,1.2 0,0 4.63,1.2 9.17,3.61 v -8.05 c 0,0 -4.58,-1.95 -9.4,-2.97 0,0 -4.81,-1.02 -9.77,-1.02 0,0 -12.41,0 -19.67,7.23 0,0 -7.23,7.22 -7.23,19.53 0,0 0,12.73 6.86,20.19 0,0 6.89,7.5 18.56,7.5 0,0 10.46,0 16.53,-6.76 0,0 6.11,-6.71 6.11,-18.29 m -8.52,2.5 c 0,0 -0.09,6.99 -3.93,11.16 0,0 -3.8,4.17 -10.1,4.17 0,0 -7.13,0 -11.43,-4.03 0,0 -4.26,-4.03 -4.91,-11.34 z"
           style="fill:#000000;fill-opacity:1;fill-rule:evenodd;stroke:none"
           id="path2180" /><path
           d="m 1953.51,3933.25 v -31.29 h -8.52 v 31.02 c 0,0 0,7.36 -2.87,11.01 0,0 -2.87,3.66 -8.61,3.66 0,0 -6.9,0 -10.88,-4.4 0,0 -3.98,-4.4 -3.98,-11.99 v -29.3 h -8.57 v 51.85 h 8.57 v -8.06 c 0,0 3.05,4.68 7.17,6.99 0,0 4.17,2.32 9.58,2.32 0,0 8.94,0 13.52,-5.56 0,0 4.59,-5.51 4.59,-16.25 z"
           style="fill:#000000;fill-opacity:1;fill-rule:evenodd;stroke:none"
           id="path2182" /><path
           d="m 1970.87,3968.53 v -14.72 h 17.54 v -6.62 h -17.54 v -28.15 c 0,0 0,-6.34 1.71,-8.15 0,0 1.76,-1.8 7.08,-1.8 h 8.75 v -7.13 h -8.75 c 0,0 -9.86,0 -13.61,3.65 0,0 -3.75,3.71 -3.75,13.43 v 28.15 h -6.25 v 6.62 h 6.25 v 14.72 z"
           style="fill:#000000;fill-opacity:1;fill-rule:evenodd;stroke:none"
           id="path2184" /><path
           d="M 735.7,3815.56 H 888.98"
           style="fill:none;stroke:#e36f47;stroke-width:8;stroke-linecap:butt;stroke-linejoin:miter;stroke-miterlimit:10;stroke-dasharray:none;stroke-opacity:1"
           id="path2186" /><path
           d="m 959.02,3847.85 v -9.12 c 0,0 -5.32,2.54 -10.05,3.79 0,0 -4.72,1.25 -9.12,1.25 0,0 -7.63,0 -11.8,-2.96 0,0 -4.12,-2.96 -4.12,-8.42 0,0 0,-4.59 2.73,-6.95 0,0 2.78,-2.31 10.46,-3.75 l 5.65,-1.16 c 0,0 10.46,-1.99 15.42,-7.03 0,0 5,-5 5,-13.43 0,0 0,-10.05 -6.76,-15.23 0,0 -6.71,-5.19 -19.72,-5.19 0,0 -4.91,0 -10.47,1.12 0,0 -5.51,1.11 -11.43,3.28 v 9.63 c 0,0 5.69,-3.19 11.16,-4.81 0,0 5.46,-1.62 10.74,-1.62 0,0 8.01,0 12.36,3.14 0,0 4.35,3.15 4.35,8.99 0,0 0,5.09 -3.15,7.96 0,0 -3.1,2.87 -10.23,4.3 l -5.7,1.12 c 0,0 -10.46,2.08 -15.13,6.52 0,0 -4.68,4.45 -4.68,12.36 0,0 0,9.17 6.44,14.45 0,0 6.48,5.28 17.82,5.28 0,0 4.86,0 9.91,-0.88 0,0 5.04,-0.88 10.32,-2.64 z"
           style="fill:#000000;fill-opacity:1;fill-rule:evenodd;stroke:none"
           id="path2188" /><path
           d="m 1016.47,3809.05 v -4.16 h -39.16 c 0,0 0.55,-8.8 5.28,-13.43 0,0 4.76,-4.58 13.24,-4.58 0,0 4.9,0 9.49,1.2 0,0 4.63,1.2 9.16,3.61 v -8.05 c 0,0 -4.58,-1.95 -9.39,-2.97 0,0 -4.82,-1.02 -9.77,-1.02 0,0 -12.41,0 -19.68,7.23 0,0 -7.22,7.22 -7.22,19.53 0,0 0,12.73 6.85,20.19 0,0 6.9,7.5 18.57,7.5 0,0 10.46,0 16.52,-6.76 0,0 6.11,-6.71 6.11,-18.29 m -8.51,2.5 c 0,0 -0.1,6.99 -3.94,11.16 0,0 -3.8,4.17 -10.09,4.17 0,0 -7.13,0 -11.44,-4.03 0,0 -4.26,-4.03 -4.9,-11.34 z"
           style="fill:#000000;fill-opacity:1;fill-rule:evenodd;stroke:none"
           id="path2190" /><path
           d="m 1062.72,3830.86 v -7.97 c 0,0 -3.61,2 -7.26,2.97 0,0 -3.62,1.02 -7.32,1.02 0,0 -8.29,0 -12.87,-5.28 0,0 -4.58,-5.23 -4.58,-14.72 0,0 0,-9.49 4.58,-14.77 0,0 4.58,-5.23 12.87,-5.23 0,0 3.7,0 7.32,0.97 0,0 3.65,1.02 7.26,3.01 v -7.87 c 0,0 -3.56,-1.67 -7.4,-2.5 0,0 -3.8,-0.84 -8.11,-0.84 0,0 -11.71,0 -18.61,7.37 0,0 -6.89,7.36 -6.89,19.86 0,0 0,12.68 6.94,19.95 0,0 6.99,7.27 19.12,7.27 0,0 3.94,0 7.69,-0.83 0,0 3.75,-0.79 7.26,-2.41 z"
           style="fill:#000000;fill-opacity:1;fill-rule:evenodd;stroke:none"
           id="path2192" /><path
           d="m 1091.75,3826.88 c 0,0 -6.85,0 -10.83,-5.37 0,0 -3.98,-5.33 -3.98,-14.63 0,0 0,-9.31 3.93,-14.68 0,0 3.98,-5.32 10.88,-5.32 0,0 6.81,0 10.79,5.37 0,0 3.98,5.37 3.98,14.63 0,0 0,9.21 -3.98,14.58 0,0 -3.98,5.42 -10.79,5.42 m 0,7.22 c 0,0 11.11,0 17.45,-7.22 0,0 6.35,-7.23 6.35,-20 0,0 0,-12.74 -6.35,-20 0,0 -6.34,-7.23 -17.45,-7.23 0,0 -11.16,0 -17.5,7.23 0,0 -6.29,7.26 -6.29,20 0,0 0,12.77 6.29,20 0,0 6.34,7.22 17.5,7.22 z"
           style="fill:#000000;fill-opacity:1;fill-rule:evenodd;stroke:none"
           id="path2194" /><path
           d="M 1167.58,3812.29 V 3781 h -8.51 v 31.02 c 0,0 0,7.36 -2.87,11.01 0,0 -2.87,3.66 -8.62,3.66 0,0 -6.89,0 -10.88,-4.4 0,0 -3.98,-4.4 -3.98,-11.99 V 3781 h -8.56 v 51.85 h 8.56 v -8.06 c 0,0 3.06,4.68 7.18,6.99 0,0 4.17,2.32 9.58,2.32 0,0 8.94,0 13.52,-5.56 0,0 4.58,-5.51 4.58,-16.25 z"
           style="fill:#000000;fill-opacity:1;fill-rule:evenodd;stroke:none"
           id="path2196" /><path
           d="m 1210.64,3824.98 v 28.05 h 8.52 V 3781 h -8.52 v 7.77 c 0,0 -2.69,-4.63 -6.81,-6.89 0,0 -4.07,-2.23 -9.81,-2.23 0,0 -9.4,0 -15.32,7.5 0,0 -5.88,7.5 -5.88,19.73 0,0 0,12.22 5.88,19.72 0,0 5.92,7.5 15.32,7.5 0,0 5.74,0 9.81,-2.27 0,0 4.12,-2.22 6.81,-6.85 m -29.03,-18.1 c 0,0 0,-9.4 3.84,-14.77 0,0 3.89,-5.33 10.65,-5.33 0,0 6.76,0 10.65,5.33 0,0 3.89,5.37 3.89,14.77 0,0 0,9.39 -3.89,14.72 0,0 -3.89,5.37 -10.65,5.37 0,0 -6.76,0 -10.65,-5.37 0,0 -3.84,-5.33 -3.84,-14.72 z"
           style="fill:#000000;fill-opacity:1;fill-rule:evenodd;stroke:none"
           id="path2198" /><path
           d="M 735.7,3694.6 H 888.98"
           style="fill:none;stroke:#3ea44e;stroke-width:8;stroke-linecap:butt;stroke-linejoin:miter;stroke-miterlimit:10;stroke-dasharray:none;stroke-opacity:1"
           id="path2200" /><path
           d="M 914.53,3729.16 H 973 v -7.87 h -24.53 v -61.25 h -9.4 v 61.25 h -24.54 z"
           style="fill:#000000;fill-opacity:1;fill-rule:evenodd;stroke:none"
           id="path2202" /><path
           d="m 1025.04,3691.33 v -31.29 h -8.52 v 31.02 c 0,0 0,7.36 -2.87,11.01 0,0 -2.87,3.66 -8.61,3.66 0,0 -6.9,0 -10.88,-4.4 0,0 -3.98,-4.4 -3.98,-11.99 v -29.3 h -8.57 v 72.03 h 8.57 v -28.24 c 0,0 3.05,4.68 7.17,6.99 0,0 4.17,2.32 9.59,2.32 0,0 8.93,0 13.52,-5.56 0,0 4.58,-5.51 4.58,-16.25 z"
           style="fill:#000000;fill-opacity:1;fill-rule:evenodd;stroke:none"
           id="path2204" /><path
           d="m 1033.97,3711.89 h 8.52 v -51.85 h -8.52 v 51.85 m 0,20.18 h 8.52 v -10.78 h -8.52 z"
           style="fill:#000000;fill-opacity:1;fill-rule:evenodd;stroke:none"
           id="path2206" /><path
           d="m 1081.47,3703.93 c 0,0 -1.43,0.83 -3.14,1.2 0,0 -1.67,0.42 -3.71,0.42 0,0 -7.22,0 -11.11,-4.73 0,0 -3.84,-4.67 -3.84,-13.47 v -27.31 h -8.57 v 51.85 h 8.57 v -8.06 c 0,0 2.68,4.73 6.99,6.99 0,0 4.3,2.32 10.46,2.32 0,0 0.88,0 1.95,-0.14 0,0 1.06,-0.09 2.36,-0.32 z"
           style="fill:#000000;fill-opacity:1;fill-rule:evenodd;stroke:none"
           id="path2208" /><path
           d="m 1122.86,3704.02 v 28.05 h 8.52 v -72.03 h -8.52 v 7.77 c 0,0 -2.68,-4.63 -6.8,-6.89 0,0 -4.08,-2.23 -9.82,-2.23 0,0 -9.4,0 -15.32,7.5 0,0 -5.88,7.5 -5.88,19.73 0,0 0,12.22 5.88,19.72 0,0 5.92,7.5 15.32,7.5 0,0 5.74,0 9.82,-2.27 0,0 4.12,-2.22 6.8,-6.85 m -29.03,-18.1 c 0,0 0,-9.4 3.85,-14.77 0,0 3.89,-5.33 10.65,-5.33 0,0 6.75,0 10.64,5.33 0,0 3.89,5.37 3.89,14.77 0,0 0,9.39 -3.89,14.72 0,0 -3.89,5.37 -10.64,5.37 0,0 -6.76,0 -10.65,-5.37 0,0 -3.85,-5.33 -3.85,-14.72 z"
           style="fill:#000000;fill-opacity:1;fill-rule:evenodd;stroke:none"
           id="path2210" /></g></g></g></svg>
